<svg viewBox="-253.39162 -76.20002 5574.6143 1676.4001" xmlns="http://www.w3.org/2000/svg">
<g id="container_0">
<path d="M0,0 L5067.831,0 L5067.831,1524 L0,1524 z" fill="#D3D3D3" stroke="black" stroke-width="8.382001"/>
<title>container, id: 0, bbox: [x_min: 0.000, y_min: 0.000, x_max: 5067.831, y_max: 1524.000]</title>
</g>
<g id="items">
<defs>
<g id="item_0">
<path d="M-333.892,1340.608 L-328.8805,1345.329 L-327.53726,1346.221 L-325.3817,1348.6194 L-323.89392,1351.4803 L-323.5311,1353.0514 L-322.913,1355.7278 L-322.2909,1361.186 L-322.2909,1363.9329 L-322.2909,1366.5398 L-322.57117,1369.1316 L-322.57117,1414.8309 L-322.57117,1416.5029 L-323.43665,1419.7329 L-325.10864,1422.6289 L-327.47318,1424.9934 L-330.36914,1426.6654 L-333.59915,1427.5309 L-335.27115,1427.5309 L-336.7976,1427.5309 L-339.76355,1426.8075 L-342.4736,1425.4019 L-343.6235,1424.398 L-345.56952,1423.236 L-347.79968,1422.8314 L-349.3349,1423.0199 L-350.77905,1423.5739 L-354.89215,1425.7592 L-363.5894,1429.0953 L-372.6282,1431.3474 L-381.87402,1432.4819 L-386.53162,1432.4819 L-390.7686,1432.4819 L-399.1903,1431.5425 L-407.45596,1429.6752 L-415.46365,1426.903 L-423.11462,1423.2601 L-430.3146,1418.7915 L-433.64468,1416.1719 L-435.4934,1415.1621 L-437.57074,1414.8127 L-439.95,1415.2753 L-441.9826,1416.5957 L-443.1584,1417.7314 L-446.00854,1419.3335 L-449.17154,1420.1615 L-450.8063,1420.1615 L-452.4783,1420.1615 L-455.7083,1419.296 L-458.6043,1417.624 L-460.96884,1415.2595 L-462.64084,1412.3635 L-463.50632,1409.1335 L-463.50632,1407.4615 L-463.50632,1406.3413 L-463.31024,1405.2385 L-463.21222,1404.127 L-463.75546,1401.5571 L-465.29227,1399.427 L-467.55963,1398.1011 L-577.6894,1361.5024 L-582.1767,1360.0936 L-590.73663,1356.1936 L-598.75195,1351.2705 L-606.101,1345.399 L-612.6723,1338.6685 L-618.36597,1331.1808 L-623.0956,1323.0498 L-626.78937,1314.3988 L-629.3913,1305.3594 L-630.8618,1296.0685 L-631.0202,1291.3679 L-639.2146,1048.1904 L-639.2146,1044.4204 L-638.3943,1036.9249 L-636.76337,1029.5634 L-634.3412,1022.4228 L-631.15656,1015.5882 L-629.2019,1012.36444 L-504.18463,806.1761 L-502.6785,803.4578 L-498.87717,798.5406 L-494.37463,794.25616 L-489.27487,790.7035 L-483.69568,787.96454 L-477.76584,786.1027 L-471.62238,785.1609 L-468.51477,785.1609 L-465.30533,785.1609 L-458.9655,786.16504 L-452.86084,788.14856 L-447.14163,791.0627 L-441.94867,794.8356 L-437.40988,799.3744 L-433.63696,804.5673 L-430.72287,810.28656 L-428.73935,816.39124 L-427.73523,822.731 L-427.73523,825.9404 L-427.73523,828.76764 L-428.12537,831.56775 L-489.97195,1033.6235 L-491.55328,1041.1421 L-492.50644,1048.7657 L-492.8249,1056.442 L-492.50644,1064.1184 L-491.55328,1071.7421 L-489.97195,1079.2605 L-487.2379,1097.7047 L-483.4545,1115.9624 L-478.63406,1133.9741 L-472.7923,1151.681 L-465.94836,1169.0253 L-458.1246,1185.9501 L-449.34656,1202.4001 L-439.6429,1218.3218 L-429.04538,1233.6631 L-417.58862,1248.3737 L-405.31003,1262.4056 L-392.24973,1275.713 L-380.78973,1290.1243 L-368.86948,1304.1571 L-368.48816,1304.5916 L-368.0807,1305.6735 L-368.0807,1306.2515 L-368.0807,1306.8978 L-368.5861,1308.0876 L-369.05127,1308.5365 L-377.11484,1316.3157 L-377.55872,1316.7439 L-378.70248,1317.2057 L-379.31924,1317.2057 L-379.5883,1317.2057 L-379.8535,1317.1604 L-386.53165,1316.5945 L-393.4233,1317.1974 L-400.10556,1318.9879 L-406.3754,1321.9116 L-412.04227,1325.8795 L-416.93402,1330.7714 L-420.902,1336.4382 L-423.82568,1342.708 L-425.61618,1349.3903 L-426.21915,1356.282 L-425.61618,1363.1736 L-423.82568,1369.8558 L-420.902,1376.1257 L-416.93402,1381.7926 L-412.04227,1386.6843 L-406.3754,1390.6523 L-400.10556,1393.576 L-393.4233,1395.3665 L-386.53165,1395.9695 L-379.63998,1395.3665 L-372.9577,1393.576 L-366.6879,1390.6523 L-361.021,1386.6843 L-356.12924,1381.7926 L-352.16125,1376.1257 L-349.23758,1369.8558 L-347.44708,1363.1736 L-346.84415,1356.282 L-347.1956,1351.0121 L-347.2237,1350.8022 L-347.2237,1350.5906 L-347.2237,1349.9442 L-346.7183,1348.7543 L-346.2531,1348.3055 L-338.28745,1340.6208 L-337.84357,1340.1926 L-336.69977,1339.7308 L-336.08304,1339.7308 L-335.47107,1339.7308 L-334.33487,1340.1857 z" fill="#7A7A7A" fill-opacity="0.5" fill-rule="nonzero" stroke="black" stroke-width="4.1910005"/>
</g>
<g id="cd_shape_0">
<path d="M-323.59607,1349.7345 L-321.99384,1363.7926 L-322.57117,1369.1316 L-322.57117,1420.0914 L-328.6972,1426.2174 L-337.8155,1428.6606 L-345.56952,1423.236 L-350.77905,1423.5739 L-359.03613,1427.9609 L-372.6282,1431.3474 L-386.10953,1433.0017 L-403.42743,1431.0698 L-415.46365,1426.903 L-426.9638,1421.4275 L-433.64468,1416.1719 L-439.95,1415.2753 L-444.85745,1419.0322 L-450.84418,1420.5994 L-457.3803,1418.848 L-463.7535,1412.4749 L-463.75546,1401.5571 L-467.55963,1398.1011 L-577.6894,1361.5024 L-582.1767,1360.0936 L-595.0493,1354.2286 L-609.8039,1342.4407 L-621.2346,1327.4082 L-628.65045,1310.04 L-630.8618,1296.0685 L-639.3117,1045.308 L-637.9817,1033.155 L-633.12286,1018.8312 L-504.18463,806.1761 L-502.6785,803.4578 L-496.95428,796.0532 L-486.69498,788.90625 L-474.76614,785.1609 L-462.05597,785.1609 L-449.7706,789.15265 L-439.31995,796.7455 L-431.72702,807.19617 L-427.73523,819.48157 L-427.73523,830.29315 L-489.97195,1033.6235 L-492.50644,1048.7657 L-492.8249,1056.442 L-491.55328,1071.7421 L-489.97195,1079.2605 L-487.2379,1097.7047 L-483.4545,1115.9624 L-478.63406,1133.9741 L-472.7923,1151.681 L-465.94836,1169.0253 L-458.1246,1185.9501 L-449.34656,1202.4001 L-439.6429,1218.3218 L-429.04538,1233.6631 L-417.58862,1248.3737 L-405.31003,1262.4056 L-392.24973,1275.713 L-380.78973,1290.1243 L-366.89917,1306.4603 L-378.22083,1317.3827 L-386.53165,1316.5945 L-400.10556,1318.9879 L-406.3754,1321.9116 L-416.93402,1330.7714 L-420.902,1336.4382 L-423.82568,1342.708 L-426.21915,1356.282 L-425.61618,1363.1736 L-423.82568,1369.8558 L-420.902,1376.1257 L-416.93402,1381.7926 L-412.04227,1386.6843 L-400.10556,1393.576 L-393.4233,1395.3665 L-386.53165,1395.9695 L-379.63998,1395.3665 L-372.9577,1393.576 L-361.021,1386.6843 L-356.12924,1381.7926 L-352.16125,1376.1257 L-347.44708,1363.1736 L-347.325,1349.3396 L-336.1413,1338.5504 z" fill="none" stroke="black" stroke-dasharray="4.1910005 8.382001" stroke-linecap="round" stroke-linejoin="round" stroke-opacity="0.3" stroke-width="2.0955002"/>
</g>
<g id="item_1">
<path d="M-569.176,1501.1151 L-568.28827,1500.2588 L-566.0007,1499.3352 L-564.76715,1499.3352 L-563.552,1499.3352 L-561.2934,1500.2324 L-560.4095,1501.0664 L-557.5833,1503.7147 L-556.24005,1504.6066 L-554.08453,1507.005 L-552.59674,1509.8661 L-552.2339,1511.437 L-551.6158,1514.1134 L-550.99365,1519.5717 L-550.99365,1522.3185 L-550.99365,1524.9254 L-551.2739,1527.5172 L-551.2739,1573.2166 L-551.2739,1574.8885 L-552.13947,1578.1185 L-553.8114,1581.0145 L-556.17596,1583.379 L-559.07196,1585.051 L-562.30194,1585.9165 L-563.97394,1585.9165 L-565.50037,1585.9165 L-568.4664,1585.1931 L-571.1764,1583.7875 L-572.3263,1582.7836 L-574.27234,1581.6216 L-576.50244,1581.217 L-578.0377,1581.4055 L-579.4819,1581.9595 L-583.5949,1584.1448 L-592.2922,1587.481 L-601.331,1589.733 L-610.57684,1590.8676 L-615.23444,1590.8676 L-619.4714,1590.8676 L-627.8931,1589.9281 L-636.15875,1588.0608 L-644.16644,1585.2886 L-651.81744,1581.6458 L-659.0174,1577.1771 L-662.3475,1574.5575 L-664.1962,1573.5477 L-666.27356,1573.1984 L-668.6528,1573.6609 L-670.6854,1574.9813 L-671.86115,1576.1171 L-674.71136,1577.7191 L-677.8743,1578.5471 L-679.5091,1578.5471 L-681.1811,1578.5471 L-684.41113,1577.6816 L-687.30707,1576.0096 L-689.67163,1573.6451 L-691.3436,1570.7491 L-692.2091,1567.5192 L-692.2091,1565.8472 L-692.2091,1564.727 L-692.01306,1563.6241 L-691.915,1562.5127 L-692.45825,1559.9427 L-693.99506,1557.8126 L-696.26245,1556.4867 L-806.3922,1519.8881 L-810.87946,1518.4792 L-819.4394,1514.5792 L-827.4548,1509.6561 L-834.80383,1503.7847 L-841.37506,1497.0541 L-847.0687,1489.5664 L-851.79834,1481.4354 L-855.4922,1472.7844 L-858.09406,1463.745 L-859.5646,1454.4541 L-859.723,1449.7535 L-867.9174,1206.576 L-867.9174,1202.806 L-867.0971,1195.3107 L-865.4661,1187.949 L-863.044,1180.8085 L-859.8593,1173.9739 L-857.90466,1170.7501 L-732.88745,964.5617 L-731.3813,961.8435 L-727.57996,956.9263 L-723.07745,952.6418 L-717.97766,949.0891 L-712.39844,946.3502 L-706.4686,944.48834 L-700.3252,943.5466 L-697.2175,943.5466 L-694.0081,943.5466 L-687.66833,944.55066 L-681.56366,946.53424 L-675.8444,949.4483 L-670.6515,953.2212 L-666.1127,957.76 L-662.3398,962.95294 L-659.42566,968.6722 L-657.44214,974.77686 L-656.438,981.1167 L-656.438,984.3261 L-656.438,987.15326 L-656.8281,989.95337 L-718.67474,1192.0093 L-720.25604,1199.5277 L-721.2092,1207.1514 L-721.5277,1214.8278 L-721.2092,1222.504 L-720.25604,1230.1277 L-718.67474,1237.6462 L-715.94073,1256.0903 L-712.1573,1274.348 L-707.33685,1292.3599 L-701.4951,1310.0668 L-694.6512,1327.4109 L-686.8274,1344.3357 L-678.0493,1360.7858 L-668.3457,1376.7075 L-657.74817,1392.0487 L-646.2914,1406.7593 L-634.0128,1420.7913 L-620.9525,1434.0988 L-610.4422,1447.3514 L-599.54254,1460.2859 L-598.79016,1461.1522 L-597.987,1463.3021 L-597.987,1464.4496 L-597.987,1465.7423 L-598.9978,1468.122 L-599.92816,1469.0195 L-604.6876,1473.6111 L-605.5753,1474.4675 L-607.8629,1475.3911 L-609.09644,1475.3911 L-609.52167,1475.3911 L-609.94305,1475.3345 L-615.23444,1474.9801 L-622.1261,1475.583 L-628.80835,1477.3735 L-635.0782,1480.2972 L-640.74506,1484.2653 L-645.63684,1489.157 L-649.6048,1494.8239 L-652.5285,1501.0936 L-654.319,1507.7759 L-654.92194,1514.6676 L-654.319,1521.5592 L-652.5285,1528.2416 L-649.6048,1534.5114 L-645.63684,1540.1782 L-640.74506,1545.07 L-635.0782,1549.038 L-628.80835,1551.9617 L-622.1261,1553.7522 L-615.23444,1554.3551 L-608.3428,1553.7522 L-601.6605,1551.9617 L-595.3907,1549.038 L-589.7238,1545.07 L-584.83203,1540.1782 L-580.8641,1534.5114 L-577.94037,1528.2416 L-576.1499,1521.5592 L-575.54694,1514.6676 L-575.7367,1510.7913 L-575.767,1510.4818 L-575.767,1510.171 L-575.767,1508.8783 L-574.7562,1506.4985 L-573.82587,1505.6011 z" fill="#7A7A7A" fill-opacity="0.5" fill-rule="nonzero" stroke="black" stroke-width="4.1910005"/>
</g>
<g id="cd_shape_1">
<path d="M-575.9176,1507.618 L-567.3308,1499.3352 L-562.24927,1499.3352 L-552.306,1508.0575 L-550.69653,1522.1781 L-551.2739,1527.5172 L-551.2739,1576.6194 L-554.67676,1582.5134 L-562.0349,1586.7617 L-569.54224,1584.9307 L-574.27234,1581.6216 L-579.4819,1581.9595 L-583.5949,1584.1448 L-596.6733,1589.1615 L-610.57684,1590.8676 L-623.7346,1590.8676 L-640.31696,1587.1213 L-655.6665,1579.8131 L-662.3475,1574.5575 L-668.6528,1573.6609 L-673.5602,1577.4177 L-679.54694,1578.985 L-686.083,1577.2336 L-692.4563,1570.8606 L-692.45825,1559.9427 L-696.26245,1556.4867 L-806.3922,1519.8881 L-815.4009,1517.0597 L-827.4548,1509.6561 L-838.50653,1500.8264 L-849.9373,1485.794 L-855.4922,1472.7844 L-859.405,1459.1904 L-868.0145,1203.6936 L-866.6845,1191.5409 L-861.8258,1177.2172 L-732.88745,964.5617 L-729.85754,959.09357 L-720.80005,950.4746 L-709.5761,944.9647 L-697.1152,943.05444 L-684.45917,945.05896 L-672.9492,950.92346 L-666.1127,957.76 L-660.42975,965.5819 L-656.438,977.8673 L-656.438,988.6788 L-718.67474,1192.0093 L-721.2092,1207.1514 L-721.2092,1222.504 L-718.67474,1237.6462 L-715.94073,1256.0903 L-712.1573,1274.348 L-707.33685,1292.3599 L-701.4951,1310.0668 L-694.6512,1327.4109 L-686.8274,1344.3357 L-678.0493,1360.7858 L-668.3457,1376.7075 L-657.74817,1392.0487 L-646.2914,1406.7593 L-634.0128,1420.7913 L-620.9525,1434.0988 L-610.4422,1447.3514 L-597.987,1462.1035 L-597.987,1467.1469 L-606.7401,1475.5912 L-615.23444,1474.9801 L-622.1261,1475.583 L-628.80835,1477.3735 L-640.74506,1484.2653 L-645.63684,1489.157 L-649.6048,1494.8239 L-654.319,1507.7759 L-654.319,1521.5592 L-652.5285,1528.2416 L-649.6048,1534.5114 L-645.63684,1540.1782 L-635.0782,1549.038 L-628.80835,1551.9617 L-615.23444,1554.3551 L-608.3428,1553.7522 L-601.6605,1551.9617 L-589.7238,1545.07 L-584.83203,1540.1782 L-577.94037,1528.2416 L-576.1499,1521.5592 z" fill="none" stroke="black" stroke-dasharray="4.1910005 8.382001" stroke-linecap="round" stroke-linejoin="round" stroke-opacity="0.3" stroke-width="2.0955002"/>
</g>
<g id="item_2">
<path d="M-697.2111,467.07568 L-694.12665,467.07568 L-688.038,468.06802 L-682.18835,470.02682 L-676.7299,472.90112 L-671.805,476.61603 L-667.54175,481.0748 L-664.0512,486.1613 L-661.42444,491.743 L-660.577,494.7088 L-566.2342,824.9088 L-565.50476,827.46173 L-564.76825,832.7206 L-564.76825,835.3757 L-564.76825,838.51697 L-565.79724,844.7147 L-567.8274,850.6602 L-570.8039,856.19293 L-574.6464,861.16345 L-579.25116,865.43744 L-584.49365,868.8996 L-590.2325,871.45636 L-593.2725,872.2475 L-685.6669,898.75604 L-686.7345,899.0623 L-688.9342,899.37164 L-690.04486,899.37164 L-692.00397,899.37164 L-695.80457,898.41907 L-697.53204,897.4951 L-710.32947,891.21735 L-723.53546,885.8522 L-737.08514,881.42596 L-750.91174,877.96063 L-764.9473,875.4731 L-779.12274,873.97565 L-793.3682,873.4757 L-807.6137,873.97565 L-821.7891,875.4731 L-835.8247,877.96063 L-849.6513,881.42596 L-863.201,885.8522 L-876.407,891.21735 L-889.2044,897.4951 L-890.9319,898.4191 L-894.7325,899.37164 L-896.6916,899.37164 L-897.80225,899.37164 L-900.002,899.0623 L-901.06964,898.75604 L-993.4639,872.2475 L-996.50397,871.45636 L-1002.2428,868.8996 L-1007.48535,865.43744 L-1012.09,861.16345 L-1015.93256,856.19293 L-1018.90906,850.6602 L-1020.9393,844.7147 L-1021.96826,838.51697 L-1021.96826,835.3757 L-1021.96826,832.7206 L-1021.2317,827.46173 L-1020.5023,824.9088 L-926.1594,494.7088 L-925.3121,491.743 L-922.68524,486.1613 L-919.19476,481.0748 L-914.9315,476.61603 L-910.00653,472.90112 L-904.54816,470.02682 L-898.6984,468.06802 L-892.60986,467.07568 L-889.5254,467.07568 z" fill="#7A7A7A" fill-opacity="0.5" fill-rule="nonzero" stroke="black" stroke-width="4.1910005"/>
</g>
<g id="cd_shape_2">
<path d="M-691.0015,467.07568 L-673.01544,473.09845 L-662.28296,488.73798 L-563.87805,833.1552 L-567.4136,854.45013 L-583.9839,869.83026 L-691.6581,900.475 L-710.32947,891.21735 L-737.08514,881.42596 L-764.9473,875.4731 L-779.12274,873.97565 L-807.6137,873.97565 L-821.7891,875.4731 L-849.6513,881.42596 L-876.407,891.21735 L-895.07825,900.475 L-999.5856,870.6544 L-1012.8735,861.87915 L-1020.4177,847.85583 L-1022.85846,833.1553 L-923.572,485.6528 L-912.77185,474.3573 L-898.94385,467.07568 z" fill="none" stroke="black" stroke-dasharray="4.1910005 8.382001" stroke-linecap="round" stroke-linejoin="round" stroke-opacity="0.3" stroke-width="2.0955002"/>
</g>
<g id="item_3">
<path d="M-54.50985,1673.4592 L-56.237354,1674.3832 L-60.037956,1675.3357 L-61.997036,1675.3357 L-63.107723,1675.3357 L-65.30746,1675.0264 L-66.37508,1674.7201 L-158.76941,1648.2117 L-161.80943,1647.4204 L-167.54823,1644.8638 L-172.79077,1641.4016 L-177.39548,1637.1276 L-181.23799,1632.157 L-184.21454,1626.6243 L-186.2447,1620.6788 L-187.2737,1614.4811 L-187.2737,1611.3397 L-187.2737,1608.0065 L-186.11604,1601.4412 L-183.83592,1595.1765 L-180.5026,1589.4031 L-176.21736,1584.2961 L-171.11043,1580.0109 L-165.33694,1576.6775 L-159.07236,1574.3975 L-152.507,1573.2397 L-149.17369,1573.2397 L-146.05313,1573.2397 L-139.89522,1574.2552 L-136.93991,1575.2573 L-138.03058,1574.8875 L-87.94781,1589.2566 L-85.780334,1589.7175 L-83.5698,1589.8722 L-79.51167,1589.3447 L-75.72321,1587.7975 L-72.45616,1585.3331 L-69.92762,1582.1155 L-68.3056,1578.3584 L-56.408245,1536.7177 L-70.71718,1505.4285 L-71.28571,1504.1852 L-71.86758,1501.5137 L-71.86758,1500.1467 L-71.86758,1498.3679 L-71.37893,1496.6577 L-27.979599,1344.76 L-27.522234,1342.6007 L-27.36879,1340.3988 L-27.896242,1336.3407 L-29.44355,1332.5522 L-31.907892,1329.2852 L-35.125515,1326.7566 L-38.8826,1325.1346 L-61.699215,1318.6156 L-64.962036,1318.0176 L-71.1828,1315.7118 L-76.91148,1312.3657 L-81.97569,1308.0798 L-86.22304,1302.9834 L-89.52569,1297.2295 L-91.78427,1290.9915 L-92.93082,1284.4569 L-92.93082,1281.1398 L-92.93082,1277.8065 L-91.77316,1271.2411 L-89.49304,1264.9766 L-86.15973,1259.203 L-81.8745,1254.0961 L-76.767555,1249.8109 L-70.99409,1246.4775 L-64.7295,1244.1974 L-58.164146,1243.0398 L-54.83083,1243.0398 L137.48347,1243.0398 L140.56793,1243.0398 L146.65654,1244.0321 L152.50623,1245.991 L157.96463,1248.8652 L162.8896,1252.5802 L167.15285,1257.039 L170.64334,1262.1254 L173.27016,1267.7072 L174.11754,1270.6729 L268.46036,1600.8729 L269.1898,1603.4258 L269.92633,1608.6847 L269.92633,1611.3398 L269.92633,1614.4811 L268.89734,1620.6788 L266.86716,1626.6243 L263.89063,1632.157 L260.04813,1637.1276 L255.4434,1641.4016 L250.20087,1644.8638 L244.46207,1647.4204 L241.42204,1648.2117 L149.02773,1674.7201 L147.9601,1675.0264 L145.76036,1675.3357 L144.64967,1675.3357 L142.6906,1675.3357 L138.89,1674.3832 L137.16249,1673.4592 L124.36509,1667.1814 L111.15906,1661.8163 L97.6094,1657.3901 L83.782776,1653.9247 L69.74722,1651.4373 L55.571823,1649.9398 L41.32632,1649.4398 L27.080818,1649.9398 L12.905415,1651.4373 L-1.1301326,1653.9247 L-14.956758,1657.3901 L-28.50642,1661.8163 L-41.712444,1667.1814 z" fill="#7A7A7A" fill-opacity="0.5" fill-rule="nonzero" stroke="black" stroke-width="4.1910005"/>
</g>
<g id="cd_shape_3">
<path d="M-60.383713,1676.4391 L-168.31012,1645.5605 L-182.12796,1632.7349 L-187.2737,1617.6654 L-187.2737,1604.6218 L-181.48445,1588.7158 L-168.51741,1577.8351 L-155.89143,1573.2397 L-142.89038,1573.2397 L-87.947815,1589.2566 L-75.723206,1587.7975 L-68.3056,1578.3584 L-56.40825,1536.7177 L-72.66681,1501.1652 L-27.979599,1344.76 L-27.89624,1336.3407 L-31.90789,1329.2852 L-38.8826,1325.1346 L-61.69922,1318.6156 L-68.27461,1317.4104 L-79.81932,1310.6672 L-90.60214,1297.7289 L-93.515686,1281.1235 L-91.18544,1267.908 L-84.46738,1256.2717 L-74.1745,1247.6351 L-61.549072,1243.0398 L143.69324,1243.0398 L158.51236,1248.0022 L171.53015,1261.617 L269.92633,1606.0037 L269.92633,1617.6654 L265.8382,1629.6377 L258.10065,1639.6467 L247.54428,1646.6182 L241.42204,1648.2117 L143.03638,1676.4391 L124.36509,1667.1814 L111.15906,1661.8163 L97.6094,1657.3901 L83.782776,1653.9247 L55.571823,1649.9398 L41.32632,1649.4398 L27.080818,1649.9398 L12.905415,1651.4373 L-1.1301346,1653.9247 L-28.506424,1661.8163 L-41.71245,1667.1814 z" fill="none" stroke="black" stroke-dasharray="4.1910005 8.382001" stroke-linecap="round" stroke-linejoin="round" stroke-opacity="0.3" stroke-width="2.0955002"/>
</g>
<g id="item_4">
<path d="M-1039.1453,1060.5054 L-880.6976,1060.5054 L-877.9198,1060.5054 L-872.44867,1061.4701 L-867.2282,1063.3702 L-862.41693,1066.148 L-858.1612,1069.719 L-854.59015,1073.9747 L-851.8124,1078.786 L-849.9123,1084.0065 L-848.9476,1089.4777 L-848.9476,1092.2554 L-848.9476,1094.9435 L-849.85144,1100.2432 L-851.6334,1105.3153 L-854.24274,1110.0157 L-857.6052,1114.2107 L-859.6152,1115.9956 L-913.41376,1163.7712 L-914.9264,1165.1145 L-918.3869,1167.2107 L-922.16907,1168.6477 L-926.1485,1169.3782 L-928.17145,1169.3782 L-930.44507,1169.3782 L-934.8981,1168.4575 L-939.0724,1166.6542 L-942.79517,1164.0431 L-944.35364,1162.3876 L-947.671,1159.9369 L-951.37683,1158.1263 L-955.3489,1157.0156 L-959.45624,1156.6412 L-959.92145,1156.646 L-960.38666,1156.6412 L-964.4941,1157.0156 L-968.4661,1158.1263 L-972.1719,1159.9369 L-975.48926,1162.3876 L-977.0477,1164.0431 L-980.7705,1166.6542 L-984.9448,1168.4575 L-989.3978,1169.3782 L-991.67145,1169.3782 L-993.6944,1169.3782 L-997.6738,1168.6477 L-1001.456,1167.2107 L-1004.9165,1165.1145 L-1006.42914,1163.7712 L-1060.2278,1115.9956 L-1062.2377,1114.2107 L-1065.6001,1110.0157 L-1068.2095,1105.3153 L-1069.9915,1100.2432 L-1070.8953,1094.9435 L-1070.8953,1092.2554 L-1070.8953,1089.4777 L-1069.9307,1084.0065 L-1068.0305,1078.786 L-1065.2527,1073.9747 L-1061.6818,1069.719 L-1057.4259,1066.148 L-1052.6147,1063.3702 L-1047.3942,1061.4701 L-1041.9231,1060.5054 z" fill="#7A7A7A" fill-opacity="0.5" fill-rule="nonzero" stroke="black" stroke-width="4.1910005"/>
</g>
<g id="cd_shape_4">
<path d="M-877.9198,1060.5054 L-872.44867,1061.4701 L-867.2282,1063.3702 L-859.9744,1067.5581 L-852.7771,1076.1354 L-849.9123,1084.0065 L-848.4737,1092.165 L-850.3099,1102.931 L-855.5663,1112.4 L-916.4642,1166.4802 L-924.0916,1169.3782 L-932.76697,1169.3782 L-940.35016,1166.1022 L-947.671,1159.9369 L-951.37683,1158.1263 L-955.3489,1157.0156 L-960.38666,1156.6412 L-964.4941,1157.0156 L-968.4661,1158.1263 L-972.1719,1159.9369 L-979.49274,1166.1022 L-987.0759,1169.3782 L-995.7513,1169.3782 L-1003.37866,1166.4802 L-1062.2375,1114.2108 L-1067.3057,1107.888 L-1070.8953,1097.6707 L-1070.8953,1089.4777 L-1069.4409,1081.229 L-1065.2527,1073.9747 L-1059.8688,1067.5583 L-1052.6147,1063.3702 L-1047.3942,1061.4701 L-1041.9231,1060.5054 z" fill="none" stroke="black" stroke-dasharray="4.1910005 8.382001" stroke-linecap="round" stroke-linejoin="round" stroke-opacity="0.3" stroke-width="2.0955002"/>
</g>
<g id="item_5">
<path d="M-94.497604,460.4461 L-424.6976,460.4461 L-302.2479,429.83365 L-299.9813,429.26703 L-295.34363,428.6961 L-293.0073,428.6961 L-226.18791,428.6961 L-223.85158,428.6961 L-219.2139,429.26703 L-216.94731,429.83365 z" fill="#7A7A7A" fill-opacity="0.5" fill-rule="nonzero" stroke="black" stroke-width="4.1910005"/>
</g>
<g id="cd_shape_5">
<path d="M-94.497604,460.4461 L-424.6976,460.4461 L-297.69772,428.6961 L-221.49748,428.6961 z" fill="none" stroke="black" stroke-dasharray="4.1910005 8.382001" stroke-linecap="round" stroke-linejoin="round" stroke-opacity="0.3" stroke-width="2.0955002"/>
</g>
<g id="item_6">
<path d="M-400.7494,502.87305 L-280.0994,502.87305 L-280.0994,585.87305 L-286.2902,580.9355 L-293.03754,576.7908 L-300.2405,573.501 L-307.79126,571.11536 L-315.5768,569.6695 L-323.48068,569.1851 L-332.20007,569.7751 L-340.76053,571.53424 L-349.006,574.4304 L-356.78622,578.41095 L-363.95932,583.4032 L-370.39456,589.3162 L-381.13092,600.15985 L-391.25928,611.5735 L-400.7494,623.523 z" fill="#7A7A7A" fill-opacity="0.5" fill-rule="nonzero" stroke="black" stroke-width="4.1910005"/>
</g>
<g id="cd_shape_6">
<path d="M-400.7494,502.87305 L-280.0994,502.87305 L-280.0994,585.87305 L-293.03754,576.7908 L-300.2405,573.501 L-307.79126,571.11536 L-315.5768,569.6695 L-323.48068,569.1851 L-332.20007,569.7751 L-340.76053,571.53424 L-349.006,574.4304 L-356.78622,578.41095 L-363.95932,583.4032 L-381.13092,600.15985 L-391.25928,611.5735 L-400.7494,623.523 z" fill="none" stroke="black" stroke-dasharray="4.1910005 8.382001" stroke-linecap="round" stroke-linejoin="round" stroke-opacity="0.3" stroke-width="2.0955002"/>
</g>
<g id="item_7">
<path d="M114.54082,705.40314 L126.51351,713.4261 L132.15758,713.4261 L132.62254,714.54865 L133.74507,715.0136 L134.8676,714.54865 L135.33257,713.4261 L149.23164,713.4261 L151.73332,713.4261 L156.64055,714.4022 L161.26305,716.3169 L165.42319,719.0966 L168.9611,722.6345 L171.74081,726.7947 L173.65552,731.4172 L174.63162,736.3244 L174.63162,738.8261 L174.63162,830.5722 L174.63162,833.07385 L173.65552,837.9811 L171.74081,842.6036 L168.9611,846.76373 L165.42319,850.30164 L161.26305,853.08136 L156.64055,854.9961 L151.73332,855.97217 L149.23163,855.97217 L135.33257,855.97217 L134.8676,854.8497 L133.74507,854.3847 L132.62254,854.8497 L132.15758,855.97217 L126.51351,855.97217 L114.54082,863.9951 L114.54082,900.5171 L113.41828,900.98206 L112.953316,902.1046 L113.41828,903.2271 L114.54082,903.6921 L114.54082,912.92395 L114.54082,914.8793 L113.59187,918.67303 L111.7507,922.1231 L109.12737,925.0233 L107.50304,926.1118 L43.963512,968.68976 L43.963512,903.6921 L45.086044,903.2271 L45.551014,902.1046 L45.086044,900.98206 L43.963512,900.5171 L43.963512,668.88116 L45.086044,668.4162 L45.551014,667.2937 L45.086044,666.17114 L43.963512,665.7062 L43.963512,600.70856 L107.50304,643.2865 L109.12737,644.37494 L111.7507,647.27515 L113.59187,650.7252 L114.54082,654.519 L114.54082,656.4743 L114.54082,665.7062 L113.41828,666.17114 L112.953316,667.2937 L113.41828,668.4162 L114.54082,668.88116 z" fill="#7A7A7A" fill-opacity="0.5" fill-rule="nonzero" stroke="black" stroke-width="4.1910005"/>
</g>
<g id="cd_shape_7">
<path d="M114.54082,705.40314 L126.51351,713.4261 L154.28392,713.4261 L163.61952,717.29297 L170.76468,724.4381 L174.63162,733.7737 L174.63162,835.6246 L170.76468,844.96014 L165.42319,850.30164 L159.14212,854.49854 L151.73332,855.97217 L126.51351,855.97217 L114.54082,863.9951 L114.54082,914.8793 L113.1028,920.6283 L109.127304,925.0234 L43.963512,968.68976 L43.963512,600.70856 L110.801735,645.49695 L114.54082,652.5034 z" fill="none" stroke="black" stroke-dasharray="4.1910005 8.382001" stroke-linecap="round" stroke-linejoin="round" stroke-opacity="0.3" stroke-width="2.0955002"/>
</g>
<g id="item_8">
<path d="M284.02798,1228.3723 L287.77563,1228.483 L296.34793,1227.9017 L304.7633,1226.1686 L312.86765,1223.3152 L320.5126,1219.3938 L327.55823,1214.4764 L344.45786,1200.8926 L326.71707,1238.9011 L302.32364,1264.2316 L300.54642,1266.077 L296.32648,1268.9838 L291.61102,1270.9891 L286.59006,1272.0126 L284.02795,1272.0126 L281.46588,1272.0126 L276.44492,1270.9891 L271.72946,1268.9838 L267.50952,1266.077 L265.7323,1264.2316 L241.33887,1238.9011 L223.59808,1200.8926 L240.49771,1214.4764 L247.54333,1219.3938 L255.18831,1223.3152 L263.29266,1226.1686 L271.708,1227.9017 L280.2803,1228.483 z" fill="#7A7A7A" fill-opacity="0.5" fill-rule="nonzero" stroke="black" stroke-width="4.1910005"/>
</g>
<g id="cd_shape_8">
<path d="M284.02798,1228.3723 L287.77563,1228.483 L296.34793,1227.9017 L304.7633,1226.1686 L312.86765,1223.3152 L320.5126,1219.3938 L327.55823,1214.4764 L344.45786,1200.8926 L326.71707,1238.9011 L300.5465,1266.077 L294.17337,1270.4668 L286.59006,1272.0126 L281.46588,1272.0126 L273.88257,1270.4668 L267.50943,1266.077 L241.33887,1238.9011 L223.59808,1200.8926 L240.49771,1214.4764 L247.54333,1219.3938 L255.18831,1223.3152 L263.29266,1226.1686 L271.708,1227.9017 L280.2803,1228.483 z" fill="none" stroke="black" stroke-dasharray="4.1910005 8.382001" stroke-linecap="round" stroke-linejoin="round" stroke-opacity="0.3" stroke-width="2.0955002"/>
</g>
<g id="item_9">
<path d="M401.36942,687.2784 L364.70767,687.2784 L346.3768,655.5284 L364.70767,623.7784 L401.36942,623.7784 L419.7003,655.5284 z" fill="#7A7A7A" fill-opacity="0.5" fill-rule="nonzero" stroke="black" stroke-width="4.1910005"/>
</g>
<g id="cd_shape_9">
<path d="M401.36942,687.2784 L364.70767,687.2784 L346.3768,655.5284 L364.70767,623.7784 L401.36942,623.7784 L419.7003,655.5284 z" fill="none" stroke="black" stroke-dasharray="4.1910005 8.382001" stroke-linecap="round" stroke-linejoin="round" stroke-opacity="0.3" stroke-width="2.0955002"/>
</g>
<g id="item_10">
<path d="M258.0154,717.06067 L486.61542,717.06067 L483.76062,727.5105 L482.03467,738.20496 L481.45715,749.02234 L481.798,757.3377 L482.8183,765.59735 L483.00415,766.7214 L483.00415,767.86066 L483.00415,769.6646 L482.08148,773.1525 L480.29752,776.2885 L477.77087,778.864 L474.66965,780.7077 L471.2,781.69696 L469.3964,781.7315 L465.99188,781.79675 L462.58676,781.79675 L452.67664,781.79675 L432.88718,780.6929 L413.18994,778.4885 L393.646,775.1906 L374.3161,770.8093 L355.2602,765.3583 L336.53748,758.8544 L318.20605,751.3178 L300.3228,742.77203 L282.94327,733.24347 L266.1214,722.7618 z" fill="#7A7A7A" fill-opacity="0.5" fill-rule="nonzero" stroke="black" stroke-width="4.1910005"/>
</g>
<g id="cd_shape_10">
<path d="M256.9718,717.06067 L486.61542,717.06067 L483.76062,727.5105 L482.03467,738.20496 L481.45715,749.02234 L481.798,757.3377 L483.50836,770.6442 L479.37485,777.91046 L472.83777,781.79675 L452.67664,781.79675 L432.88718,780.6929 L413.18994,778.4885 L393.646,775.1906 L374.3161,770.8093 L355.2602,765.3583 L336.53748,758.8544 L318.20605,751.3178 L300.3228,742.77203 L282.94327,733.24347 z" fill="none" stroke="black" stroke-dasharray="4.1910005 8.382001" stroke-linecap="round" stroke-linejoin="round" stroke-opacity="0.3" stroke-width="2.0955002"/>
</g>
<g id="item_11">
<path d="M-498.0874,1491.2279 L-244.0874,1491.2279 L-244.0874,1611.8779 L-498.0874,1611.8779 z" fill="#7A7A7A" fill-opacity="0.5" fill-rule="nonzero" stroke="black" stroke-width="4.1910005"/>
</g>
<g id="cd_shape_11">
<path d="M-498.0874,1491.2279 L-244.0874,1491.2279 L-244.0874,1611.8779 L-498.0874,1611.8779 z" fill="none" stroke="black" stroke-dasharray="4.1910005 8.382001" stroke-linecap="round" stroke-linejoin="round" stroke-opacity="0.3" stroke-width="2.0955002"/>
</g>
<g id="item_12">
<path d="M462.96796,485.13025 L139.11797,484.82397 L139.11797,482.7348 L140.02354,478.65573 L141.79164,474.8699 L144.33823,471.55725 L147.54224,468.87527 L151.25136,466.95142 L155.28926,465.8772 L157.37665,465.7904 L176.29675,464.49768 L195.12103,462.19812 L213.79594,458.8983 L232.2684,454.60757 L250.48582,449.33817 L268.39642,443.10507 L285.94928,435.926 L303.09445,427.82138 L319.78317,418.81427 L335.96796,408.93024 L488.36795,408.93024 L486.08893,418.7252 L480.62378,438.0816 L474.26343,457.16263 L467.0217,475.92688 z" fill="#7A7A7A" fill-opacity="0.5" fill-rule="nonzero" stroke="black" stroke-width="4.1910005"/>
</g>
<g id="cd_shape_12">
<path d="M463.46964,485.13074 L138.65425,484.82355 L140.48735,476.56653 L145.64249,469.86066 L153.0373,466.0251 L176.29675,464.49768 L195.12103,462.19812 L213.79594,458.8983 L232.2684,454.60757 L250.48582,449.33817 L268.39642,443.10507 L285.94928,435.926 L303.09445,427.82138 L319.78317,418.81427 L335.96796,408.93024 L488.85446,408.93024 L477.88828,447.77017 z" fill="none" stroke="black" stroke-dasharray="4.1910005 8.382001" stroke-linecap="round" stroke-linejoin="round" stroke-opacity="0.3" stroke-width="2.0955002"/>
</g>
<g id="item_13">
<path d="M556.1052,872.8855 L593.123,906.33997 L595.5901,908.5696 L599.7134,913.78766 L602.91095,919.6192 L605.09344,925.9014 L606.20013,932.45935 L606.20013,935.7846 L606.20013,939.25684 L604.99426,946.09576 L602.61914,952.62134 L599.1469,958.6354 L594.68317,963.95514 L589.3634,968.4189 L583.34937,971.8911 L576.8238,974.26624 L569.98486,975.4721 L566.51263,975.4721 L210.91266,975.4721 L207.44044,975.4721 L200.60155,974.26624 L194.07593,971.8911 L188.06189,968.4189 L182.74216,963.95514 L178.27838,958.6354 L174.80617,952.62134 L172.43105,946.09576 L171.22516,939.25684 L171.22516,935.7846 L171.22516,932.45935 L172.33186,925.9014 L174.5144,919.6192 L177.71191,913.78766 L181.83524,908.5696 L184.30232,906.33997 L221.3201,872.8855 L223.58325,870.18 L225.01495,866.9563 L225.50479,863.4632 L225.12335,860.374 L224.00195,857.4704 L222.20793,854.9268 L220.62688,853.1852 L218.40698,849.0375 L217.26266,844.47437 L217.26266,842.12213 L217.26266,839.9757 L218.21791,835.7905 L220.0805,831.9228 L222.75703,828.5665 L226.11331,825.88995 L229.98103,824.02734 L234.16624,823.07214 L236.31265,823.07214 L541.1127,823.07214 L543.2591,823.07214 L547.4443,824.02734 L551.312,825.88995 L554.6683,828.5665 L557.3448,831.9228 L559.2074,835.7905 L560.16266,839.9757 L560.16266,842.12213 L560.16266,844.47437 L559.0183,849.0375 L556.79846,853.1852 L555.2174,854.9268 L553.4234,857.4704 L552.302,860.374 L551.92053,863.4632 L552.4104,866.9563 L553.8421,870.18 z" fill="#7A7A7A" fill-opacity="0.5" fill-rule="nonzero" stroke="black" stroke-width="4.1910005"/>
</g>
<g id="cd_shape_13">
<path d="M556.1052,872.8855 L598.092,910.8306 L604.5323,922.57605 L606.78625,935.9326 L604.382,949.56793 L599.1469,958.6354 L592.417,966.6559 L580.29596,973.654 L569.98486,975.4721 L207.44044,975.4721 L197.1293,973.654 L185.00836,966.65594 L178.27838,958.6354 L173.04329,949.56793 L171.22516,939.25684 L171.22516,929.087 L174.5144,919.6192 L179.33324,910.83075 L221.3201,872.8855 L225.50479,863.4632 L224.00195,857.4704 L217.26266,848.91376 L217.26266,837.7741 L221.03572,829.9392 L229.64671,823.07214 L547.7786,823.07214 L556.3895,829.9392 L560.16266,837.7742 L560.16266,848.91376 L553.4234,857.4704 L551.92053,863.4632 z" fill="none" stroke="black" stroke-dasharray="4.1910005 8.382001" stroke-linecap="round" stroke-linejoin="round" stroke-opacity="0.3" stroke-width="2.0955002"/>
</g>
<g id="item_14">
<path d="M-563.48785,700.5355 L-564.6701,699.3532 L-566.3421,696.4573 L-567.2076,693.22723 L-567.2076,691.55524 L-567.2076,651.09924 L-567.2076,649.3292 L-566.2396,645.924 L-564.37744,642.9133 L-563.0702,641.7199 L-527.11084,608.8916 L-525.65765,607.565 L-522.19147,605.70154 L-518.37524,604.7408 L-516.4076,604.7408 L-514.43994,604.7408 L-510.62366,605.70154 L-507.15747,607.565 L-505.70428,608.8916 L-469.74496,641.7199 L-468.43774,642.9133 L-466.57556,645.924 L-465.60757,649.3292 L-465.60757,651.09924 L-465.60757,691.55524 L-465.60757,693.22723 L-466.47308,696.4573 L-468.14505,699.3532 L-469.32733,700.5355 L-478.3076,709.51575 L-478.3076,675.6917 L-475.71033,673.3882 L-474.0242,670.35364 L-473.4401,666.9315 L-474.0242,663.50946 L-475.71033,660.47485 L-478.3076,658.1714 L-554.50757,658.1714 L-557.10486,660.47485 L-558.79095,663.50946 L-559.37506,666.9315 L-558.79095,670.35364 L-557.10486,673.3882 L-554.50757,675.6917 L-554.50757,709.51575 z" fill="#7A7A7A" fill-opacity="0.5" fill-rule="nonzero" stroke="black" stroke-width="4.1910005"/>
</g>
<g id="cd_shape_14">
<path d="M-564.67,699.3534 L-567.2076,694.95825 L-567.2076,649.3292 L-565.7365,644.15405 L-525.6578,607.56506 L-522.19147,605.70154 L-516.4076,604.2454 L-510.62366,605.70154 L-507.15732,607.56506 L-467.0787,644.154 L-465.60757,649.3292 L-465.60757,694.9582 L-468.14508,699.3533 L-478.3076,709.51575 L-478.3076,675.6917 L-475.71033,673.3882 L-474.0242,670.35364 L-473.4401,666.9315 L-474.0242,663.50946 L-475.71033,660.47485 L-478.3076,658.1714 L-554.50757,658.1714 L-557.10486,660.47485 L-558.79095,663.50946 L-559.37506,666.9315 L-558.79095,670.35364 L-557.10486,673.3882 L-554.50757,675.6917 L-554.50757,709.51575 z" fill="none" stroke="black" stroke-dasharray="4.1910005 8.382001" stroke-linecap="round" stroke-linejoin="round" stroke-opacity="0.3" stroke-width="2.0955002"/>
</g>
<g id="item_15">
<path d="M-491.52847,506.98053 L-491.1002,508.0868 L-491.1002,509.2731 L-491.1002,531.5718 L-491.1002,532.5084 L-491.6411,534.30206 L-492.159,535.0825 L-509.09277,560.60394 L-509.9617,561.9135 L-512.2855,564.03 L-515.0552,565.5162 L-518.1036,566.2824 L-519.6752,566.2824 L-521.24677,566.2824 L-524.29517,565.5162 L-527.0648,564.03 L-529.3887,561.9135 L-530.25757,560.60394 L-547.1914,535.0825 L-547.7093,534.30206 L-548.2502,532.5084 L-548.2502,531.5718 L-548.2502,509.2731 L-548.2502,508.0868 L-547.8219,506.98053 L-539.4309,485.30676 L-539.25336,484.84827 L-538.44214,484.29242 L-537.9505,484.29242 L-537.2929,484.29242 L-536.363,485.22235 L-536.363,485.8799 L-536.363,528.1824 L-502.9874,528.1824 L-502.9874,485.8799 L-502.9874,485.22235 L-502.05746,484.29242 L-501.3999,484.29242 L-500.9082,484.29242 L-500.097,484.84827 L-499.91946,485.30676 z" fill="#7A7A7A" fill-opacity="0.5" fill-rule="nonzero" stroke="black" stroke-width="4.1910005"/>
</g>
<g id="cd_shape_15">
<path d="M-491.1002,508.0868 L-491.1002,533.4868 L-509.96167,561.9135 L-512.2855,564.03 L-515.0552,565.5162 L-518.1036,566.2824 L-521.24677,566.2824 L-524.29517,565.5162 L-527.0648,564.03 L-529.3887,561.9135 L-548.2502,533.4869 L-548.2502,508.0868 L-539.0382,484.29242 L-536.363,484.29242 L-536.363,528.1824 L-502.9874,528.1824 L-502.9874,484.29242 L-500.31216,484.29242 z" fill="none" stroke="black" stroke-dasharray="4.1910005 8.382001" stroke-linecap="round" stroke-linejoin="round" stroke-opacity="0.3" stroke-width="2.0955002"/>
</g>
</defs>
<use href="#item_1" transform="translate(427.2467 1680.3806), rotate(-180)">
<title>item, id: 1, transf: [r: -180.000°, t: (427.247, 1680.381)]</title>
</use>
<use href="#item_1" transform="translate(-144.96619 2467.0088), rotate(-180)">
<title>item, id: 1, transf: [r: -180.000°, t: (-144.966, 2467.009)]</title>
</use>
<use href="#item_1" transform="translate(3028.1675 2074.6243), rotate(90)">
<title>item, id: 1, transf: [r: 90.000°, t: (3028.167, 2074.624)]</title>
</use>
<use href="#item_1" transform="translate(2148.3035 -421.27826), rotate(0)">
<title>item, id: 1, transf: [r: 0.000°, t: (2148.303, -421.278)]</title>
</use>
<use href="#item_1" transform="translate(1948.6433 -335.71936), rotate(0)">
<title>item, id: 1, transf: [r: 0.000°, t: (1948.643, -335.719)]</title>
</use>
<use href="#item_1" transform="translate(1493.9937 -942.44116), rotate(0)">
<title>item, id: 1, transf: [r: 0.000°, t: (1493.994, -942.441)]</title>
</use>
<use href="#item_1" transform="translate(1595.561 868.04865), rotate(90)">
<title>item, id: 1, transf: [r: 90.000°, t: (1595.561, 868.049)]</title>
</use>
<use href="#item_1" transform="translate(2338.4023 -518.1146), rotate(0)">
<title>item, id: 1, transf: [r: 0.000°, t: (2338.402, -518.115)]</title>
</use>
<use href="#item_1" transform="translate(2652.0422 -309.12994), rotate(0)">
<title>item, id: 1, transf: [r: 0.000°, t: (2652.042, -309.130)]</title>
</use>
<use href="#item_1" transform="translate(868.0324 -279.2422), rotate(0)">
<title>item, id: 1, transf: [r: 0.000°, t: (868.032, -279.242)]</title>
</use>
<use href="#item_0" transform="translate(65.545044 882.5851), rotate(-90)">
<title>item, id: 0, transf: [r: -90.000°, t: (65.545, 882.585)]</title>
</use>
<use href="#item_0" transform="translate(894.1418 -138.10681), rotate(0)">
<title>item, id: 0, transf: [r: 0.000°, t: (894.142, -138.107)]</title>
</use>
<use href="#item_0" transform="translate(-278.77618 1745.6111), rotate(-180)">
<title>item, id: 0, transf: [r: -180.000°, t: (-278.776, 1745.611)]</title>
</use>
<use href="#item_0" transform="translate(265.43622 2199.0386), rotate(-180)">
<title>item, id: 0, transf: [r: -180.000°, t: (265.436, 2199.039)]</title>
</use>
<use href="#item_0" transform="translate(1538.1702 -68.31433), rotate(0)">
<title>item, id: 0, transf: [r: 0.000°, t: (1538.170, -68.314)]</title>
</use>
<use href="#item_0" transform="translate(1378.4011 1433.2842), rotate(-180)">
<title>item, id: 0, transf: [r: -180.000°, t: (1378.401, 1433.284)]</title>
</use>
<use href="#item_0" transform="translate(1196.4302 1542.5416), rotate(-180)">
<title>item, id: 0, transf: [r: -180.000°, t: (1196.430, 1542.542)]</title>
</use>
<use href="#item_0" transform="translate(853.7943 1433.1874), rotate(-180)">
<title>item, id: 0, transf: [r: -180.000°, t: (853.794, 1433.187)]</title>
</use>
<use href="#item_0" transform="translate(458.16687 1661.2368), rotate(-180)">
<title>item, id: 0, transf: [r: -180.000°, t: (458.167, 1661.237)]</title>
</use>
<use href="#item_0" transform="translate(-2.762024 1659.4507), rotate(-180)">
<title>item, id: 0, transf: [r: -180.000°, t: (-2.762, 1659.451)]</title>
</use>
<use href="#item_2" transform="translate(5381.998 1503.9181), rotate(90)">
<title>item, id: 2, transf: [r: 90.000°, t: (5381.998, 1503.918)]</title>
</use>
<use href="#item_2" transform="translate(3721.754 210.86957), rotate(0)">
<title>item, id: 2, transf: [r: 0.000°, t: (3721.754, 210.870)]</title>
</use>
<use href="#item_2" transform="translate(4090.966 -435.2226), rotate(-90)">
<title>item, id: 2, transf: [r: -90.000°, t: (4090.966, -435.223)]</title>
</use>
<use href="#item_2" transform="translate(1774.072 1533.6185), rotate(-180)">
<title>item, id: 2, transf: [r: -180.000°, t: (1774.072, 1533.619)]</title>
</use>
<use href="#item_2" transform="translate(5123.645 623.51587), rotate(0)">
<title>item, id: 2, transf: [r: 0.000°, t: (5123.645, 623.516)]</title>
</use>
<use href="#item_2" transform="translate(2981.073 -228.48788), rotate(0)">
<title>item, id: 2, transf: [r: 0.000°, t: (2981.073, -228.488)]</title>
</use>
<use href="#item_2" transform="translate(3436.4688 622.4452), rotate(0)">
<title>item, id: 2, transf: [r: 0.000°, t: (3436.469, 622.445)]</title>
</use>
<use href="#item_2" transform="translate(2222.5276 1987.091), rotate(-180)">
<title>item, id: 2, transf: [r: -180.000°, t: (2222.528, 1987.091)]</title>
</use>
<use href="#item_2" transform="translate(2999.4106 208.9422), rotate(0)">
<title>item, id: 2, transf: [r: 0.000°, t: (2999.411, 208.942)]</title>
</use>
<use href="#item_2" transform="translate(4182.32 621.5537), rotate(0)">
<title>item, id: 2, transf: [r: 0.000°, t: (4182.320, 621.554)]</title>
</use>
<use href="#item_3" transform="translate(4224.8076 -745.3858), rotate(0)">
<title>item, id: 3, transf: [r: 0.000°, t: (4224.808, -745.386)]</title>
</use>
<use href="#item_3" transform="translate(4464.409 1676.4415), rotate(-180)">
<title>item, id: 3, transf: [r: -180.000°, t: (4464.409, 1676.442)]</title>
</use>
<use href="#item_3" transform="translate(4012.2092 -1228.7645), rotate(0)">
<title>item, id: 3, transf: [r: 0.000°, t: (4012.209, -1228.765)]</title>
</use>
<use href="#item_3" transform="translate(4869.795 2632.9028), rotate(-180)">
<title>item, id: 3, transf: [r: -180.000°, t: (4869.795, 2632.903)]</title>
</use>
<use href="#item_3" transform="translate(3778.7683 2676.5923), rotate(-180)">
<title>item, id: 3, transf: [r: -180.000°, t: (3778.768, 2676.592)]</title>
</use>
<use href="#item_3" transform="translate(4003.7024 2222.2925), rotate(-180)">
<title>item, id: 3, transf: [r: -180.000°, t: (4003.702, 2222.292)]</title>
</use>
<use href="#item_3" transform="translate(2579.6926 1834.4054), rotate(-180)">
<title>item, id: 3, transf: [r: -180.000°, t: (2579.693, 1834.405)]</title>
</use>
<use href="#item_3" transform="translate(3346.003 -1089.8032), rotate(0)">
<title>item, id: 3, transf: [r: 0.000°, t: (3346.003, -1089.803)]</title>
</use>
<use href="#item_3" transform="translate(3560.129 -652.62244), rotate(0)">
<title>item, id: 3, transf: [r: 0.000°, t: (3560.129, -652.622)]</title>
</use>
<use href="#item_3" transform="translate(3335.9539 2327.932), rotate(-180)">
<title>item, id: 3, transf: [r: -180.000°, t: (3335.954, 2327.932)]</title>
</use>
<use href="#item_13" transform="translate(3095.0925 975.473), rotate(-180)">
<title>item, id: 13, transf: [r: -180.000°, t: (3095.093, 975.473)]</title>
</use>
<use href="#item_13" transform="translate(3340.743 -823.0011), rotate(0)">
<title>item, id: 13, transf: [r: 0.000°, t: (3340.743, -823.001)]</title>
</use>
<use href="#item_13" transform="translate(4092.1367 1153.5176), rotate(-90)">
<title>item, id: 13, transf: [r: -90.000°, t: (4092.137, 1153.518)]</title>
</use>
<use href="#item_13" transform="translate(4699.726 1906.552), rotate(-180)">
<title>item, id: 13, transf: [r: -180.000°, t: (4699.726, 1906.552)]</title>
</use>
<use href="#item_13" transform="translate(4131.701 1127.9443), rotate(-180)">
<title>item, id: 13, transf: [r: -180.000°, t: (4131.701, 1127.944)]</title>
</use>
<use href="#item_13" transform="translate(2670.4092 2084.8962), rotate(-180)">
<title>item, id: 13, transf: [r: -180.000°, t: (2670.409, 2084.896)]</title>
</use>
<use href="#item_13" transform="translate(3983.9814 -40.510193), rotate(90)">
<title>item, id: 13, transf: [r: 90.000°, t: (3983.981, -40.510)]</title>
</use>
<use href="#item_13" transform="translate(-95.538055 548.52405), rotate(0)">
<title>item, id: 13, transf: [r: 0.000°, t: (-95.538, 548.524)]</title>
</use>
<use href="#item_13" transform="translate(1924.5339 -822.93005), rotate(0)">
<title>item, id: 13, transf: [r: 0.000°, t: (1924.534, -822.930)]</title>
</use>
<use href="#item_13" transform="translate(4952.088 808.0845), rotate(90)">
<title>item, id: 13, transf: [r: 90.000°, t: (4952.088, 808.084)]</title>
</use>
<use href="#item_7" transform="translate(3069.5576 1217.863), rotate(90)">
<title>item, id: 7, transf: [r: 90.000°, t: (3069.558, 1217.863)]</title>
</use>
<use href="#item_7" transform="translate(4020.5686 2048.183), rotate(-180)">
<title>item, id: 7, transf: [r: -180.000°, t: (4020.569, 2048.183)]</title>
</use>
<use href="#item_7" transform="translate(3116.9473 -488.46365), rotate(0)">
<title>item, id: 7, transf: [r: 0.000°, t: (3116.947, -488.464)]</title>
</use>
<use href="#item_7" transform="translate(1481.4788 1567.9451), rotate(-90)">
<title>item, id: 7, transf: [r: -90.000°, t: (1481.479, 1567.945)]</title>
</use>
<use href="#item_7" transform="translate(1449.2275 -415.1394), rotate(0)">
<title>item, id: 7, transf: [r: 0.000°, t: (1449.228, -415.139)]</title>
</use>
<use href="#item_7" transform="translate(-9.117584 -184.67133), rotate(0)">
<title>item, id: 7, transf: [r: 0.000°, t: (-9.118, -184.671)]</title>
</use>
<use href="#item_7" transform="translate(2810.4521 1233.7333), rotate(-180)">
<title>item, id: 7, transf: [r: -180.000°, t: (2810.452, 1233.733)]</title>
</use>
<use href="#item_7" transform="translate(3874.2449 -43.955566), rotate(90)">
<title>item, id: 7, transf: [r: 90.000°, t: (3874.245, -43.956)]</title>
</use>
<use href="#item_7" transform="translate(43.874756 1567.9288), rotate(-90)">
<title>item, id: 7, transf: [r: -90.000°, t: (43.875, 1567.929)]</title>
</use>
<use href="#item_7" transform="translate(5111.7544 2004.0193), rotate(-180)">
<title>item, id: 7, transf: [r: -180.000°, t: (5111.754, 2004.019)]</title>
</use>
<use href="#item_11" transform="translate(3010.163 1644.4521), rotate(-180)">
<title>item, id: 11, transf: [r: -180.000°, t: (3010.163, 1644.452)]</title>
</use>
<use href="#item_11" transform="translate(1275.2737 162.45584), rotate(-90)">
<title>item, id: 11, transf: [r: -90.000°, t: (1275.274, 162.456)]</title>
</use>
<use href="#item_11" transform="translate(4499.664 588.1442), rotate(90)">
<title>item, id: 11, transf: [r: 90.000°, t: (4499.664, 588.144)]</title>
</use>
<use href="#item_11" transform="translate(4569.7227 3015.2268), rotate(-180)">
<title>item, id: 11, transf: [r: -180.000°, t: (4569.723, 3015.227)]</title>
</use>
<use href="#item_11" transform="translate(2225.843 -87.903564), rotate(0)">
<title>item, id: 11, transf: [r: 0.000°, t: (2225.843, -87.904)]</title>
</use>
<use href="#item_11" transform="translate(5057.8696 -87.87915), rotate(0)">
<title>item, id: 11, transf: [r: 0.000°, t: (5057.870, -87.879)]</title>
</use>
<use href="#item_11" transform="translate(2125.1711 92.16141), rotate(-90)">
<title>item, id: 11, transf: [r: -90.000°, t: (2125.171, 92.161)]</title>
</use>
<use href="#item_11" transform="translate(4499.524 842.18994), rotate(90)">
<title>item, id: 11, transf: [r: 90.000°, t: (4499.524, 842.190)]</title>
</use>
<use href="#item_11" transform="translate(5235.686 -1491.224), rotate(0)">
<title>item, id: 11, transf: [r: 0.000°, t: (5235.686, -1491.224)]</title>
</use>
<use href="#item_11" transform="translate(4378.8633 650.53595), rotate(90)">
<title>item, id: 11, transf: [r: 90.000°, t: (4378.863, 650.536)]</title>
</use>
<use href="#item_12" transform="translate(3372.9177 1083.4463), rotate(-180)">
<title>item, id: 12, transf: [r: -180.000°, t: (3372.918, 1083.446)]</title>
</use>
<use href="#item_12" transform="translate(3614.391 1038.8644), rotate(0)">
<title>item, id: 12, transf: [r: 0.000°, t: (3614.391, 1038.864)]</title>
</use>
<use href="#item_12" transform="translate(5476.691 51.912354), rotate(90)">
<title>item, id: 12, transf: [r: 90.000°, t: (5476.691, 51.912)]</title>
</use>
<use href="#item_12" transform="translate(4426.235 471.1097), rotate(0)">
<title>item, id: 12, transf: [r: 0.000°, t: (4426.235, 471.110)]</title>
</use>
<use href="#item_12" transform="translate(4094.2551 1918.7108), rotate(-180)">
<title>item, id: 12, transf: [r: -180.000°, t: (4094.255, 1918.711)]</title>
</use>
<use href="#item_12" transform="translate(4582.672 488.9226), rotate(-90)">
<title>item, id: 12, transf: [r: -90.000°, t: (4582.672, 488.923)]</title>
</use>
<use href="#item_12" transform="translate(2976.1777 166.3641), rotate(0)">
<title>item, id: 12, transf: [r: 0.000°, t: (2976.178, 166.364)]</title>
</use>
<use href="#item_12" transform="translate(5020.9316 605.8993), rotate(-180)">
<title>item, id: 12, transf: [r: -180.000°, t: (5020.932, 605.899)]</title>
</use>
<use href="#item_12" transform="translate(22.78778 886.35376), rotate(0)">
<title>item, id: 12, transf: [r: 0.000°, t: (22.788, 886.354)]</title>
</use>
<use href="#item_12" transform="translate(2540.8171 637.98083), rotate(-180)">
<title>item, id: 12, transf: [r: -180.000°, t: (2540.817, 637.981)]</title>
</use>
<use href="#item_4" transform="translate(2489.4927 -1057.4849), rotate(0)">
<title>item, id: 4, transf: [r: 0.000°, t: (2489.493, -1057.485)]</title>
</use>
<use href="#item_4" transform="translate(2888.5818 1606.3524), rotate(-180)">
<title>item, id: 4, transf: [r: -180.000°, t: (2888.582, 1606.352)]</title>
</use>
<use href="#item_4" transform="translate(-1048.1677 415.93488), rotate(-90)">
<title>item, id: 4, transf: [r: -90.000°, t: (-1048.168, 415.935)]</title>
</use>
<use href="#item_4" transform="translate(-702.00653 -418.30756), rotate(-90)">
<title>item, id: 4, transf: [r: -90.000°, t: (-702.007, -418.308)]</title>
</use>
<use href="#item_4" transform="translate(1595.7114 -1055.9473), rotate(0)">
<title>item, id: 4, transf: [r: 0.000°, t: (1595.711, -1055.947)]</title>
</use>
<use href="#item_4" transform="translate(5015.5815 -618.99634), rotate(0)">
<title>item, id: 4, transf: [r: 0.000°, t: (5015.582, -618.996)]</title>
</use>
<use href="#item_4" transform="translate(5660.2974 2029.0275), rotate(90)">
<title>item, id: 4, transf: [r: 90.000°, t: (5660.297, 2029.027)]</title>
</use>
<use href="#item_4" transform="translate(2843.8623 1785.0098), rotate(90)">
<title>item, id: 4, transf: [r: 90.000°, t: (2843.862, 1785.010)]</title>
</use>
<use href="#item_4" transform="translate(-191.33142 -838.59735), rotate(-90)">
<title>item, id: 4, transf: [r: -90.000°, t: (-191.331, -838.597)]</title>
</use>
<use href="#item_4" transform="translate(1762.5005 -358.14508), rotate(0)">
<title>item, id: 4, transf: [r: 0.000°, t: (1762.500, -358.145)]</title>
</use>
<use href="#item_10" transform="translate(1186.1289 1406.6882), rotate(-180)">
<title>item, id: 10, transf: [r: -180.000°, t: (1186.129, 1406.688)]</title>
</use>
<use href="#item_10" transform="translate(1586.2272 -254.49368), rotate(90)">
<title>item, id: 10, transf: [r: 90.000°, t: (1586.227, -254.494)]</title>
</use>
<use href="#item_10" transform="translate(1068.675 1131.715), rotate(-90)">
<title>item, id: 10, transf: [r: -90.000°, t: (1068.675, 1131.715)]</title>
</use>
<use href="#item_10" transform="translate(849.50696 942.61597), rotate(-180)">
<title>item, id: 10, transf: [r: -180.000°, t: (849.507, 942.616)]</title>
</use>
<use href="#item_10" transform="translate(1282.9243 1146.2734), rotate(-90)">
<title>item, id: 10, transf: [r: -90.000°, t: (1282.924, 1146.273)]</title>
</use>
<use href="#item_10" transform="translate(1651.9608 -716.3349), rotate(0)">
<title>item, id: 10, transf: [r: 0.000°, t: (1651.961, -716.335)]</title>
</use>
<use href="#item_10" transform="translate(1297.3655 546.142), rotate(-90)">
<title>item, id: 10, transf: [r: -90.000°, t: (1297.365, 546.142)]</title>
</use>
<use href="#item_10" transform="translate(2717.036 468.29834), rotate(90)">
<title>item, id: 10, transf: [r: 90.000°, t: (2717.036, 468.298)]</title>
</use>
<use href="#item_10" transform="translate(684.2842 -681.9392), rotate(0)">
<title>item, id: 10, transf: [r: 0.000°, t: (684.284, -681.939)]</title>
</use>
<use href="#item_10" transform="translate(4679.5884 1214.7113), rotate(-180)">
<title>item, id: 10, transf: [r: -180.000°, t: (4679.588, 1214.711)]</title>
</use>
<use href="#item_5" transform="translate(2083.1875 942.64966), rotate(0)">
<title>item, id: 5, transf: [r: 0.000°, t: (2083.188, 942.650)]</title>
</use>
<use href="#item_5" transform="translate(1755.936 651.28046), rotate(90)">
<title>item, id: 5, transf: [r: 90.000°, t: (1755.936, 651.280)]</title>
</use>
<use href="#item_5" transform="translate(1822.0804 744.12866), rotate(0)">
<title>item, id: 5, transf: [r: 0.000°, t: (1822.080, 744.129)]</title>
</use>
<use href="#item_5" transform="translate(1559.4794 735.9901), rotate(90)">
<title>item, id: 5, transf: [r: 90.000°, t: (1559.479, 735.990)]</title>
</use>
<use href="#item_5" transform="translate(460.47467 1011.7536), rotate(90)">
<title>item, id: 5, transf: [r: 90.000°, t: (460.475, 1011.754)]</title>
</use>
<use href="#item_5" transform="translate(819.2102 601.3397), rotate(-90)">
<title>item, id: 5, transf: [r: -90.000°, t: (819.210, 601.340)]</title>
</use>
<use href="#item_5" transform="translate(-425.8268 278.67197), rotate(-90)">
<title>item, id: 5, transf: [r: -90.000°, t: (-425.827, 278.672)]</title>
</use>
<use href="#item_5" transform="translate(781.67737 461.21082), rotate(-180)">
<title>item, id: 5, transf: [r: -180.000°, t: (781.677, 461.211)]</title>
</use>
<use href="#item_5" transform="translate(4589.4873 1452.2574), rotate(90)">
<title>item, id: 5, transf: [r: 90.000°, t: (4589.487, 1452.257)]</title>
</use>
<use href="#item_5" transform="translate(2844.2207 172.61948), rotate(0)">
<title>item, id: 5, transf: [r: 0.000°, t: (2844.221, 172.619)]</title>
</use>
<use href="#item_6" transform="translate(1197.0181 796.8849), rotate(-90)">
<title>item, id: 6, transf: [r: -90.000°, t: (1197.018, 796.885)]</title>
</use>
<use href="#item_6" transform="translate(4327.73 705.64453), rotate(90)">
<title>item, id: 6, transf: [r: 90.000°, t: (4327.730, 705.645)]</title>
</use>
<use href="#item_6" transform="translate(4240.1343 1820.8398), rotate(-180)">
<title>item, id: 6, transf: [r: -180.000°, t: (4240.134, 1820.840)]</title>
</use>
<use href="#item_6" transform="translate(4997.2505 835.0751), rotate(90)">
<title>item, id: 6, transf: [r: 90.000°, t: (4997.250, 835.075)]</title>
</use>
<use href="#item_6" transform="translate(5234.417 400.78586), rotate(90)">
<title>item, id: 6, transf: [r: 90.000°, t: (5234.417, 400.786)]</title>
</use>
<use href="#item_6" transform="translate(1326.9865 2026.7803), rotate(-180)">
<title>item, id: 6, transf: [r: -180.000°, t: (1326.986, 2026.780)]</title>
</use>
<use href="#item_6" transform="translate(1701.7421 1996.5166), rotate(-180)">
<title>item, id: 6, transf: [r: -180.000°, t: (1701.742, 1996.517)]</title>
</use>
<use href="#item_6" transform="translate(822.10236 641.60364), rotate(90)">
<title>item, id: 6, transf: [r: 90.000°, t: (822.102, 641.604)]</title>
</use>
<use href="#item_6" transform="translate(2689.789 1733.2301), rotate(90)">
<title>item, id: 6, transf: [r: 90.000°, t: (2689.789, 1733.230)]</title>
</use>
<use href="#item_6" transform="translate(4272.089 1906.2017), rotate(-180)">
<title>item, id: 6, transf: [r: -180.000°, t: (4272.089, 1906.202)]</title>
</use>
<use href="#item_14" transform="translate(-461.03378 -237.7359), rotate(-90)">
<title>item, id: 14, transf: [r: -90.000°, t: (-461.034, -237.736)]</title>
</use>
<use href="#item_14" transform="translate(76.669556 1525.5303), rotate(-180)">
<title>item, id: 14, transf: [r: -180.000°, t: (76.670, 1525.530)]</title>
</use>
<use href="#item_14" transform="translate(1718.2278 611.92444), rotate(0)">
<title>item, id: 14, transf: [r: 0.000°, t: (1718.228, 611.924)]</title>
</use>
<use href="#item_14" transform="translate(4045.387 1855.7344), rotate(-180)">
<title>item, id: 14, transf: [r: -180.000°, t: (4045.387, 1855.734)]</title>
</use>
<use href="#item_14" transform="translate(2101.347 415.66235), rotate(0)">
<title>item, id: 14, transf: [r: 0.000°, t: (2101.347, 415.662)]</title>
</use>
<use href="#item_14" transform="translate(1157.0403 60.915955), rotate(0)">
<title>item, id: 14, transf: [r: 0.000°, t: (1157.040, 60.916)]</title>
</use>
<use href="#item_14" transform="translate(360.40186 -284.1327), rotate(-90)">
<title>item, id: 14, transf: [r: -90.000°, t: (360.402, -284.133)]</title>
</use>
<use href="#item_14" transform="translate(1132.021 1786.8838), rotate(-180)">
<title>item, id: 14, transf: [r: -180.000°, t: (1132.021, 1786.884)]</title>
</use>
<use href="#item_14" transform="translate(41.231384 135.13727), rotate(-90)">
<title>item, id: 14, transf: [r: -90.000°, t: (41.231, 135.137)]</title>
</use>
<use href="#item_14" transform="translate(1188.7876 761.58826), rotate(-180)">
<title>item, id: 14, transf: [r: -180.000°, t: (1188.788, 761.588)]</title>
</use>
<use href="#item_8" transform="translate(1660.2173 2388.2268), rotate(-180)">
<title>item, id: 8, transf: [r: -180.000°, t: (1660.217, 2388.227)]</title>
</use>
<use href="#item_8" transform="translate(5346.007 425.06653), rotate(90)">
<title>item, id: 8, transf: [r: 90.000°, t: (5346.007, 425.067)]</title>
</use>
<use href="#item_8" transform="translate(-1199.2422 346.63834), rotate(-90)">
<title>item, id: 8, transf: [r: -90.000°, t: (-1199.242, 346.638)]</title>
</use>
<use href="#item_8" transform="translate(5697.8477 330.50067), rotate(90)">
<title>item, id: 8, transf: [r: 90.000°, t: (5697.848, 330.501)]</title>
</use>
<use href="#item_8" transform="translate(28.805298 1570.6375), rotate(-90)">
<title>item, id: 8, transf: [r: -90.000°, t: (28.805, 1570.637)]</title>
</use>
<use href="#item_8" transform="translate(4668.4316 590.35815), rotate(90)">
<title>item, id: 8, transf: [r: 90.000°, t: (4668.432, 590.358)]</title>
</use>
<use href="#item_8" transform="translate(3421.6382 1799.1166), rotate(-180)">
<title>item, id: 8, transf: [r: -180.000°, t: (3421.638, 1799.117)]</title>
</use>
<use href="#item_8" transform="translate(1182.2949 2528.394), rotate(-180)">
<title>item, id: 8, transf: [r: -180.000°, t: (1182.295, 2528.394)]</title>
</use>
<use href="#item_8" transform="translate(-1088.7089 1605.2504), rotate(-90)">
<title>item, id: 8, transf: [r: -90.000°, t: (-1088.709, 1605.250)]</title>
</use>
<use href="#item_8" transform="translate(1591.7925 78.74094), rotate(90)">
<title>item, id: 8, transf: [r: 90.000°, t: (1591.792, 78.741)]</title>
</use>
<use href="#item_15" transform="translate(1856.0879 899.31085), rotate(-90)">
<title>item, id: 15, transf: [r: -90.000°, t: (1856.088, 899.311)]</title>
</use>
<use href="#item_15" transform="translate(1149.5282 578.2435), rotate(-180)">
<title>item, id: 15, transf: [r: -180.000°, t: (1149.528, 578.244)]</title>
</use>
<use href="#item_15" transform="translate(4393.1997 625.8184), rotate(0)">
<title>item, id: 15, transf: [r: 0.000°, t: (4393.200, 625.818)]</title>
</use>
<use href="#item_15" transform="translate(786.6678 731.00854), rotate(90)">
<title>item, id: 15, transf: [r: 90.000°, t: (786.668, 731.009)]</title>
</use>
<use href="#item_15" transform="translate(37.46399 1344.0896), rotate(-180)">
<title>item, id: 15, transf: [r: -180.000°, t: (37.464, 1344.090)]</title>
</use>
<use href="#item_15" transform="translate(4623.204 1320.0919), rotate(90)">
<title>item, id: 15, transf: [r: 90.000°, t: (4623.204, 1320.092)]</title>
</use>
<use href="#item_15" transform="translate(4445.076 1622.923), rotate(-180)">
<title>item, id: 15, transf: [r: -180.000°, t: (4445.076, 1622.923)]</title>
</use>
<use href="#item_15" transform="translate(3736.5513 624.99805), rotate(90)">
<title>item, id: 15, transf: [r: 90.000°, t: (3736.551, 624.998)]</title>
</use>
<use href="#item_15" transform="translate(2943.7104 531.11395), rotate(-90)">
<title>item, id: 15, transf: [r: -90.000°, t: (2943.710, 531.114)]</title>
</use>
<use href="#item_15" transform="translate(735.9447 1506.8546), rotate(90)">
<title>item, id: 15, transf: [r: 90.000°, t: (735.945, 1506.855)]</title>
</use>
<use href="#item_9" transform="translate(-321.1897 574.46277), rotate(-90)">
<title>item, id: 9, transf: [r: -90.000°, t: (-321.190, 574.463)]</title>
</use>
<use href="#item_9" transform="translate(124.58655 563.16626), rotate(0)">
<title>item, id: 9, transf: [r: 0.000°, t: (124.587, 563.166)]</title>
</use>
<use href="#item_9" transform="translate(292.73926 766.2838), rotate(0)">
<title>item, id: 9, transf: [r: 0.000°, t: (292.739, 766.284)]</title>
</use>
<use href="#item_9" transform="translate(637.16235 1889.9839), rotate(-180)">
<title>item, id: 9, transf: [r: -180.000°, t: (637.162, 1889.984)]</title>
</use>
<use href="#item_9" transform="translate(3048.288 129.43878), rotate(0)">
<title>item, id: 9, transf: [r: 0.000°, t: (3048.288, 129.439)]</title>
</use>
<use href="#item_9" transform="translate(1200.3356 -467.41602), rotate(0)">
<title>item, id: 9, transf: [r: 0.000°, t: (1200.336, -467.416)]</title>
</use>
<use href="#item_9" transform="translate(-160.9769 415.3025), rotate(0)">
<title>item, id: 9, transf: [r: 0.000°, t: (-160.977, 415.302)]</title>
</use>
<use href="#item_9" transform="translate(-158.72302 1786.5894), rotate(-90)">
<title>item, id: 9, transf: [r: -90.000°, t: (-158.723, 1786.589)]</title>
</use>
<use href="#item_9" transform="translate(1623.8043 734.4937), rotate(-180)">
<title>item, id: 9, transf: [r: -180.000°, t: (1623.804, 734.494)]</title>
</use>
<use href="#item_9" transform="translate(1066.562 1380.2869), rotate(-90)">
<title>item, id: 9, transf: [r: -90.000°, t: (1066.562, 1380.287)]</title>
</use>
</g>
<g id="quality_zones"/>
<g id="optionals">
<g id="highlight_cd_shapes">
<use href="#cd_shape_1" transform="translate(427.2467 1680.3806), rotate(-180)"/>
<use href="#cd_shape_1" transform="translate(-144.96619 2467.0088), rotate(-180)"/>
<use href="#cd_shape_1" transform="translate(3028.1675 2074.6243), rotate(90)"/>
<use href="#cd_shape_1" transform="translate(2148.3035 -421.27826), rotate(0)"/>
<use href="#cd_shape_1" transform="translate(1948.6433 -335.71936), rotate(0)"/>
<use href="#cd_shape_1" transform="translate(1493.9937 -942.44116), rotate(0)"/>
<use href="#cd_shape_1" transform="translate(1595.561 868.04865), rotate(90)"/>
<use href="#cd_shape_1" transform="translate(2338.4023 -518.1146), rotate(0)"/>
<use href="#cd_shape_1" transform="translate(2652.0422 -309.12994), rotate(0)"/>
<use href="#cd_shape_1" transform="translate(868.0324 -279.2422), rotate(0)"/>
<use href="#cd_shape_0" transform="translate(65.545044 882.5851), rotate(-90)"/>
<use href="#cd_shape_0" transform="translate(894.1418 -138.10681), rotate(0)"/>
<use href="#cd_shape_0" transform="translate(-278.77618 1745.6111), rotate(-180)"/>
<use href="#cd_shape_0" transform="translate(265.43622 2199.0386), rotate(-180)"/>
<use href="#cd_shape_0" transform="translate(1538.1702 -68.31433), rotate(0)"/>
<use href="#cd_shape_0" transform="translate(1378.4011 1433.2842), rotate(-180)"/>
<use href="#cd_shape_0" transform="translate(1196.4302 1542.5416), rotate(-180)"/>
<use href="#cd_shape_0" transform="translate(853.7943 1433.1874), rotate(-180)"/>
<use href="#cd_shape_0" transform="translate(458.16687 1661.2368), rotate(-180)"/>
<use href="#cd_shape_0" transform="translate(-2.762024 1659.4507), rotate(-180)"/>
<use href="#cd_shape_2" transform="translate(5381.998 1503.9181), rotate(90)"/>
<use href="#cd_shape_2" transform="translate(3721.754 210.86957), rotate(0)"/>
<use href="#cd_shape_2" transform="translate(4090.966 -435.2226), rotate(-90)"/>
<use href="#cd_shape_2" transform="translate(1774.072 1533.6185), rotate(-180)"/>
<use href="#cd_shape_2" transform="translate(5123.645 623.51587), rotate(0)"/>
<use href="#cd_shape_2" transform="translate(2981.073 -228.48788), rotate(0)"/>
<use href="#cd_shape_2" transform="translate(3436.4688 622.4452), rotate(0)"/>
<use href="#cd_shape_2" transform="translate(2222.5276 1987.091), rotate(-180)"/>
<use href="#cd_shape_2" transform="translate(2999.4106 208.9422), rotate(0)"/>
<use href="#cd_shape_2" transform="translate(4182.32 621.5537), rotate(0)"/>
<use href="#cd_shape_3" transform="translate(4224.8076 -745.3858), rotate(0)"/>
<use href="#cd_shape_3" transform="translate(4464.409 1676.4415), rotate(-180)"/>
<use href="#cd_shape_3" transform="translate(4012.2092 -1228.7645), rotate(0)"/>
<use href="#cd_shape_3" transform="translate(4869.795 2632.9028), rotate(-180)"/>
<use href="#cd_shape_3" transform="translate(3778.7683 2676.5923), rotate(-180)"/>
<use href="#cd_shape_3" transform="translate(4003.7024 2222.2925), rotate(-180)"/>
<use href="#cd_shape_3" transform="translate(2579.6926 1834.4054), rotate(-180)"/>
<use href="#cd_shape_3" transform="translate(3346.003 -1089.8032), rotate(0)"/>
<use href="#cd_shape_3" transform="translate(3560.129 -652.62244), rotate(0)"/>
<use href="#cd_shape_3" transform="translate(3335.9539 2327.932), rotate(-180)"/>
<use href="#cd_shape_13" transform="translate(3095.0925 975.473), rotate(-180)"/>
<use href="#cd_shape_13" transform="translate(3340.743 -823.0011), rotate(0)"/>
<use href="#cd_shape_13" transform="translate(4092.1367 1153.5176), rotate(-90)"/>
<use href="#cd_shape_13" transform="translate(4699.726 1906.552), rotate(-180)"/>
<use href="#cd_shape_13" transform="translate(4131.701 1127.9443), rotate(-180)"/>
<use href="#cd_shape_13" transform="translate(2670.4092 2084.8962), rotate(-180)"/>
<use href="#cd_shape_13" transform="translate(3983.9814 -40.510193), rotate(90)"/>
<use href="#cd_shape_13" transform="translate(-95.538055 548.52405), rotate(0)"/>
<use href="#cd_shape_13" transform="translate(1924.5339 -822.93005), rotate(0)"/>
<use href="#cd_shape_13" transform="translate(4952.088 808.0845), rotate(90)"/>
<use href="#cd_shape_7" transform="translate(3069.5576 1217.863), rotate(90)"/>
<use href="#cd_shape_7" transform="translate(4020.5686 2048.183), rotate(-180)"/>
<use href="#cd_shape_7" transform="translate(3116.9473 -488.46365), rotate(0)"/>
<use href="#cd_shape_7" transform="translate(1481.4788 1567.9451), rotate(-90)"/>
<use href="#cd_shape_7" transform="translate(1449.2275 -415.1394), rotate(0)"/>
<use href="#cd_shape_7" transform="translate(-9.117584 -184.67133), rotate(0)"/>
<use href="#cd_shape_7" transform="translate(2810.4521 1233.7333), rotate(-180)"/>
<use href="#cd_shape_7" transform="translate(3874.2449 -43.955566), rotate(90)"/>
<use href="#cd_shape_7" transform="translate(43.874756 1567.9288), rotate(-90)"/>
<use href="#cd_shape_7" transform="translate(5111.7544 2004.0193), rotate(-180)"/>
<use href="#cd_shape_11" transform="translate(3010.163 1644.4521), rotate(-180)"/>
<use href="#cd_shape_11" transform="translate(1275.2737 162.45584), rotate(-90)"/>
<use href="#cd_shape_11" transform="translate(4499.664 588.1442), rotate(90)"/>
<use href="#cd_shape_11" transform="translate(4569.7227 3015.2268), rotate(-180)"/>
<use href="#cd_shape_11" transform="translate(2225.843 -87.903564), rotate(0)"/>
<use href="#cd_shape_11" transform="translate(5057.8696 -87.87915), rotate(0)"/>
<use href="#cd_shape_11" transform="translate(2125.1711 92.16141), rotate(-90)"/>
<use href="#cd_shape_11" transform="translate(4499.524 842.18994), rotate(90)"/>
<use href="#cd_shape_11" transform="translate(5235.686 -1491.224), rotate(0)"/>
<use href="#cd_shape_11" transform="translate(4378.8633 650.53595), rotate(90)"/>
<use href="#cd_shape_12" transform="translate(3372.9177 1083.4463), rotate(-180)"/>
<use href="#cd_shape_12" transform="translate(3614.391 1038.8644), rotate(0)"/>
<use href="#cd_shape_12" transform="translate(5476.691 51.912354), rotate(90)"/>
<use href="#cd_shape_12" transform="translate(4426.235 471.1097), rotate(0)"/>
<use href="#cd_shape_12" transform="translate(4094.2551 1918.7108), rotate(-180)"/>
<use href="#cd_shape_12" transform="translate(4582.672 488.9226), rotate(-90)"/>
<use href="#cd_shape_12" transform="translate(2976.1777 166.3641), rotate(0)"/>
<use href="#cd_shape_12" transform="translate(5020.9316 605.8993), rotate(-180)"/>
<use href="#cd_shape_12" transform="translate(22.78778 886.35376), rotate(0)"/>
<use href="#cd_shape_12" transform="translate(2540.8171 637.98083), rotate(-180)"/>
<use href="#cd_shape_4" transform="translate(2489.4927 -1057.4849), rotate(0)"/>
<use href="#cd_shape_4" transform="translate(2888.5818 1606.3524), rotate(-180)"/>
<use href="#cd_shape_4" transform="translate(-1048.1677 415.93488), rotate(-90)"/>
<use href="#cd_shape_4" transform="translate(-702.00653 -418.30756), rotate(-90)"/>
<use href="#cd_shape_4" transform="translate(1595.7114 -1055.9473), rotate(0)"/>
<use href="#cd_shape_4" transform="translate(5015.5815 -618.99634), rotate(0)"/>
<use href="#cd_shape_4" transform="translate(5660.2974 2029.0275), rotate(90)"/>
<use href="#cd_shape_4" transform="translate(2843.8623 1785.0098), rotate(90)"/>
<use href="#cd_shape_4" transform="translate(-191.33142 -838.59735), rotate(-90)"/>
<use href="#cd_shape_4" transform="translate(1762.5005 -358.14508), rotate(0)"/>
<use href="#cd_shape_10" transform="translate(1186.1289 1406.6882), rotate(-180)"/>
<use href="#cd_shape_10" transform="translate(1586.2272 -254.49368), rotate(90)"/>
<use href="#cd_shape_10" transform="translate(1068.675 1131.715), rotate(-90)"/>
<use href="#cd_shape_10" transform="translate(849.50696 942.61597), rotate(-180)"/>
<use href="#cd_shape_10" transform="translate(1282.9243 1146.2734), rotate(-90)"/>
<use href="#cd_shape_10" transform="translate(1651.9608 -716.3349), rotate(0)"/>
<use href="#cd_shape_10" transform="translate(1297.3655 546.142), rotate(-90)"/>
<use href="#cd_shape_10" transform="translate(2717.036 468.29834), rotate(90)"/>
<use href="#cd_shape_10" transform="translate(684.2842 -681.9392), rotate(0)"/>
<use href="#cd_shape_10" transform="translate(4679.5884 1214.7113), rotate(-180)"/>
<use href="#cd_shape_5" transform="translate(2083.1875 942.64966), rotate(0)"/>
<use href="#cd_shape_5" transform="translate(1755.936 651.28046), rotate(90)"/>
<use href="#cd_shape_5" transform="translate(1822.0804 744.12866), rotate(0)"/>
<use href="#cd_shape_5" transform="translate(1559.4794 735.9901), rotate(90)"/>
<use href="#cd_shape_5" transform="translate(460.47467 1011.7536), rotate(90)"/>
<use href="#cd_shape_5" transform="translate(819.2102 601.3397), rotate(-90)"/>
<use href="#cd_shape_5" transform="translate(-425.8268 278.67197), rotate(-90)"/>
<use href="#cd_shape_5" transform="translate(781.67737 461.21082), rotate(-180)"/>
<use href="#cd_shape_5" transform="translate(4589.4873 1452.2574), rotate(90)"/>
<use href="#cd_shape_5" transform="translate(2844.2207 172.61948), rotate(0)"/>
<use href="#cd_shape_6" transform="translate(1197.0181 796.8849), rotate(-90)"/>
<use href="#cd_shape_6" transform="translate(4327.73 705.64453), rotate(90)"/>
<use href="#cd_shape_6" transform="translate(4240.1343 1820.8398), rotate(-180)"/>
<use href="#cd_shape_6" transform="translate(4997.2505 835.0751), rotate(90)"/>
<use href="#cd_shape_6" transform="translate(5234.417 400.78586), rotate(90)"/>
<use href="#cd_shape_6" transform="translate(1326.9865 2026.7803), rotate(-180)"/>
<use href="#cd_shape_6" transform="translate(1701.7421 1996.5166), rotate(-180)"/>
<use href="#cd_shape_6" transform="translate(822.10236 641.60364), rotate(90)"/>
<use href="#cd_shape_6" transform="translate(2689.789 1733.2301), rotate(90)"/>
<use href="#cd_shape_6" transform="translate(4272.089 1906.2017), rotate(-180)"/>
<use href="#cd_shape_14" transform="translate(-461.03378 -237.7359), rotate(-90)"/>
<use href="#cd_shape_14" transform="translate(76.669556 1525.5303), rotate(-180)"/>
<use href="#cd_shape_14" transform="translate(1718.2278 611.92444), rotate(0)"/>
<use href="#cd_shape_14" transform="translate(4045.387 1855.7344), rotate(-180)"/>
<use href="#cd_shape_14" transform="translate(2101.347 415.66235), rotate(0)"/>
<use href="#cd_shape_14" transform="translate(1157.0403 60.915955), rotate(0)"/>
<use href="#cd_shape_14" transform="translate(360.40186 -284.1327), rotate(-90)"/>
<use href="#cd_shape_14" transform="translate(1132.021 1786.8838), rotate(-180)"/>
<use href="#cd_shape_14" transform="translate(41.231384 135.13727), rotate(-90)"/>
<use href="#cd_shape_14" transform="translate(1188.7876 761.58826), rotate(-180)"/>
<use href="#cd_shape_8" transform="translate(1660.2173 2388.2268), rotate(-180)"/>
<use href="#cd_shape_8" transform="translate(5346.007 425.06653), rotate(90)"/>
<use href="#cd_shape_8" transform="translate(-1199.2422 346.63834), rotate(-90)"/>
<use href="#cd_shape_8" transform="translate(5697.8477 330.50067), rotate(90)"/>
<use href="#cd_shape_8" transform="translate(28.805298 1570.6375), rotate(-90)"/>
<use href="#cd_shape_8" transform="translate(4668.4316 590.35815), rotate(90)"/>
<use href="#cd_shape_8" transform="translate(3421.6382 1799.1166), rotate(-180)"/>
<use href="#cd_shape_8" transform="translate(1182.2949 2528.394), rotate(-180)"/>
<use href="#cd_shape_8" transform="translate(-1088.7089 1605.2504), rotate(-90)"/>
<use href="#cd_shape_8" transform="translate(1591.7925 78.74094), rotate(90)"/>
<use href="#cd_shape_15" transform="translate(1856.0879 899.31085), rotate(-90)"/>
<use href="#cd_shape_15" transform="translate(1149.5282 578.2435), rotate(-180)"/>
<use href="#cd_shape_15" transform="translate(4393.1997 625.8184), rotate(0)"/>
<use href="#cd_shape_15" transform="translate(786.6678 731.00854), rotate(90)"/>
<use href="#cd_shape_15" transform="translate(37.46399 1344.0896), rotate(-180)"/>
<use href="#cd_shape_15" transform="translate(4623.204 1320.0919), rotate(90)"/>
<use href="#cd_shape_15" transform="translate(4445.076 1622.923), rotate(-180)"/>
<use href="#cd_shape_15" transform="translate(3736.5513 624.99805), rotate(90)"/>
<use href="#cd_shape_15" transform="translate(2943.7104 531.11395), rotate(-90)"/>
<use href="#cd_shape_15" transform="translate(735.9447 1506.8546), rotate(90)"/>
<use href="#cd_shape_9" transform="translate(-321.1897 574.46277), rotate(-90)"/>
<use href="#cd_shape_9" transform="translate(124.58655 563.16626), rotate(0)"/>
<use href="#cd_shape_9" transform="translate(292.73926 766.2838), rotate(0)"/>
<use href="#cd_shape_9" transform="translate(637.16235 1889.9839), rotate(-180)"/>
<use href="#cd_shape_9" transform="translate(3048.288 129.43878), rotate(0)"/>
<use href="#cd_shape_9" transform="translate(1200.3356 -467.41602), rotate(0)"/>
<use href="#cd_shape_9" transform="translate(-160.9769 415.3025), rotate(0)"/>
<use href="#cd_shape_9" transform="translate(-158.72302 1786.5894), rotate(-90)"/>
<use href="#cd_shape_9" transform="translate(1623.8043 734.4937), rotate(-180)"/>
<use href="#cd_shape_9" transform="translate(1066.562 1380.2869), rotate(-90)"/>
<path d="M0,0 L5067.831,0 L5067.831,1524 L0,1524 z" fill="none" stroke="black" stroke-dasharray="4.1910005 8.382001" stroke-linecap="round" stroke-linejoin="round" stroke-opacity="0.3" stroke-width="2.0955002"/>
</g>
<g id="surrogates">
<defs/>
</g>
<g id="collision_lines"/>
</g>
<text font-family="monospace" font-size="38.100002" font-weight="500" x="0" y="-19.050001">
h: 1524.000 | w: 5067.831 | d: 87.015% | final_best
</text>
</svg>