<svg viewBox="-236.66707 -75.000015 5206.6743 1650" xmlns="http://www.w3.org/2000/svg">
<g id="container_0">
<path d="M0,0 L4733.3403,0 L4733.3403,1500 L0,1500 z" fill="#D3D3D3" stroke="black" stroke-width="8.25"/>
<title>container, id: 0, bbox: [x_min: 0.000, y_min: 0.000, x_max: 4733.340, y_max: 1500.000]</title>
</g>
<g id="items">
<defs>
<g id="item_0">
<path d="M50,550 L0,550 L0,0 L700,0 L700,50 L50,50 z" fill="#7A7A7A" fill-opacity="0.5" fill-rule="nonzero" stroke="black" stroke-width="4.125"/>
</g>
<g id="cd_shape_0">
<path d="M50,550 L0,550 L0,0 L700,0 L700,50 L50,50 z" fill="none" stroke="black" stroke-dasharray="4.125 8.25" stroke-linecap="round" stroke-linejoin="round" stroke-opacity="0.3" stroke-width="2.0625"/>
</g>
<g id="item_1">
<path d="M-383.418,44.9009 L-383.546,44.8462 L-383.798,44.7298 L-384.046,44.6065 L-384.292,44.4763 L-384.533,44.3393 L-384.771,44.1957 L-385.004,44.0456 L-385.233,43.889 L-385.458,43.7261 L-385.678,43.5571 L-385.894,43.382 L-386.104,43.2009 L-386.31,43.0142 L-386.51,42.8217 L-386.704,42.6239 L-386.894,42.4206 L-387.077,42.2122 L-387.255,41.9988 L-387.426,41.7806 L-387.592,41.5577 L-387.751,41.3302 L-387.904,41.0985 L-388.05,40.8626 L-388.19,40.6227 L-388.323,40.379 L-388.449,40.1318 L-388.568,39.8811 L-388.68,39.6272 L-388.786,39.3703 L-388.884,39.1106 L-388.974,38.8482 L-389.058,38.5834 L-389.134,38.3165 L-389.203,38.0475 L-389.264,37.7767 L-389.317,37.5043 L-389.363,37.2305 L-389.402,36.9556 L-389.433,36.6797 L-389.456,36.403 L-389.471,36.1259 L-389.479,35.8484 L-389.479,35.7096 L-389.479,7.13495 L-369.479,-12.865 L-389.479,-32.865 L-389.479,-52.0433 L-389.479,-52.1836 L-389.471,-52.464 L-389.455,-52.7441 L-389.432,-53.0236 L-389.4,-53.3023 L-389.361,-53.5801 L-389.314,-53.8567 L-389.259,-54.1318 L-389.197,-54.4053 L-389.127,-54.6769 L-389.049,-54.9464 L-388.964,-55.2137 L-388.871,-55.4785 L-388.771,-55.7406 L-388.664,-55.9997 L-388.549,-56.2558 L-388.428,-56.5085 L-388.299,-56.7577 L-388.163,-57.0033 L-388.021,-57.2449 L-387.871,-57.4824 L-387.715,-57.7156 L-387.553,-57.9444 L-387.384,-58.1686 L-387.21,-58.3879 L-387.029,-58.6022 L-386.842,-58.8114 L-386.649,-59.0152 L-386.451,-59.2136 L-386.247,-59.4063 L-386.038,-59.5932 L-385.823,-59.7742 L-385.604,-59.9491 L-385.38,-60.1178 L-385.151,-60.2801 L-384.918,-60.4359 L-384.68,-60.5852 L-384.439,-60.7277 L-384.193,-60.8634 L-383.944,-60.9921 L-383.691,-61.1139 L-383.435,-61.2284 L-383.176,-61.3358 L-382.914,-61.4358 L-382.649,-61.5285 L-382.382,-61.6137 L-382.112,-61.6913 L-381.841,-61.7614 L-381.567,-61.8238 L-381.292,-61.8785 L-381.015,-61.9255 L-380.738,-61.9647 L-380.459,-61.9961 L-380.179,-62.0197 L-379.899,-62.0354 L-379.619,-62.0433 L-379.479,-62.0433 L-379.34,-62.0433 L-379.064,-62.0356 L-378.787,-62.0203 L-378.511,-61.9974 L-378.236,-61.9668 L-377.962,-61.9286 L-377.689,-61.8828 L-377.417,-61.8295 L-377.147,-61.7687 L-376.879,-61.7004 L-376.613,-61.6248 L-376.348,-61.5418 L-376.087,-61.4515 L-375.828,-61.354 L-375.571,-61.2494 L-375.318,-61.1377 L-375.193,-61.0784 L-372.774,-59.9354 L-370.352,-58.7997 L-367.926,-57.6711 L-365.497,-56.5497 L-363.065,-55.4356 L-360.629,-54.3287 L-358.191,-53.2291 L-355.749,-52.1367 L-353.303,-51.0516 L-350.855,-49.9737 L-348.403,-48.9032 L-345.948,-47.8399 L-343.49,-46.7839 L-341.029,-45.7353 L-338.564,-44.6939 L-336.097,-43.6599 L-333.626,-42.6332 L-331.153,-41.6139 L-328.676,-40.6019 L-326.197,-39.5973 L-323.714,-38.6001 L-321.229,-37.6103 L-318.741,-36.6278 L-316.249,-35.6528 L-313.755,-34.6851 L-311.258,-33.7249 L-308.758,-32.7721 L-306.255,-31.8268 L-303.75,-30.8889 L-301.242,-29.9584 L-298.731,-29.0354 L-296.217,-28.1199 L-293.7,-27.2118 L-291.181,-26.3112 L-288.659,-25.4182 L-286.135,-24.5326 L-283.608,-23.6545 L-281.078,-22.7839 L-278.546,-21.9209 L-276.011,-21.0654 L-273.474,-20.2174 L-270.934,-19.377 L-268.391,-18.5442 L-265.847,-17.7189 L-263.299,-16.9011 L-260.75,-16.091 L-258.198,-15.2884 L-255.643,-14.4934 L-253.086,-13.706 L-250.527,-12.9262 L-247.966,-12.1541 L-245.402,-11.3895 L-242.836,-10.6326 L-240.268,-9.88326 L-237.697,-9.14159 L-235.125,-8.40757 L-232.55,-7.6812 L-229.973,-6.96249 L-227.394,-6.25144 L-224.813,-5.54806 L-222.23,-4.85235 L-219.644,-4.16433 L-217.057,-3.48399 L-214.467,-2.81135 L-211.876,-2.14641 L-209.283,-1.48918 L-206.688,-0.839653 L-204.09,-0.197847 L-201.491,0.436236 L-198.89,1.06259 L-196.288,1.68121 L-193.683,2.29209 L-191.077,2.89523 L-188.468,3.49061 L-185.858,4.07824 L-183.247,4.65811 L-180.633,5.23021 L-178.018,5.79454 L-175.401,6.3511 L-172.783,6.89987 L-170.163,7.44086 L-167.541,7.97406 L-164.918,8.49946 L-162.293,9.01707 L-159.667,9.52686 L-157.039,10.0289 L-154.41,10.523 L-151.779,11.0094 L-149.147,11.4879 L-146.514,11.9586 L-143.879,12.4215 L-141.242,12.8766 L-138.605,13.3238 L-135.966,13.7631 L-133.325,14.1946 L-130.684,14.6183 L-128.041,15.0341 L-125.397,15.4421 L-122.752,15.8422 L-120.105,16.2344 L-117.458,16.6188 L-114.809,16.9953 L-112.159,17.3639 L-109.509,17.7246 L-106.857,18.0775 L-104.204,18.4224 L-101.55,18.7595 L-98.8947,19.0887 L-96.2388,19.41 L-93.5819,19.7234 L-90.9241,20.0289 L-88.2654,20.3265 L-85.6059,20.6162 L-82.9454,20.898 L-80.2842,21.1719 L-77.6221,21.4378 L-74.9593,21.6959 L-72.2957,21.946 L-69.6314,22.1882 L-66.9664,22.4225 L-64.3007,22.6489 L-61.6343,22.8674 L-58.9673,23.0779 L-56.2997,23.2805 L-53.6315,23.4752 L-50.9627,23.6619 L-48.2934,23.8407 L-45.6236,24.0115 L-42.9532,24.1745 L-40.2824,24.3295 L-37.6112,24.4765 L-34.9395,24.6156 L-32.2674,24.7468 L-29.5949,24.87 L-26.9221,24.9853 L-24.249,25.0926 L-21.5755,25.192 L-18.9018,25.2834 L-16.2278,25.3669 L-13.5536,25.4424 L-10.8791,25.51 L-8.20447,25.5697 L-5.52967,25.6214 L-2.85473,25.6651 L-0.179665,25.7009 L2.49549,25.7287 L5.17072,25.7486 L7.84599,25.7605 L10.5213,25.7645 L13.1966,25.7605 L15.8719,25.7486 L18.5471,25.7287 L21.2222,25.7009 L23.8973,25.6651 L26.5722,25.6214 L29.247,25.5697 L31.9217,25.51 L34.5961,25.4424 L37.2704,25.3669 L39.9444,25.2834 L42.6181,25.192 L45.2916,25.0926 L47.9647,24.9853 L50.6375,24.87 L53.31,24.7468 L55.9821,24.6156 L58.6537,24.4765 L61.325,24.3295 L63.9958,24.1745 L66.6661,24.0115 L69.336,23.8407 L72.0053,23.6619 L74.6741,23.4752 L77.3423,23.2805 L80.0099,23.0779 L82.6769,22.8674 L85.3433,22.6489 L88.009,22.4225 L90.674,22.1882 L93.3383,21.946 L96.0019,21.6959 L98.6647,21.4378 L101.327,21.1719 L103.988,20.898 L106.648,20.6162 L109.308,20.3265 L111.967,20.0289 L114.624,19.7234 L117.281,19.41 L119.937,19.0887 L122.592,18.7595 L125.246,18.4224 L127.899,18.0775 L130.551,17.7246 L133.202,17.3639 L135.852,16.9953 L138.5,16.6188 L141.148,16.2344 L143.794,15.8422 L146.44,15.4421 L149.084,15.0341 L151.726,14.6183 L154.368,14.1946 L157.008,13.7631 L159.647,13.3238 L162.285,12.8766 L164.921,12.4215 L167.556,11.9586 L170.19,11.4879 L172.822,11.0094 L175.453,10.523 L178.082,10.0289 L180.71,9.52686 L183.336,9.01707 L185.961,8.49946 L188.584,7.97406 L191.206,7.44086 L193.826,6.89987 L196.444,6.3511 L199.061,5.79454 L201.676,5.23021 L204.289,4.65811 L206.901,4.07824 L209.511,3.49061 L212.119,2.89523 L214.726,2.29209 L217.33,1.68121 L219.933,1.06259 L222.534,0.436236 L225.133,-0.197847 L227.73,-0.839653 L230.325,-1.48918 L232.919,-2.14641 L235.51,-2.81135 L238.099,-3.48399 L240.687,-4.16433 L243.272,-4.85235 L245.855,-5.54806 L248.437,-6.25144 L251.016,-6.96249 L253.593,-7.6812 L256.167,-8.40757 L258.74,-9.14159 L261.31,-9.88326 L263.879,-10.6326 L266.445,-11.3895 L269.008,-12.1541 L271.57,-12.9262 L274.129,-13.706 L276.686,-14.4934 L279.24,-15.2884 L281.792,-16.091 L284.342,-16.9011 L286.889,-17.7189 L289.434,-18.5442 L291.976,-19.377 L294.516,-20.2174 L297.054,-21.0654 L299.588,-21.9209 L302.121,-22.7839 L304.65,-23.6545 L307.178,-24.5326 L309.702,-25.4182 L312.224,-26.3112 L314.743,-27.2118 L317.259,-28.1199 L319.773,-29.0354 L322.284,-29.9584 L324.793,-30.8889 L327.298,-31.8268 L329.801,-32.7721 L332.301,-33.7249 L334.798,-34.6851 L337.292,-35.6528 L339.783,-36.6278 L342.272,-37.6103 L344.757,-38.6001 L347.239,-39.5973 L349.719,-40.6019 L352.196,-41.6139 L354.669,-42.6332 L357.139,-43.6599 L359.607,-44.6939 L362.071,-45.7353 L364.532,-46.7839 L366.99,-47.8399 L369.445,-48.9032 L371.897,-49.9737 L374.346,-51.0516 L376.791,-52.1367 L379.233,-53.2291 L381.672,-54.3287 L384.108,-55.4356 L386.54,-56.5497 L388.969,-57.6711 L391.394,-58.7997 L393.817,-59.9354 L396.236,-61.0784 L396.361,-61.1377 L396.614,-61.2494 L396.87,-61.354 L397.129,-61.4515 L397.391,-61.5418 L397.655,-61.6248 L397.921,-61.7004 L398.19,-61.7687 L398.46,-61.8295 L398.731,-61.8828 L399.005,-61.9286 L399.279,-61.9668 L399.554,-61.9974 L399.83,-62.0203 L400.106,-62.0356 L400.383,-62.0433 L400.521,-62.0433 L400.662,-62.0433 L400.942,-62.0354 L401.222,-62.0197 L401.502,-61.9961 L401.78,-61.9647 L402.058,-61.9255 L402.335,-61.8785 L402.61,-61.8238 L402.883,-61.7614 L403.155,-61.6913 L403.424,-61.6137 L403.692,-61.5285 L403.956,-61.4358 L404.219,-61.3358 L404.478,-61.2284 L404.734,-61.1139 L404.986,-60.9921 L405.236,-60.8634 L405.481,-60.7277 L405.723,-60.5852 L405.96,-60.4359 L406.194,-60.2801 L406.422,-60.1178 L406.647,-59.9491 L406.866,-59.7742 L407.08,-59.5932 L407.289,-59.4063 L407.493,-59.2136 L407.692,-59.0152 L407.884,-58.8114 L408.071,-58.6022 L408.252,-58.3879 L408.427,-58.1686 L408.596,-57.9444 L408.758,-57.7156 L408.914,-57.4824 L409.063,-57.2449 L409.206,-57.0033 L409.341,-56.7577 L409.47,-56.5085 L409.592,-56.2558 L409.706,-55.9997 L409.814,-55.7406 L409.914,-55.4785 L410.006,-55.2137 L410.092,-54.9464 L410.169,-54.6769 L410.239,-54.4053 L410.302,-54.1318 L410.357,-53.8567 L410.403,-53.5801 L410.443,-53.3023 L410.474,-53.0236 L410.498,-52.7441 L410.513,-52.464 L410.521,-52.1836 L410.521,-52.0433 L410.521,-32.865 L390.521,-12.865 L410.521,7.13495 L410.521,35.7096 L410.521,35.8484 L410.514,36.1259 L410.498,36.403 L410.475,36.6797 L410.444,36.9556 L410.406,37.2305 L410.36,37.5043 L410.306,37.7767 L410.245,38.0475 L410.177,38.3165 L410.1,38.5834 L410.017,38.8482 L409.926,39.1106 L409.828,39.3703 L409.723,39.6272 L409.611,39.8811 L409.491,40.1318 L409.365,40.379 L409.232,40.6227 L409.092,40.8626 L408.946,41.0985 L408.793,41.3302 L408.634,41.5577 L408.469,41.7806 L408.297,41.9988 L408.12,42.2122 L407.936,42.4206 L407.747,42.6239 L407.552,42.8217 L407.352,43.0142 L407.147,43.2009 L406.936,43.382 L406.721,43.5571 L406.501,43.7261 L406.276,43.889 L406.047,44.0456 L405.813,44.1957 L405.576,44.3393 L405.334,44.4763 L405.089,44.6065 L404.84,44.7298 L404.588,44.8462 L404.461,44.9009 L403.168,45.4548 L400.581,46.5552 L397.99,47.6484 L395.396,48.7343 L392.799,49.8128 L390.2,50.8841 L387.597,51.9481 L384.991,53.0047 L382.382,54.054 L379.77,55.096 L377.156,56.1306 L374.538,57.1579 L371.918,58.1778 L369.295,59.1903 L366.668,60.1954 L364.04,61.1932 L361.408,62.1835 L358.773,63.1665 L356.136,64.142 L353.496,65.1102 L350.853,66.0709 L348.208,67.0241 L345.56,67.9699 L342.909,68.9083 L340.256,69.8392 L337.6,70.7627 L334.941,71.6786 L332.28,72.5871 L329.617,73.4881 L326.951,74.3817 L324.282,75.2677 L321.611,76.1462 L318.937,77.0172 L316.261,77.8807 L313.583,78.7366 L310.902,79.585 L308.219,80.4259 L305.533,81.2592 L302.845,82.085 L300.155,82.9032 L297.462,83.7138 L294.767,84.5169 L292.07,85.3123 L289.371,86.1002 L286.67,86.8805 L283.966,87.6532 L281.26,88.4183 L278.552,89.1758 L275.842,89.9257 L273.13,90.6679 L270.416,91.4025 L267.699,92.1295 L264.981,92.8489 L262.261,93.5605 L259.538,94.2646 L256.814,94.961 L254.088,95.6497 L251.36,96.3307 L248.63,97.0041 L245.898,97.6698 L243.164,98.3278 L240.428,98.9781 L237.691,99.6208 L234.951,100.256 L232.21,100.883 L229.468,101.502 L226.723,102.114 L223.977,102.718 L221.229,103.315 L218.479,103.903 L215.728,104.484 L212.975,105.057 L210.221,105.623 L207.465,106.18 L204.707,106.73 L201.948,107.272 L199.187,107.807 L196.425,108.333 L193.661,108.852 L190.896,109.363 L188.13,109.867 L185.362,110.362 L182.593,110.85 L179.822,111.33 L177.05,111.802 L174.277,112.266 L171.502,112.723 L168.726,113.172 L165.949,113.613 L163.171,114.046 L160.391,114.471 L157.611,114.889 L154.829,115.298 L152.046,115.7 L149.261,116.094 L146.476,116.481 L143.69,116.859 L140.903,117.229 L138.114,117.592 L135.325,117.947 L132.534,118.294 L129.743,118.633 L126.951,118.964 L124.157,119.288 L121.363,119.604 L118.568,119.911 L115.772,120.211 L112.976,120.503 L110.178,120.787 L107.38,121.064 L104.581,121.332 L101.781,121.593 L98.9805,121.845 L96.1792,122.09 L93.3773,122.327 L90.5748,122.556 L87.7716,122.777 L84.9678,122.99 L82.1634,123.196 L79.3584,123.393 L76.5529,123.583 L73.7469,123.765 L70.9404,123.939 L68.1334,124.105 L65.3259,124.263 L62.518,124.413 L59.7097,124.555 L56.901,124.689 L54.092,124.816 L51.2826,124.934 L48.4729,125.045 L45.6628,125.148 L42.8525,125.243 L40.042,125.33 L37.2312,125.409 L34.4202,125.48 L31.609,125.543 L28.7976,125.598 L25.9861,125.646 L23.1745,125.685 L20.3628,125.717 L17.551,125.741 L14.7391,125.757 L11.9272,125.764 L10.5213,125.764 L9.11534,125.764 L6.30345,125.757 L3.49159,125.741 L0.679788,125.717 L-2.13194,125.685 L-4.94356,125.646 L-7.75506,125.598 L-10.5664,125.543 L-13.3776,125.48 L-16.1886,125.409 L-18.9994,125.33 L-21.81,125.243 L-24.6203,125.148 L-27.4303,125.045 L-30.24,124.934 L-33.0494,124.816 L-35.8585,124.689 L-38.6672,124.555 L-41.4755,124.413 L-44.2833,124.263 L-47.0908,124.105 L-49.8978,123.939 L-52.7043,123.765 L-55.5104,123.583 L-58.3159,123.393 L-61.1208,123.196 L-63.9252,122.99 L-66.729,122.777 L-69.5322,122.556 L-72.3348,122.327 L-75.1367,122.09 L-77.9379,121.845 L-80.7384,121.593 L-83.5382,121.332 L-86.3373,121.064 L-89.1356,120.787 L-91.9331,120.503 L-94.7298,120.211 L-97.5256,119.911 L-100.321,119.604 L-103.115,119.288 L-105.908,118.964 L-108.7,118.633 L-111.492,118.294 L-114.282,117.947 L-117.072,117.592 L-119.86,117.229 L-122.647,116.859 L-125.434,116.481 L-128.219,116.094 L-131.003,115.7 L-133.786,115.298 L-136.568,114.889 L-139.349,114.471 L-142.128,114.046 L-144.907,113.613 L-147.684,113.172 L-150.46,112.723 L-153.234,112.266 L-156.007,111.802 L-158.779,111.33 L-161.55,110.85 L-164.319,110.362 L-167.087,109.867 L-169.854,109.363 L-172.619,108.852 L-175.382,108.333 L-178.145,107.807 L-180.905,107.272 L-183.664,106.73 L-186.422,106.18 L-189.178,105.623 L-191.933,105.057 L-194.685,104.484 L-197.437,103.903 L-200.186,103.315 L-202.934,102.718 L-205.68,102.114 L-208.425,101.502 L-211.168,100.883 L-213.909,100.256 L-216.648,99.6208 L-219.386,98.9781 L-222.121,98.3278 L-224.855,97.6698 L-227.587,97.0041 L-230.317,96.3307 L-233.045,95.6497 L-235.772,94.961 L-238.496,94.2646 L-241.218,93.5605 L-243.939,92.8489 L-246.657,92.1295 L-249.373,91.4025 L-252.087,90.6679 L-254.8,89.9257 L-257.51,89.1758 L-260.218,88.4183 L-262.923,87.6532 L-265.627,86.8805 L-268.329,86.1002 L-271.028,85.3123 L-273.725,84.5169 L-276.42,83.7138 L-279.112,82.9032 L-281.802,82.085 L-284.49,81.2592 L-287.176,80.4259 L-289.859,79.585 L-292.54,78.7366 L-295.218,77.8807 L-297.895,77.0172 L-300.568,76.1462 L-303.239,75.2677 L-305.908,74.3817 L-308.574,73.4881 L-311.238,72.5871 L-313.899,71.6786 L-316.557,70.7627 L-319.213,69.8392 L-321.867,68.9083 L-324.517,67.9699 L-327.165,67.0241 L-329.811,66.0709 L-332.454,65.1102 L-335.093,64.142 L-337.731,63.1665 L-340.365,62.1835 L-342.997,61.1932 L-345.626,60.1954 L-348.252,59.1903 L-350.875,58.1778 L-353.496,57.1579 L-356.113,56.1306 L-358.728,55.096 L-361.34,54.054 L-363.948,53.0047 L-366.554,51.9481 L-369.157,50.8841 L-371.757,49.8128 L-374.354,48.7343 L-376.948,47.6484 L-379.538,46.5552 L-382.126,45.4548 z" fill="#7A7A7A" fill-opacity="0.5" fill-rule="nonzero" stroke="black" stroke-width="4.125"/>
</g>
<g id="cd_shape_1">
<path d="M-384.82422,44.54042 L-389.479,39.79471 L-389.479,7.1349487 L-369.479,-12.865002 L-389.479,-32.865 L-389.479,-55.224064 L-386.14572,-59.932095 L-379.53564,-63.114483 L-365.497,-56.5497 L-343.49,-46.7839 L-318.741,-36.627804 L-298.731,-29.035397 L-281.078,-22.783901 L-265.847,-17.718899 L-247.966,-12.154102 L-222.23,-4.852352 L-191.077,2.8952293 L-172.783,6.899868 L-151.779,11.009399 L-125.397,15.442101 L-109.509,17.7246 L-90.9241,20.0289 L-61.6343,22.8674 L-42.9532,24.1745 L-21.5755,25.192 L10.5213,25.7645 L37.2704,25.3669 L61.325,24.3295 L90.674,22.1882 L109.308,20.3265 L125.246,18.4224 L149.084,15.0341 L172.822,11.009399 L196.444,6.351101 L214.726,2.2920914 L232.919,-2.146412 L258.74,-9.14159 L274.129,-13.706001 L299.588,-21.920902 L319.773,-29.035397 L337.292,-35.652798 L352.196,-41.613903 L376.791,-52.1367 L398.284,-62.0433 L402.9441,-62.0433 L407.93512,-59.473835 L410.521,-54.478077 L410.521,-32.865 L390.521,-12.865002 L410.521,7.1349487 L410.521,39.64013 L406.19833,44.28965 L375.93536,56.76394 L346.9057,67.5937 L324.3095,75.30833 L301.57327,82.575005 L269.1363,91.94592 L237.72318,99.69443 L210.25871,105.73544 L185.31696,110.41876 L157.61804,115.05342 L124.33277,119.38573 L96.43101,122.14792 L73.802124,123.81021 L48.415752,125.166336 L20.487549,125.79225 L-4.786113,125.72946 L-38.565216,124.78012 L-75.02718,122.21933 L-103.118484,119.36742 L-135.15248,115.29147 L-175.3629,108.56329 L-213.94316,100.41821 L-245.3298,92.58296 L-272.37695,85.01708 L-295.18915,77.93995 L-316.5194,70.85911 L-346.94666,59.897903 z" fill="none" stroke="black" stroke-dasharray="4.125 8.25" stroke-linecap="round" stroke-linejoin="round" stroke-opacity="0.3" stroke-width="2.0625"/>
</g>
<g id="item_2">
<path d="M200,0 L200,0.630844 L199.992,1.89251 L199.976,3.15409 L199.952,4.41556 L199.92,5.67684 L199.881,6.9379 L199.833,8.19869 L199.777,9.45915 L199.714,10.7192 L199.642,11.9789 L199.562,13.2381 L199.475,14.4967 L199.379,15.7548 L199.276,17.0122 L199.165,18.269 L199.046,19.525 L198.919,20.7803 L198.783,22.0348 L198.641,23.2883 L198.49,24.541 L198.331,25.7926 L198.164,27.0432 L197.99,28.2928 L197.807,29.5412 L197.617,30.7885 L197.419,32.0345 L197.213,33.2793 L196.999,34.5227 L196.777,35.7648 L196.548,37.0054 L196.31,38.2446 L196.065,39.4822 L195.812,40.7183 L195.551,41.9527 L195.283,43.1855 L195.007,44.4165 L194.723,45.6458 L194.431,46.8733 L194.131,48.0989 L193.824,49.3226 L193.509,50.5443 L193.186,51.7641 L192.856,52.9817 L192.518,54.1973 L192.172,55.4107 L191.819,56.6219 L191.458,57.8308 L191.089,59.0374 L190.713,60.2417 L190.329,61.4436 L189.937,62.6431 L189.539,63.84 L189.132,65.0344 L188.718,66.2262 L188.296,67.4154 L187.867,68.6019 L187.431,69.7857 L186.987,70.9667 L186.536,72.1449 L186.077,73.3202 L185.61,74.4926 L185.137,75.662 L184.656,76.8284 L184.168,77.9917 L183.672,79.152 L183.169,80.3091 L182.659,81.463 L182.141,82.6136 L181.616,83.761 L181.084,84.905 L180.545,86.0457 L179.999,87.1829 L179.445,88.3167 L178.884,89.447 L178.317,90.5736 L177.742,91.6967 L177.16,92.8162 L176.571,93.9319 L175.975,95.0439 L175.372,96.1521 L174.761,97.2565 L174.144,98.3571 L173.521,99.4537 L172.89,100.546 L172.252,101.635 L171.607,102.72 L170.956,103.8 L170.298,104.876 L169.633,105.949 L168.961,107.017 L168.283,108.08 L167.597,109.14 L166.906,110.195 L166.207,111.246 L165.502,112.292 L164.79,113.334 L164.072,114.371 L163.347,115.404 L162.616,116.432 L161.878,117.456 L161.134,118.474 L160.384,119.489 L159.627,120.498 L158.863,121.502 L158.094,122.502 L157.318,123.497 L156.535,124.487 L155.747,125.472 L154.952,126.452 L154.152,127.427 L153.345,128.397 L152.532,129.362 L151.713,130.321 L150.887,131.276 L150.056,132.225 L149.219,133.169 L148.376,134.108 L147.527,135.041 L146.672,135.969 L145.812,136.892 L144.945,137.809 L144.073,138.72 L143.195,139.627 L142.311,140.527 L141.422,141.422 L140.527,142.311 L139.627,143.195 L138.72,144.073 L137.809,144.945 L136.892,145.812 L135.969,146.672 L135.041,147.527 L134.108,148.376 L133.169,149.219 L132.225,150.056 L131.276,150.887 L130.321,151.713 L129.362,152.532 L128.397,153.345 L127.427,154.152 L126.452,154.952 L125.472,155.747 L124.487,156.535 L123.497,157.318 L122.502,158.094 L121.502,158.863 L120.498,159.627 L119.489,160.384 L118.474,161.134 L117.456,161.878 L116.432,162.616 L115.404,163.347 L114.371,164.072 L113.334,164.79 L112.292,165.502 L111.246,166.207 L110.195,166.906 L109.14,167.597 L108.08,168.283 L107.017,168.961 L105.949,169.633 L104.876,170.298 L103.8,170.956 L102.72,171.607 L101.635,172.252 L100.546,172.89 L99.4537,173.521 L98.3571,174.144 L97.2565,174.761 L96.1521,175.372 L95.0439,175.975 L93.9319,176.571 L92.8162,177.16 L91.6967,177.742 L90.5736,178.317 L89.447,178.884 L88.3167,179.445 L87.1829,179.999 L86.0457,180.545 L84.905,181.084 L83.761,181.616 L82.6136,182.141 L81.463,182.659 L80.3091,183.169 L79.152,183.672 L77.9917,184.168 L76.8284,184.656 L75.662,185.137 L74.4926,185.61 L73.3202,186.077 L72.1449,186.536 L70.9667,186.987 L69.7857,187.431 L68.6019,187.867 L67.4154,188.296 L66.2262,188.718 L65.0344,189.132 L63.84,189.539 L62.6431,189.937 L61.4436,190.329 L60.2417,190.713 L59.0374,191.089 L57.8308,191.458 L56.6219,191.819 L55.4107,192.172 L54.1973,192.518 L52.9817,192.856 L51.7641,193.186 L50.5443,193.509 L49.3226,193.824 L48.0989,194.131 L46.8733,194.431 L45.6458,194.723 L44.4165,195.007 L43.1855,195.283 L41.9527,195.551 L40.7183,195.812 L39.4822,196.065 L38.2446,196.31 L37.0054,196.548 L35.7648,196.777 L34.5227,196.999 L33.2793,197.213 L32.0345,197.419 L30.7885,197.617 L29.5412,197.807 L28.2928,197.99 L27.0432,198.164 L25.7926,198.331 L24.541,198.49 L23.2883,198.641 L22.0348,198.783 L20.7803,198.919 L19.525,199.046 L18.269,199.165 L17.0122,199.276 L15.7548,199.379 L14.4967,199.475 L13.2381,199.562 L11.9789,199.642 L10.7192,199.714 L9.45915,199.777 L8.19869,199.833 L6.9379,199.881 L5.67684,199.92 L4.41556,199.952 L3.15409,199.976 L1.89251,199.992 L0.630844,200 L-0.0000000000000367394,200 L-0.630844,200 L-1.89251,199.992 L-3.15409,199.976 L-4.41556,199.952 L-5.67684,199.92 L-6.9379,199.881 L-8.19869,199.833 L-9.45915,199.777 L-10.7192,199.714 L-11.9789,199.642 L-13.2381,199.562 L-14.4967,199.475 L-15.7548,199.379 L-17.0122,199.276 L-18.269,199.165 L-19.525,199.046 L-20.7803,198.919 L-22.0348,198.783 L-23.2883,198.641 L-24.541,198.49 L-25.7926,198.331 L-27.0432,198.164 L-28.2928,197.99 L-29.5412,197.807 L-30.7885,197.617 L-32.0345,197.419 L-33.2793,197.213 L-34.5227,196.999 L-35.7648,196.777 L-37.0054,196.548 L-38.2446,196.31 L-39.4822,196.065 L-40.7183,195.812 L-41.9527,195.551 L-43.1855,195.283 L-44.4165,195.007 L-45.6458,194.723 L-46.8733,194.431 L-48.0989,194.131 L-49.3226,193.824 L-50.5443,193.509 L-51.7641,193.186 L-52.9817,192.856 L-54.1973,192.518 L-55.4107,192.172 L-56.6219,191.819 L-57.8308,191.458 L-59.0374,191.089 L-60.2417,190.713 L-61.4436,190.329 L-62.6431,189.937 L-63.84,189.539 L-65.0344,189.132 L-66.2262,188.718 L-67.4154,188.296 L-68.6019,187.867 L-69.7857,187.431 L-70.9667,186.987 L-72.1449,186.536 L-73.3202,186.077 L-74.4926,185.61 L-75.662,185.137 L-76.8284,184.656 L-77.9917,184.168 L-79.152,183.672 L-80.3091,183.169 L-81.463,182.659 L-82.6136,182.141 L-83.761,181.616 L-84.905,181.084 L-86.0457,180.545 L-87.1829,179.999 L-88.3167,179.445 L-89.447,178.884 L-90.5736,178.317 L-91.6967,177.742 L-92.8162,177.16 L-93.9319,176.571 L-95.0439,175.975 L-96.1521,175.372 L-97.2565,174.761 L-98.3571,174.144 L-99.4537,173.521 L-100.546,172.89 L-101.635,172.252 L-102.72,171.607 L-103.8,170.956 L-104.876,170.298 L-105.949,169.633 L-107.017,168.961 L-108.08,168.283 L-109.14,167.597 L-110.195,166.906 L-111.246,166.207 L-112.292,165.502 L-113.334,164.79 L-114.371,164.072 L-115.404,163.347 L-116.432,162.616 L-117.456,161.878 L-118.474,161.134 L-119.489,160.384 L-120.498,159.627 L-121.502,158.863 L-122.502,158.094 L-123.497,157.318 L-124.487,156.535 L-125.472,155.747 L-126.452,154.952 L-127.427,154.152 L-128.397,153.345 L-129.362,152.532 L-130.321,151.713 L-131.276,150.887 L-132.225,150.056 L-133.169,149.219 L-134.108,148.376 L-135.041,147.527 L-135.969,146.672 L-136.892,145.812 L-137.809,144.945 L-138.72,144.073 L-139.627,143.195 L-140.527,142.311 L-141.422,141.422 L-142.311,140.527 L-143.195,139.627 L-144.073,138.72 L-144.945,137.809 L-145.812,136.892 L-146.672,135.969 L-147.527,135.041 L-148.376,134.108 L-149.219,133.169 L-150.056,132.225 L-150.887,131.276 L-151.713,130.321 L-152.532,129.362 L-153.345,128.397 L-154.152,127.427 L-154.952,126.452 L-155.747,125.472 L-156.535,124.487 L-157.318,123.497 L-158.094,122.502 L-158.863,121.502 L-159.627,120.498 L-160.384,119.489 L-161.134,118.474 L-161.878,117.456 L-162.616,116.432 L-163.347,115.404 L-164.072,114.371 L-164.79,113.334 L-165.502,112.292 L-166.207,111.246 L-166.906,110.195 L-167.597,109.14 L-168.283,108.08 L-168.961,107.017 L-169.633,105.949 L-170.298,104.876 L-170.956,103.8 L-171.607,102.72 L-172.252,101.635 L-172.89,100.546 L-173.521,99.4537 L-174.144,98.3571 L-174.761,97.2565 L-175.372,96.1521 L-175.975,95.0439 L-176.571,93.9319 L-177.16,92.8162 L-177.742,91.6967 L-178.317,90.5736 L-178.884,89.447 L-179.445,88.3167 L-179.999,87.1829 L-180.545,86.0457 L-181.084,84.905 L-181.616,83.761 L-182.141,82.6136 L-182.659,81.463 L-183.169,80.3091 L-183.672,79.152 L-184.168,77.9917 L-184.656,76.8284 L-185.137,75.662 L-185.61,74.4926 L-186.077,73.3202 L-186.536,72.1449 L-186.987,70.9667 L-187.431,69.7857 L-187.867,68.6019 L-188.296,67.4154 L-188.718,66.2262 L-189.132,65.0344 L-189.539,63.84 L-189.937,62.6431 L-190.329,61.4436 L-190.713,60.2417 L-191.089,59.0374 L-191.458,57.8308 L-191.819,56.6219 L-192.172,55.4107 L-192.518,54.1973 L-192.856,52.9817 L-193.186,51.7641 L-193.509,50.5443 L-193.824,49.3226 L-194.131,48.0989 L-194.431,46.8733 L-194.723,45.6458 L-195.007,44.4165 L-195.283,43.1855 L-195.551,41.9527 L-195.812,40.7183 L-196.065,39.4822 L-196.31,38.2446 L-196.548,37.0054 L-196.777,35.7648 L-196.999,34.5227 L-197.213,33.2793 L-197.419,32.0345 L-197.617,30.7885 L-197.807,29.5412 L-197.99,28.2928 L-198.164,27.0432 L-198.331,25.7926 L-198.49,24.541 L-198.641,23.2883 L-198.783,22.0348 L-198.919,20.7803 L-199.046,19.525 L-199.165,18.269 L-199.276,17.0122 L-199.379,15.7548 L-199.475,14.4967 L-199.562,13.2381 L-199.642,11.9789 L-199.714,10.7192 L-199.777,9.45915 L-199.833,8.19869 L-199.881,6.9379 L-199.92,5.67684 L-199.952,4.41556 L-199.976,3.15409 L-199.992,1.89251 L-200,0.630844 L-200,-0.0000000000000244929 L-200,-0.630844 L-199.992,-1.89251 L-199.976,-3.15409 L-199.952,-4.41556 L-199.92,-5.67684 L-199.881,-6.9379 L-199.833,-8.19869 L-199.777,-9.45915 L-199.714,-10.7192 L-199.642,-11.9789 L-199.562,-13.2381 L-199.475,-14.4967 L-199.379,-15.7548 L-199.276,-17.0122 L-199.165,-18.269 L-199.046,-19.525 L-198.919,-20.7803 L-198.783,-22.0348 L-198.641,-23.2883 L-198.49,-24.541 L-198.331,-25.7926 L-198.164,-27.0432 L-197.99,-28.2928 L-197.807,-29.5412 L-197.617,-30.7885 L-197.419,-32.0345 L-197.213,-33.2793 L-196.999,-34.5227 L-196.777,-35.7648 L-196.548,-37.0054 L-196.31,-38.2446 L-196.065,-39.4822 L-195.812,-40.7183 L-195.551,-41.9527 L-195.283,-43.1855 L-195.007,-44.4165 L-194.723,-45.6458 L-194.431,-46.8733 L-194.131,-48.0989 L-193.824,-49.3226 L-193.509,-50.5443 L-193.186,-51.7641 L-192.856,-52.9817 L-192.518,-54.1973 L-192.172,-55.4107 L-191.819,-56.6219 L-191.458,-57.8308 L-191.089,-59.0374 L-190.713,-60.2417 L-190.329,-61.4436 L-189.937,-62.6431 L-189.539,-63.84 L-189.132,-65.0344 L-188.718,-66.2262 L-188.296,-67.4154 L-187.867,-68.6019 L-187.431,-69.7857 L-186.987,-70.9667 L-186.536,-72.1449 L-186.077,-73.3202 L-185.61,-74.4926 L-185.137,-75.662 L-184.656,-76.8284 L-184.168,-77.9917 L-183.672,-79.152 L-183.169,-80.3091 L-182.659,-81.463 L-182.141,-82.6136 L-181.616,-83.761 L-181.084,-84.905 L-180.545,-86.0457 L-179.999,-87.1829 L-179.445,-88.3167 L-178.884,-89.447 L-178.317,-90.5736 L-177.742,-91.6967 L-177.16,-92.8162 L-176.571,-93.9319 L-175.975,-95.0439 L-175.372,-96.1521 L-174.761,-97.2565 L-174.144,-98.3571 L-173.521,-99.4537 L-172.89,-100.546 L-172.252,-101.635 L-171.607,-102.72 L-170.956,-103.8 L-170.298,-104.876 L-169.633,-105.949 L-168.961,-107.017 L-168.283,-108.08 L-167.597,-109.14 L-166.906,-110.195 L-166.207,-111.246 L-165.502,-112.292 L-164.79,-113.334 L-164.072,-114.371 L-163.347,-115.404 L-162.616,-116.432 L-161.878,-117.456 L-161.134,-118.474 L-160.384,-119.489 L-159.627,-120.498 L-158.863,-121.502 L-158.094,-122.502 L-157.318,-123.497 L-156.535,-124.487 L-155.747,-125.472 L-154.952,-126.452 L-154.152,-127.427 L-153.345,-128.397 L-152.532,-129.362 L-151.713,-130.321 L-150.887,-131.276 L-150.056,-132.225 L-149.219,-133.169 L-148.376,-134.108 L-147.527,-135.041 L-146.672,-135.969 L-145.812,-136.892 L-144.945,-137.809 L-144.073,-138.72 L-143.195,-139.627 L-142.311,-140.527 L-141.422,-141.422 L-140.527,-142.311 L-139.627,-143.195 L-138.72,-144.073 L-137.809,-144.945 L-136.892,-145.812 L-135.969,-146.672 L-135.041,-147.527 L-134.108,-148.376 L-133.169,-149.219 L-132.225,-150.056 L-131.276,-150.887 L-130.321,-151.713 L-129.362,-152.532 L-128.397,-153.345 L-127.427,-154.152 L-126.452,-154.952 L-125.472,-155.747 L-124.487,-156.535 L-123.497,-157.318 L-122.502,-158.094 L-121.502,-158.863 L-120.498,-159.627 L-119.489,-160.384 L-118.474,-161.134 L-117.456,-161.878 L-116.432,-162.616 L-115.404,-163.347 L-114.371,-164.072 L-113.334,-164.79 L-112.292,-165.502 L-111.246,-166.207 L-110.195,-166.906 L-109.14,-167.597 L-108.08,-168.283 L-107.017,-168.961 L-105.949,-169.633 L-104.876,-170.298 L-103.8,-170.956 L-102.72,-171.607 L-101.635,-172.252 L-100.546,-172.89 L-99.4537,-173.521 L-98.3571,-174.144 L-97.2565,-174.761 L-96.1521,-175.372 L-95.0439,-175.975 L-93.9319,-176.571 L-92.8162,-177.16 L-91.6967,-177.742 L-90.5736,-178.317 L-89.447,-178.884 L-88.3167,-179.445 L-87.1829,-179.999 L-86.0457,-180.545 L-84.905,-181.084 L-83.761,-181.616 L-82.6136,-182.141 L-81.463,-182.659 L-80.3091,-183.169 L-79.152,-183.672 L-77.9917,-184.168 L-76.8284,-184.656 L-75.662,-185.137 L-74.4926,-185.61 L-73.3202,-186.077 L-72.1449,-186.536 L-70.9667,-186.987 L-69.7857,-187.431 L-68.6019,-187.867 L-67.4154,-188.296 L-66.2262,-188.718 L-65.0344,-189.132 L-63.84,-189.539 L-62.6431,-189.937 L-61.4436,-190.329 L-60.2417,-190.713 L-59.0374,-191.089 L-57.8308,-191.458 L-56.6219,-191.819 L-55.4107,-192.172 L-54.1973,-192.518 L-52.9817,-192.856 L-51.7641,-193.186 L-50.5443,-193.509 L-49.3226,-193.824 L-48.0989,-194.131 L-46.8733,-194.431 L-45.6458,-194.723 L-44.4165,-195.007 L-43.1855,-195.283 L-41.9527,-195.551 L-40.7183,-195.812 L-39.4822,-196.065 L-38.2446,-196.31 L-37.0054,-196.548 L-35.7648,-196.777 L-34.5227,-196.999 L-33.2793,-197.213 L-32.0345,-197.419 L-30.7885,-197.617 L-29.5412,-197.807 L-28.2928,-197.99 L-27.0432,-198.164 L-25.7926,-198.331 L-24.541,-198.49 L-23.2883,-198.641 L-22.0348,-198.783 L-20.7803,-198.919 L-19.525,-199.046 L-18.269,-199.165 L-17.0122,-199.276 L-15.7548,-199.379 L-14.4967,-199.475 L-13.2381,-199.562 L-11.9789,-199.642 L-10.7192,-199.714 L-9.45915,-199.777 L-8.19869,-199.833 L-6.9379,-199.881 L-5.67684,-199.92 L-4.41556,-199.952 L-3.15409,-199.976 L-1.89251,-199.992 L-0.630844,-200 L0,-200 L0,-30 L-0.485792,-29.9961 L-0.971457,-29.9843 L-1.45687,-29.9646 L-1.94189,-29.9371 L-2.42641,-29.9017 L-2.9103,-29.8585 L-3.39341,-29.8075 L-3.87564,-29.7486 L-4.35686,-29.6819 L-4.83693,-29.6075 L-5.31573,-29.5253 L-5.79314,-29.4353 L-6.26903,-29.3377 L-6.74327,-29.2323 L-7.21575,-29.1193 L-7.68633,-28.9986 L-8.1549,-28.8704 L-8.62133,-28.7345 L-9.0855,-28.5911 L-9.54729,-28.4403 L-10.0066,-28.2819 L-10.4632,-28.1162 L-10.9171,-27.9431 L-11.3682,-27.7626 L-11.8163,-27.5749 L-12.2612,-27.38 L-12.703,-27.1778 L-13.1414,-26.9686 L-13.5764,-26.7522 L-14.0078,-26.5289 L-14.4356,-26.2986 L-14.8595,-26.0614 L-15.2796,-25.8173 L-15.6957,-25.5665 L-16.1076,-25.309 L-16.5153,-25.0448 L-16.9187,-24.7741 L-17.3177,-24.4969 L-17.7121,-24.2133 L-18.1018,-23.9233 L-18.4869,-23.627 L-18.867,-23.3246 L-19.2422,-23.016 L-19.6124,-22.7014 L-19.9775,-22.3808 L-20.3373,-22.0544 L-20.6917,-21.7222 L-21.0407,-21.3843 L-21.3843,-21.0407 L-21.7222,-20.6917 L-22.0544,-20.3373 L-22.3808,-19.9775 L-22.7014,-19.6124 L-23.016,-19.2422 L-23.3246,-18.867 L-23.627,-18.4869 L-23.9233,-18.1018 L-24.2133,-17.7121 L-24.4969,-17.3177 L-24.7741,-16.9187 L-25.0448,-16.5153 L-25.309,-16.1076 L-25.5665,-15.6957 L-25.8173,-15.2796 L-26.0614,-14.8595 L-26.2986,-14.4356 L-26.5289,-14.0078 L-26.7522,-13.5764 L-26.9686,-13.1414 L-27.1778,-12.703 L-27.38,-12.2612 L-27.5749,-11.8163 L-27.7626,-11.3682 L-27.9431,-10.9171 L-28.1162,-10.4632 L-28.2819,-10.0066 L-28.4403,-9.54729 L-28.5911,-9.0855 L-28.7345,-8.62133 L-28.8704,-8.1549 L-28.9986,-7.68633 L-29.1193,-7.21575 L-29.2323,-6.74327 L-29.3377,-6.26903 L-29.4353,-5.79314 L-29.5253,-5.31573 L-29.6075,-4.83693 L-29.6819,-4.35686 L-29.7486,-3.87564 L-29.8075,-3.39341 L-29.8585,-2.9103 L-29.9017,-2.42641 L-29.9371,-1.94189 L-29.9646,-1.45687 L-29.9843,-0.971457 L-29.9961,-0.485792 L-30,0.00000000000000367394 L-29.9961,0.485792 L-29.9843,0.971457 L-29.9646,1.45687 L-29.9371,1.94189 L-29.9017,2.42641 L-29.8585,2.9103 L-29.8075,3.39341 L-29.7486,3.87564 L-29.6819,4.35686 L-29.6075,4.83693 L-29.5253,5.31573 L-29.4353,5.79314 L-29.3377,6.26903 L-29.2323,6.74327 L-29.1193,7.21575 L-28.9986,7.68633 L-28.8704,8.1549 L-28.7345,8.62133 L-28.5911,9.0855 L-28.4403,9.54729 L-28.2819,10.0066 L-28.1162,10.4632 L-27.9431,10.9171 L-27.7626,11.3682 L-27.5749,11.8163 L-27.38,12.2612 L-27.1778,12.703 L-26.9686,13.1414 L-26.7522,13.5764 L-26.5289,14.0078 L-26.2986,14.4356 L-26.0614,14.8595 L-25.8173,15.2796 L-25.5665,15.6957 L-25.309,16.1076 L-25.0448,16.5153 L-24.7741,16.9187 L-24.4969,17.3177 L-24.2133,17.7121 L-23.9233,18.1018 L-23.627,18.4869 L-23.3246,18.867 L-23.016,19.2422 L-22.7014,19.6124 L-22.3808,19.9775 L-22.0544,20.3373 L-21.7222,20.6917 L-21.3843,21.0407 L-21.0407,21.3843 L-20.6917,21.7222 L-20.3373,22.0544 L-19.9775,22.3808 L-19.6124,22.7014 L-19.2422,23.016 L-18.867,23.3246 L-18.4869,23.627 L-18.1018,23.9233 L-17.7121,24.2133 L-17.3177,24.4969 L-16.9187,24.7741 L-16.5153,25.0448 L-16.1076,25.309 L-15.6957,25.5665 L-15.2796,25.8173 L-14.8595,26.0614 L-14.4356,26.2986 L-14.0078,26.5289 L-13.5764,26.7522 L-13.1414,26.9686 L-12.703,27.1778 L-12.2612,27.38 L-11.8163,27.5749 L-11.3682,27.7626 L-10.9171,27.9431 L-10.4632,28.1162 L-10.0066,28.2819 L-9.54729,28.4403 L-9.0855,28.5911 L-8.62133,28.7345 L-8.1549,28.8704 L-7.68633,28.9986 L-7.21575,29.1193 L-6.74327,29.2323 L-6.26903,29.3377 L-5.79314,29.4353 L-5.31573,29.5253 L-4.83693,29.6075 L-4.35686,29.6819 L-3.87564,29.7486 L-3.39341,29.8075 L-2.9103,29.8585 L-2.42641,29.9017 L-1.94189,29.9371 L-1.45687,29.9646 L-0.971457,29.9843 L-0.485792,29.9961 L0.00000000000000183697,30 L0.485792,29.9961 L0.971457,29.9843 L1.45687,29.9646 L1.94189,29.9371 L2.42641,29.9017 L2.9103,29.8585 L3.39341,29.8075 L3.87564,29.7486 L4.35686,29.6819 L4.83693,29.6075 L5.31573,29.5253 L5.79314,29.4353 L6.26903,29.3377 L6.74327,29.2323 L7.21575,29.1193 L7.68633,28.9986 L8.1549,28.8704 L8.62133,28.7345 L9.0855,28.5911 L9.54729,28.4403 L10.0066,28.2819 L10.4632,28.1162 L10.9171,27.9431 L11.3682,27.7626 L11.8163,27.5749 L12.2612,27.38 L12.703,27.1778 L13.1414,26.9686 L13.5764,26.7522 L14.0078,26.5289 L14.4356,26.2986 L14.8595,26.0614 L15.2796,25.8173 L15.6957,25.5665 L16.1076,25.309 L16.5153,25.0448 L16.9187,24.7741 L17.3177,24.4969 L17.7121,24.2133 L18.1018,23.9233 L18.4869,23.627 L18.867,23.3246 L19.2422,23.016 L19.6124,22.7014 L19.9775,22.3808 L20.3373,22.0544 L20.6917,21.7222 L21.0407,21.3843 L21.3843,21.0407 L21.7222,20.6917 L22.0544,20.3373 L22.3808,19.9775 L22.7014,19.6124 L23.016,19.2422 L23.3246,18.867 L23.627,18.4869 L23.9233,18.1018 L24.2133,17.7121 L24.4969,17.3177 L24.7741,16.9187 L25.0448,16.5153 L25.309,16.1076 L25.5665,15.6957 L25.8173,15.2796 L26.0614,14.8595 L26.2986,14.4356 L26.5289,14.0078 L26.7522,13.5764 L26.9686,13.1414 L27.1778,12.703 L27.38,12.2612 L27.5749,11.8163 L27.7626,11.3682 L27.9431,10.9171 L28.1162,10.4632 L28.2819,10.0066 L28.4403,9.54729 L28.5911,9.0855 L28.7345,8.62133 L28.8704,8.1549 L28.9986,7.68633 L29.1193,7.21575 L29.2323,6.74327 L29.3377,6.26903 L29.4353,5.79314 L29.5253,5.31573 L29.6075,4.83693 L29.6819,4.35686 L29.7486,3.87564 L29.8075,3.39341 L29.8585,2.9103 L29.9017,2.42641 L29.9371,1.94189 L29.9646,1.45687 L29.9843,0.971457 L29.9961,0.485792 L30,0 z" fill="#7A7A7A" fill-opacity="0.5" fill-rule="nonzero" stroke="black" stroke-width="4.125"/>
</g>
<g id="cd_shape_2">
<path d="M200.06401,0 L199.67882,15.184032 L197.13521,35.204483 L192.75204,54.177204 L186.17432,73.9589 L178.15817,91.19665 L171.08154,103.8199 L162.1065,117.522766 L149.46342,133.32631 L137.86339,145.00464 L126.12817,155.53986 L111.36324,166.33095 L94.643745,176.55518 L76.31951,185.07654 L62.035393,190.24126 L44.46727,195.36139 L20.84257,199.27127 L1.9087677,200.11244 L-15.183504,199.67883 L-33.33872,197.37231 L-50.60672,193.72122 L-72.28389,186.95322 L-91.19614,178.15843 L-106.62211,169.51064 L-122.66862,158.24828 L-135.60234,147.20264 L-148.1624,134.72678 L-159.38388,121.05067 L-169.8367,106.157486 L-179.91583,87.938835 L-186.37505,72.82875 L-192.51802,55.51754 L-196.95413,35.732178 L-199.73636,15.75099 L-200.13118,-5.002859 L-198.77939,-24.561506 L-194.99994,-45.707344 L-190.2415,-62.03469 L-184.86713,-76.89872 L-178.0968,-91.22684 L-171.6595,-102.86267 L-162.44957,-117.09375 L-147.88255,-135.30258 L-132.37053,-150.15073 L-120.59141,-159.70625 L-107.67358,-168.77254 L-90.71097,-178.57149 L-73.978836,-185.9669 L-59.684494,-191.03938 L-45.08539,-194.9961 L-27.731571,-198.32921 L-11.350256,-199.7761 L0,-200.06398 L0,-29.999998 L-5.315729,-29.525297 L-12.2612,-27.38 L-18.4869,-23.627 L-22.0544,-20.337301 L-26.0614,-14.859499 L-28.8704,-8.154898 L-29.9371,1.9418907 L-29.3377,6.2690296 L-26.9686,13.1414 L-24.2133,17.7121 L-20.3373,22.0544 L-13.1414,26.9686 L-3.875639,29.7486 L1.9418907,29.9371 L10.917101,27.9431 L20.337297,22.0544 L25.5665,15.6957 L29.337702,6.2690296 L30.000002,0 z" fill="none" stroke="black" stroke-dasharray="4.125 8.25" stroke-linecap="round" stroke-linejoin="round" stroke-opacity="0.3" stroke-width="2.0625"/>
</g>
<g id="item_3">
<path d="M100,150 L0,150 L0,0 L700,0 L700,150 L600,150 L600,50 L400,50 L400,150 L300,150 L300,50 L100,50 z" fill="#7A7A7A" fill-opacity="0.5" fill-rule="nonzero" stroke="black" stroke-width="4.125"/>
</g>
<g id="cd_shape_3">
<path d="M100,150 L0,150 L0,0 L700,0 L700,150 L600,150 L600,50 L400,50 L400,150 L300,150 L300,50 L100,50 z" fill="none" stroke="black" stroke-dasharray="4.125 8.25" stroke-linecap="round" stroke-linejoin="round" stroke-opacity="0.3" stroke-width="2.0625"/>
</g>
<g id="item_4">
<path d="M450,150 L350,250 L300,250 L299.996,249.108 L299.984,248.215 L299.964,247.323 L299.936,246.431 L299.9,245.539 L299.857,244.648 L299.805,243.757 L299.745,242.866 L299.678,241.976 L299.602,241.087 L299.518,240.198 L299.427,239.31 L299.328,238.424 L299.22,237.538 L299.105,236.652 L298.982,235.769 L298.851,234.886 L298.712,234.004 L298.566,233.124 L298.411,232.245 L298.249,231.367 L298.079,230.491 L297.901,229.616 L297.715,228.743 L297.521,227.872 L297.32,227.003 L297.111,226.135 L296.894,225.269 L296.669,224.406 L296.437,223.544 L296.197,222.684 L295.949,221.827 L295.694,220.972 L295.431,220.119 L295.161,219.268 L294.883,218.42 L294.597,217.574 L294.304,216.732 L294.003,215.891 L293.695,215.054 L293.379,214.219 L293.056,213.387 L292.726,212.558 L292.388,211.732 L292.043,210.909 L291.69,210.089 L291.33,209.272 L290.963,208.458 L290.589,207.648 L290.207,206.842 L289.818,206.038 L289.423,205.238 L289.019,204.442 L288.609,203.649 L288.192,202.86 L287.768,202.075 L287.337,201.294 L286.899,200.516 L286.453,199.743 L286.001,198.973 L285.543,198.207 L285.077,197.446 L284.605,196.689 L284.125,195.936 L283.639,195.187 L283.147,194.443 L282.648,193.703 L282.142,192.968 L281.63,192.237 L281.111,191.511 L280.586,190.789 L280.054,190.072 L279.516,189.36 L278.972,188.653 L278.421,187.951 L277.864,187.253 L277.301,186.561 L276.732,185.873 L276.156,185.191 L275.575,184.514 L274.987,183.842 L274.394,183.175 L273.795,182.514 L273.189,181.858 L272.578,181.208 L271.962,180.563 L271.339,179.923 L270.711,179.289 L270.077,178.661 L269.437,178.038 L268.792,177.422 L268.142,176.811 L267.486,176.205 L266.825,175.606 L266.158,175.013 L265.486,174.425 L264.809,173.844 L264.127,173.268 L263.439,172.699 L262.747,172.136 L262.049,171.579 L261.347,171.028 L260.64,170.484 L259.928,169.946 L259.211,169.414 L258.489,168.889 L257.763,168.37 L257.032,167.858 L256.297,167.352 L255.557,166.853 L254.813,166.361 L254.064,165.875 L253.311,165.395 L252.554,164.923 L251.793,164.457 L251.027,163.999 L250.257,163.547 L249.484,163.101 L248.706,162.663 L247.925,162.232 L247.14,161.808 L246.351,161.391 L245.558,160.981 L244.762,160.577 L243.962,160.182 L243.158,159.793 L242.352,159.411 L241.542,159.037 L240.728,158.67 L239.911,158.31 L239.091,157.957 L238.268,157.612 L237.442,157.274 L236.613,156.944 L235.781,156.621 L234.946,156.305 L234.109,155.997 L233.268,155.696 L232.426,155.403 L231.58,155.117 L230.732,154.839 L229.881,154.569 L229.028,154.306 L228.173,154.051 L227.316,153.803 L226.456,153.563 L225.594,153.331 L224.731,153.106 L223.865,152.889 L222.997,152.68 L222.128,152.479 L221.257,152.285 L220.384,152.099 L219.509,151.921 L218.633,151.751 L217.755,151.589 L216.876,151.434 L215.996,151.288 L215.114,151.149 L214.231,151.018 L213.348,150.895 L212.462,150.78 L211.576,150.672 L210.69,150.573 L209.802,150.482 L208.913,150.398 L208.024,150.322 L207.134,150.255 L206.243,150.195 L205.352,150.143 L204.461,150.1 L203.569,150.064 L202.677,150.036 L201.785,150.016 L200.892,150.004 L200,150 L0,150 L0,100 L300,0 L350,0 L450,100 z" fill="#7A7A7A" fill-opacity="0.5" fill-rule="nonzero" stroke="black" stroke-width="4.125"/>
</g>
<g id="cd_shape_4">
<path d="M450,150 L350,250 L300,250 L297.715,228.743 L289.423,205.238 L280.586,190.789 L264.127,173.268 L244.762,160.577 L231.58,155.117 L221.257,152.285 L200,150 L0,150 L0,100 L300,0 L350,0 L450,100 z" fill="none" stroke="black" stroke-dasharray="4.125 8.25" stroke-linecap="round" stroke-linejoin="round" stroke-opacity="0.3" stroke-width="2.0625"/>
</g>
</defs>
<use href="#item_0" transform="translate(0.012207031 719.06683), rotate(-90)">
<title>item, id: 0, transf: [r: -90.000°, t: (0.012, 719.067)]</title>
</use>
<use href="#item_0" transform="translate(950.23773 615.8753), rotate(-180)">
<title>item, id: 0, transf: [r: -180.000°, t: (950.238, 615.875)]</title>
</use>
<use href="#item_0" transform="translate(50.116013 0.21713257), rotate(0)">
<title>item, id: 0, transf: [r: 0.000°, t: (50.116, 0.217)]</title>
</use>
<use href="#item_0" transform="translate(628.8525 719.30145), rotate(90)">
<title>item, id: 0, transf: [r: 90.000°, t: (628.852, 719.301)]</title>
</use>
<use href="#item_0" transform="translate(100.15178 50.71022), rotate(0)">
<title>item, id: 0, transf: [r: 0.000°, t: (100.152, 50.710)]</title>
</use>
<use href="#item_0" transform="translate(850.2288 0.067611694), rotate(0)">
<title>item, id: 0, transf: [r: 0.000°, t: (850.229, 0.068)]</title>
</use>
<use href="#item_0" transform="translate(1000.25494 666.0429), rotate(-180)">
<title>item, id: 0, transf: [r: -180.000°, t: (1000.255, 666.043)]</title>
</use>
<use href="#item_0" transform="translate(1500.6172 798.8647), rotate(-180)">
<title>item, id: 0, transf: [r: -180.000°, t: (1500.617, 798.865)]</title>
</use>
<use href="#item_0" transform="translate(850.19855 565.68884), rotate(-180)">
<title>item, id: 0, transf: [r: -180.000°, t: (850.199, 565.689)]</title>
</use>
<use href="#item_0" transform="translate(4332.8813 1499.9684), rotate(-180)">
<title>item, id: 0, transf: [r: -180.000°, t: (4332.881, 1499.968)]</title>
</use>
<use href="#item_0" transform="translate(1500.6235 851.2072), rotate(-90)">
<title>item, id: 0, transf: [r: -90.000°, t: (1500.624, 851.207)]</title>
</use>
<use href="#item_0" transform="translate(679.8501 849.39276), rotate(0)">
<title>item, id: 0, transf: [r: 0.000°, t: (679.850, 849.393)]</title>
</use>
<use href="#item_0" transform="translate(629.83093 798.8984), rotate(0)">
<title>item, id: 0, transf: [r: 0.000°, t: (629.831, 798.898)]</title>
</use>
<use href="#item_0" transform="translate(1600.6307 50.243668), rotate(90)">
<title>item, id: 0, transf: [r: 90.000°, t: (1600.631, 50.244)]</title>
</use>
<use href="#item_0" transform="translate(1450.561 748.4383), rotate(-180)">
<title>item, id: 0, transf: [r: -180.000°, t: (1450.561, 748.438)]</title>
</use>
<use href="#item_1" transform="translate(3871.558 1214.3975), rotate(0)">
<title>item, id: 1, transf: [r: 0.000°, t: (3871.558, 1214.397)]</title>
</use>
<use href="#item_1" transform="translate(1836.4185 389.57208), rotate(90)">
<title>item, id: 1, transf: [r: 90.000°, t: (1836.418, 389.572)]</title>
</use>
<use href="#item_1" transform="translate(3872.347 994.83374), rotate(0)">
<title>item, id: 1, transf: [r: 0.000°, t: (3872.347, 994.834)]</title>
</use>
<use href="#item_1" transform="translate(2495.4602 392.18054), rotate(90)">
<title>item, id: 1, transf: [r: 90.000°, t: (2495.460, 392.181)]</title>
</use>
<use href="#item_1" transform="translate(1946.1779 389.8417), rotate(90)">
<title>item, id: 1, transf: [r: 90.000°, t: (1946.178, 389.842)]</title>
</use>
<use href="#item_1" transform="translate(2605.3674 392.8099), rotate(90)">
<title>item, id: 1, transf: [r: 90.000°, t: (2605.367, 392.810)]</title>
</use>
<use href="#item_1" transform="translate(2275.7969 391.33734), rotate(90)">
<title>item, id: 1, transf: [r: 90.000°, t: (2275.797, 391.337)]</title>
</use>
<use href="#item_1" transform="translate(2056.1145 390.2257), rotate(90)">
<title>item, id: 1, transf: [r: 90.000°, t: (2056.115, 390.226)]</title>
</use>
<use href="#item_1" transform="translate(3871.8694 1104.6509), rotate(0)">
<title>item, id: 1, transf: [r: 0.000°, t: (3871.869, 1104.651)]</title>
</use>
<use href="#item_1" transform="translate(1726.4413 389.72098), rotate(90)">
<title>item, id: 1, transf: [r: 90.000°, t: (1726.441, 389.721)]</title>
</use>
<use href="#item_1" transform="translate(2385.5708 391.75864), rotate(90)">
<title>item, id: 1, transf: [r: 90.000°, t: (2385.571, 391.759)]</title>
</use>
<use href="#item_1" transform="translate(3871.3188 1324.145), rotate(0)">
<title>item, id: 1, transf: [r: 0.000°, t: (3871.319, 1324.145)]</title>
</use>
<use href="#item_1" transform="translate(2166.0437 391.01712), rotate(90)">
<title>item, id: 1, transf: [r: 90.000°, t: (2166.044, 391.017)]</title>
</use>
<use href="#item_1" transform="translate(3872.623 885.1141), rotate(0)">
<title>item, id: 1, transf: [r: 0.000°, t: (3872.623, 885.114)]</title>
</use>
<use href="#item_1" transform="translate(2715.1907 392.91806), rotate(90)">
<title>item, id: 1, transf: [r: 90.000°, t: (2715.191, 392.918)]</title>
</use>
<use href="#item_3" transform="translate(4733.33 789.00366), rotate(90)">
<title>item, id: 3, transf: [r: 90.000°, t: (4733.330, 789.004)]</title>
</use>
<use href="#item_3" transform="translate(4533.2554 694.84766), rotate(90)">
<title>item, id: 3, transf: [r: 90.000°, t: (4533.255, 694.848)]</title>
</use>
<use href="#item_3" transform="translate(901.583 899.7351), rotate(0)">
<title>item, id: 3, transf: [r: 0.000°, t: (901.583, 899.735)]</title>
</use>
<use href="#item_3" transform="translate(3041.0679 0.04131317), rotate(0)">
<title>item, id: 3, transf: [r: 0.000°, t: (3041.068, 0.041)]</title>
</use>
<use href="#item_3" transform="translate(4533.31 1353.1128), rotate(-90)">
<title>item, id: 3, transf: [r: -90.000°, t: (4533.310, 1353.113)]</title>
</use>
<use href="#item_3" transform="translate(860.2306 1299.8923), rotate(0)">
<title>item, id: 3, transf: [r: 0.000°, t: (860.231, 1299.892)]</title>
</use>
<use href="#item_3" transform="translate(3640.8755 200.06488), rotate(-180)">
<title>item, id: 3, transf: [r: -180.000°, t: (3640.875, 200.065)]</title>
</use>
<use href="#item_3" transform="translate(4333.1367 1498.0421), rotate(-90)">
<title>item, id: 3, transf: [r: -90.000°, t: (4333.137, 1498.042)]</title>
</use>
<use href="#item_3" transform="translate(830.0596 1099.7538), rotate(0)">
<title>item, id: 3, transf: [r: 0.000°, t: (830.060, 1099.754)]</title>
</use>
<use href="#item_3" transform="translate(0.0030670166 1475.2627), rotate(-90)">
<title>item, id: 3, transf: [r: -90.000°, t: (0.003, 1475.263)]</title>
</use>
<use href="#item_3" transform="translate(859.16907 1499.9717), rotate(-180)">
<title>item, id: 3, transf: [r: -180.000°, t: (859.169, 1499.972)]</title>
</use>
<use href="#item_3" transform="translate(1661.7415 1499.9781), rotate(-180)">
<title>item, id: 3, transf: [r: -180.000°, t: (1661.741, 1499.978)]</title>
</use>
<use href="#item_3" transform="translate(1430.557 1099.7529), rotate(-180)">
<title>item, id: 3, transf: [r: -180.000°, t: (1430.557, 1099.753)]</title>
</use>
<use href="#item_3" transform="translate(1429.8716 1299.8037), rotate(-180)">
<title>item, id: 3, transf: [r: -180.000°, t: (1429.872, 1299.804)]</title>
</use>
<use href="#item_3" transform="translate(3481.8271 799.73425), rotate(90)">
<title>item, id: 3, transf: [r: 90.000°, t: (3481.827, 799.734)]</title>
</use>
<use href="#item_2" transform="translate(2483.408 1002.848), rotate(90)">
<title>item, id: 2, transf: [r: 90.000°, t: (2483.408, 1002.848)]</title>
</use>
<use href="#item_2" transform="translate(3934.9646 200.13898), rotate(90)">
<title>item, id: 2, transf: [r: 90.000°, t: (3934.965, 200.139)]</title>
</use>
<use href="#item_2" transform="translate(378.56876 973.53687), rotate(-180)">
<title>item, id: 2, transf: [r: -180.000°, t: (378.569, 973.537)]</title>
</use>
<use href="#item_2" transform="translate(2848.2222 833.8884), rotate(-90)">
<title>item, id: 2, transf: [r: -90.000°, t: (2848.222, 833.888)]</title>
</use>
<use href="#item_2" transform="translate(4335.134 200.13751), rotate(90)">
<title>item, id: 2, transf: [r: 90.000°, t: (4335.134, 200.138)]</title>
</use>
<use href="#item_2" transform="translate(1200.4017 498.2132), rotate(-90)">
<title>item, id: 2, transf: [r: -90.000°, t: (1200.402, 498.213)]</title>
</use>
<use href="#item_2" transform="translate(3321.7437 782.8402), rotate(90)">
<title>item, id: 2, transf: [r: 90.000°, t: (3321.744, 782.840)]</title>
</use>
<use href="#item_2" transform="translate(351.06006 302.4333), rotate(90)">
<title>item, id: 2, transf: [r: 90.000°, t: (351.060, 302.433)]</title>
</use>
<use href="#item_2" transform="translate(549.98706 310.34), rotate(-90)">
<title>item, id: 2, transf: [r: -90.000°, t: (549.987, 310.340)]</title>
</use>
<use href="#item_2" transform="translate(363.45078 1173.0011), rotate(0)">
<title>item, id: 2, transf: [r: 0.000°, t: (363.451, 1173.001)]</title>
</use>
<use href="#item_2" transform="translate(3988.8162 400.67352), rotate(-90)">
<title>item, id: 2, transf: [r: -90.000°, t: (3988.816, 400.674)]</title>
</use>
<use href="#item_2" transform="translate(3710.825 688.7261), rotate(-90)">
<title>item, id: 2, transf: [r: -90.000°, t: (3710.825, 688.726)]</title>
</use>
<use href="#item_2" transform="translate(4533.2114 200.25632), rotate(-90)">
<title>item, id: 2, transf: [r: -90.000°, t: (4533.211, 200.256)]</title>
</use>
<use href="#item_2" transform="translate(2940.782 200.14514), rotate(0)">
<title>item, id: 2, transf: [r: 0.000°, t: (2940.782, 200.145)]</title>
</use>
<use href="#item_2" transform="translate(1200.382 300.39365), rotate(90)">
<title>item, id: 2, transf: [r: 90.000°, t: (1200.382, 300.394)]</title>
</use>
<use href="#item_4" transform="translate(3268.7424 1283.3983), rotate(-180)">
<title>item, id: 4, transf: [r: -180.000°, t: (3268.742, 1283.398)]</title>
</use>
<use href="#item_4" transform="translate(3571.9707 521.0724), rotate(-180)">
<title>item, id: 4, transf: [r: -180.000°, t: (3571.971, 521.072)]</title>
</use>
<use href="#item_4" transform="translate(1747.5795 1035.4528), rotate(0)">
<title>item, id: 4, transf: [r: 0.000°, t: (1747.579, 1035.453)]</title>
</use>
<use href="#item_4" transform="translate(2936.5525 1194.1537), rotate(0)">
<title>item, id: 4, transf: [r: 0.000°, t: (2936.552, 1194.154)]</title>
</use>
<use href="#item_4" transform="translate(4283.3135 399.3117), rotate(0)">
<title>item, id: 4, transf: [r: 0.000°, t: (4283.313, 399.312)]</title>
</use>
<use href="#item_4" transform="translate(2366.7773 1049.6211), rotate(90)">
<title>item, id: 4, transf: [r: 90.000°, t: (2366.777, 1049.621)]</title>
</use>
<use href="#item_4" transform="translate(4557.4067 735.23035), rotate(-180)">
<title>item, id: 4, transf: [r: -180.000°, t: (4557.407, 735.230)]</title>
</use>
<use href="#item_4" transform="translate(3241.2456 432.7032), rotate(0)">
<title>item, id: 4, transf: [r: 0.000°, t: (3241.246, 432.703)]</title>
</use>
<use href="#item_4" transform="translate(2971.3816 870.5897), rotate(-90)">
<title>item, id: 4, transf: [r: -90.000°, t: (2971.382, 870.590)]</title>
</use>
<use href="#item_4" transform="translate(4359.964 885.6759), rotate(-180)">
<title>item, id: 4, transf: [r: -180.000°, t: (4359.964, 885.676)]</title>
</use>
<use href="#item_4" transform="translate(2067.632 1128.6616), rotate(-180)">
<title>item, id: 4, transf: [r: -180.000°, t: (2067.632, 1128.662)]</title>
</use>
<use href="#item_4" transform="translate(1835.4475 822.9771), rotate(0)">
<title>item, id: 4, transf: [r: 0.000°, t: (1835.448, 822.977)]</title>
</use>
<use href="#item_4" transform="translate(1980.138 1343.548), rotate(-180)">
<title>item, id: 4, transf: [r: -180.000°, t: (1980.138, 1343.548)]</title>
</use>
<use href="#item_4" transform="translate(3168.9568 1499.9142), rotate(-180)">
<title>item, id: 4, transf: [r: -180.000°, t: (3168.957, 1499.914)]</title>
</use>
<use href="#item_4" transform="translate(2568.7373 1454.8649), rotate(-90)">
<title>item, id: 4, transf: [r: -90.000°, t: (2568.737, 1454.865)]</title>
</use>
<use href="#item_4" transform="translate(3311.628 200.0708), rotate(0)">
<title>item, id: 4, transf: [r: 0.000°, t: (3311.628, 200.071)]</title>
</use>
<use href="#item_4" transform="translate(1661.9957 1249.9929), rotate(0)">
<title>item, id: 4, transf: [r: 0.000°, t: (1661.996, 1249.993)]</title>
</use>
<use href="#item_4" transform="translate(2633.4275 1048.9973), rotate(90)">
<title>item, id: 4, transf: [r: 90.000°, t: (2633.427, 1048.997)]</title>
</use>
<use href="#item_4" transform="translate(2698.2085 827.65125), rotate(-90)">
<title>item, id: 4, transf: [r: -90.000°, t: (2698.208, 827.651)]</title>
</use>
<use href="#item_4" transform="translate(3431.7095 1133.3674), rotate(-180)">
<title>item, id: 4, transf: [r: -180.000°, t: (3431.709, 1133.367)]</title>
</use>
</g>
<g id="quality_zones"/>
<g id="optionals">
<g id="highlight_cd_shapes">
<use href="#cd_shape_0" transform="translate(0.012207031 719.06683), rotate(-90)"/>
<use href="#cd_shape_0" transform="translate(950.23773 615.8753), rotate(-180)"/>
<use href="#cd_shape_0" transform="translate(50.116013 0.21713257), rotate(0)"/>
<use href="#cd_shape_0" transform="translate(628.8525 719.30145), rotate(90)"/>
<use href="#cd_shape_0" transform="translate(100.15178 50.71022), rotate(0)"/>
<use href="#cd_shape_0" transform="translate(850.2288 0.067611694), rotate(0)"/>
<use href="#cd_shape_0" transform="translate(1000.25494 666.0429), rotate(-180)"/>
<use href="#cd_shape_0" transform="translate(1500.6172 798.8647), rotate(-180)"/>
<use href="#cd_shape_0" transform="translate(850.19855 565.68884), rotate(-180)"/>
<use href="#cd_shape_0" transform="translate(4332.8813 1499.9684), rotate(-180)"/>
<use href="#cd_shape_0" transform="translate(1500.6235 851.2072), rotate(-90)"/>
<use href="#cd_shape_0" transform="translate(679.8501 849.39276), rotate(0)"/>
<use href="#cd_shape_0" transform="translate(629.83093 798.8984), rotate(0)"/>
<use href="#cd_shape_0" transform="translate(1600.6307 50.243668), rotate(90)"/>
<use href="#cd_shape_0" transform="translate(1450.561 748.4383), rotate(-180)"/>
<use href="#cd_shape_1" transform="translate(3871.558 1214.3975), rotate(0)"/>
<use href="#cd_shape_1" transform="translate(1836.4185 389.57208), rotate(90)"/>
<use href="#cd_shape_1" transform="translate(3872.347 994.83374), rotate(0)"/>
<use href="#cd_shape_1" transform="translate(2495.4602 392.18054), rotate(90)"/>
<use href="#cd_shape_1" transform="translate(1946.1779 389.8417), rotate(90)"/>
<use href="#cd_shape_1" transform="translate(2605.3674 392.8099), rotate(90)"/>
<use href="#cd_shape_1" transform="translate(2275.7969 391.33734), rotate(90)"/>
<use href="#cd_shape_1" transform="translate(2056.1145 390.2257), rotate(90)"/>
<use href="#cd_shape_1" transform="translate(3871.8694 1104.6509), rotate(0)"/>
<use href="#cd_shape_1" transform="translate(1726.4413 389.72098), rotate(90)"/>
<use href="#cd_shape_1" transform="translate(2385.5708 391.75864), rotate(90)"/>
<use href="#cd_shape_1" transform="translate(3871.3188 1324.145), rotate(0)"/>
<use href="#cd_shape_1" transform="translate(2166.0437 391.01712), rotate(90)"/>
<use href="#cd_shape_1" transform="translate(3872.623 885.1141), rotate(0)"/>
<use href="#cd_shape_1" transform="translate(2715.1907 392.91806), rotate(90)"/>
<use href="#cd_shape_3" transform="translate(4733.33 789.00366), rotate(90)"/>
<use href="#cd_shape_3" transform="translate(4533.2554 694.84766), rotate(90)"/>
<use href="#cd_shape_3" transform="translate(901.583 899.7351), rotate(0)"/>
<use href="#cd_shape_3" transform="translate(3041.0679 0.04131317), rotate(0)"/>
<use href="#cd_shape_3" transform="translate(4533.31 1353.1128), rotate(-90)"/>
<use href="#cd_shape_3" transform="translate(860.2306 1299.8923), rotate(0)"/>
<use href="#cd_shape_3" transform="translate(3640.8755 200.06488), rotate(-180)"/>
<use href="#cd_shape_3" transform="translate(4333.1367 1498.0421), rotate(-90)"/>
<use href="#cd_shape_3" transform="translate(830.0596 1099.7538), rotate(0)"/>
<use href="#cd_shape_3" transform="translate(0.0030670166 1475.2627), rotate(-90)"/>
<use href="#cd_shape_3" transform="translate(859.16907 1499.9717), rotate(-180)"/>
<use href="#cd_shape_3" transform="translate(1661.7415 1499.9781), rotate(-180)"/>
<use href="#cd_shape_3" transform="translate(1430.557 1099.7529), rotate(-180)"/>
<use href="#cd_shape_3" transform="translate(1429.8716 1299.8037), rotate(-180)"/>
<use href="#cd_shape_3" transform="translate(3481.8271 799.73425), rotate(90)"/>
<use href="#cd_shape_2" transform="translate(2483.408 1002.848), rotate(90)"/>
<use href="#cd_shape_2" transform="translate(3934.9646 200.13898), rotate(90)"/>
<use href="#cd_shape_2" transform="translate(378.56876 973.53687), rotate(-180)"/>
<use href="#cd_shape_2" transform="translate(2848.2222 833.8884), rotate(-90)"/>
<use href="#cd_shape_2" transform="translate(4335.134 200.13751), rotate(90)"/>
<use href="#cd_shape_2" transform="translate(1200.4017 498.2132), rotate(-90)"/>
<use href="#cd_shape_2" transform="translate(3321.7437 782.8402), rotate(90)"/>
<use href="#cd_shape_2" transform="translate(351.06006 302.4333), rotate(90)"/>
<use href="#cd_shape_2" transform="translate(549.98706 310.34), rotate(-90)"/>
<use href="#cd_shape_2" transform="translate(363.45078 1173.0011), rotate(0)"/>
<use href="#cd_shape_2" transform="translate(3988.8162 400.67352), rotate(-90)"/>
<use href="#cd_shape_2" transform="translate(3710.825 688.7261), rotate(-90)"/>
<use href="#cd_shape_2" transform="translate(4533.2114 200.25632), rotate(-90)"/>
<use href="#cd_shape_2" transform="translate(2940.782 200.14514), rotate(0)"/>
<use href="#cd_shape_2" transform="translate(1200.382 300.39365), rotate(90)"/>
<use href="#cd_shape_4" transform="translate(3268.7424 1283.3983), rotate(-180)"/>
<use href="#cd_shape_4" transform="translate(3571.9707 521.0724), rotate(-180)"/>
<use href="#cd_shape_4" transform="translate(1747.5795 1035.4528), rotate(0)"/>
<use href="#cd_shape_4" transform="translate(2936.5525 1194.1537), rotate(0)"/>
<use href="#cd_shape_4" transform="translate(4283.3135 399.3117), rotate(0)"/>
<use href="#cd_shape_4" transform="translate(2366.7773 1049.6211), rotate(90)"/>
<use href="#cd_shape_4" transform="translate(4557.4067 735.23035), rotate(-180)"/>
<use href="#cd_shape_4" transform="translate(3241.2456 432.7032), rotate(0)"/>
<use href="#cd_shape_4" transform="translate(2971.3816 870.5897), rotate(-90)"/>
<use href="#cd_shape_4" transform="translate(4359.964 885.6759), rotate(-180)"/>
<use href="#cd_shape_4" transform="translate(2067.632 1128.6616), rotate(-180)"/>
<use href="#cd_shape_4" transform="translate(1835.4475 822.9771), rotate(0)"/>
<use href="#cd_shape_4" transform="translate(1980.138 1343.548), rotate(-180)"/>
<use href="#cd_shape_4" transform="translate(3168.9568 1499.9142), rotate(-180)"/>
<use href="#cd_shape_4" transform="translate(2568.7373 1454.8649), rotate(-90)"/>
<use href="#cd_shape_4" transform="translate(3311.628 200.0708), rotate(0)"/>
<use href="#cd_shape_4" transform="translate(1661.9957 1249.9929), rotate(0)"/>
<use href="#cd_shape_4" transform="translate(2633.4275 1048.9973), rotate(90)"/>
<use href="#cd_shape_4" transform="translate(2698.2085 827.65125), rotate(-90)"/>
<use href="#cd_shape_4" transform="translate(3431.7095 1133.3674), rotate(-180)"/>
<path d="M0,0 L4733.3403,0 L4733.3403,1500 L0,1500 z" fill="none" stroke="black" stroke-dasharray="4.125 8.25" stroke-linecap="round" stroke-linejoin="round" stroke-opacity="0.3" stroke-width="2.0625"/>
</g>
<g id="surrogates">
<defs/>
</g>
<g id="collision_lines"/>
</g>
<text font-family="monospace" font-size="37.5" font-weight="500" x="0" y="-18.75">
h: 1500.000 | w: 4733.340 | d: 79.924% | final_best
</text>
</svg>