<svg viewBox="-84.8401 -127.50003 1866.4818 2805" xmlns="http://www.w3.org/2000/svg" xmlns:xlink="http://www.w3.org/1999/xlink">
<g id="bin_0">
<path d="M0,0 L1696.8016,0 L1696.8016,2550 L0,2550 z" fill="#D3D3D3" stroke="black" stroke-width="9.33241"/>
<title>bin, id: 0, bbox: [x_min: 0.000, y_min: 0.000, x_max: 1696.802, y_max: 2550.000]</title>
</g>
<g id="items">
<defs>
<g id="item_0">
<path d="M10,115 L478,113 L727,21 L856,44 L930,47 L1049,0 L1097,295 L1078,396 L0,407 z" fill="#7A7A7A" fill-opacity="0.5" fill-rule="nonzero" stroke="black" stroke-width="4.666205"/>
</g>
<g id="item_1">
<path d="M0,0 L316,2 L316,274 L0,275 z" fill="#7A7A7A" fill-opacity="0.5" fill-rule="nonzero" stroke="black" stroke-width="4.666205"/>
</g>
<g id="item_2">
<path d="M0,1 L239,0 L242,80 L0,78 z" fill="#7A7A7A" fill-opacity="0.5" fill-rule="nonzero" stroke="black" stroke-width="4.666205"/>
</g>
<g id="item_3">
<path d="M0,310 L0,119 L384,0 L384,70 L759,69 L758,310 z" fill="#7A7A7A" fill-opacity="0.5" fill-rule="nonzero" stroke="black" stroke-width="4.666205"/>
</g>
<g id="item_4">
<path d="M0,252 L0,75 L150,0 L148,175 z" fill="#7A7A7A" fill-opacity="0.5" fill-rule="nonzero" stroke="black" stroke-width="4.666205"/>
</g>
<g id="item_5">
<path d="M852,412 L503,414 L387,451 L355,505 L300,451 L45,325 L0,221 L0,154 L55,53 L145,16 L329,25 L407,35 L539,38 L597,51 L668,20 L736,0 L784,3 L849,194 z" fill="#7A7A7A" fill-opacity="0.5" fill-rule="nonzero" stroke="black" stroke-width="4.666205"/>
</g>
<g id="item_6">
<path d="M0,232 L827,0 L894,20 L975,258 L1097,260 L1003,500 L884,463 L845,453 L761,490 L732,547 L694,544 L616,477 L539,414 L0,426 z" fill="#7A7A7A" fill-opacity="0.5" fill-rule="nonzero" stroke="black" stroke-width="4.666205"/>
</g>
<g id="item_7">
<path d="M151,427 L97,266 L0,259 L75,28 L126,21 L191,61 L271,50 L316,64 L359,10 L436,6 L442,43 L694,75 L726,42 L1091,0 L1094,211 L1033,208 L987,346 L926,393 z" fill="#7A7A7A" fill-opacity="0.5" fill-rule="nonzero" stroke="black" stroke-width="4.666205"/>
</g>
<g id="item_8">
<path d="M0,0 L745,24 L619,196 L590,276 L522,260 L6,282 z" fill="#7A7A7A" fill-opacity="0.5" fill-rule="nonzero" stroke="black" stroke-width="4.666205"/>
</g>
</defs>
<use transform="translate(1390.0093 1224.7135), rotate(-180)" xlink:href="#item_6">
<title>item, id: 6, transf: [r: -180.000°, t: (1390.009, 1224.714)]</title>
</use>
<use transform="translate(557.9137 994.2001), rotate(0)" xlink:href="#item_6">
<title>item, id: 6, transf: [r: 0.000°, t: (557.914, 994.200)]</title>
</use>
<use transform="translate(1695.1271 1455.8552), rotate(90)" xlink:href="#item_7">
<title>item, id: 7, transf: [r: 90.000°, t: (1695.127, 1455.855)]</title>
</use>
<use transform="translate(875.3282 2540.4297), rotate(-90)" xlink:href="#item_7">
<title>item, id: 7, transf: [r: -90.000°, t: (875.328, 2540.430)]</title>
</use>
<use transform="translate(407.00092 720.99365), rotate(90)" xlink:href="#item_0">
<title>item, id: 0, transf: [r: 90.000°, t: (407.001, 720.994)]</title>
</use>
<use transform="translate(478.8296 2547.9856), rotate(-90)" xlink:href="#item_0">
<title>item, id: 0, transf: [r: -90.000°, t: (478.830, 2547.986)]</title>
</use>
<use transform="translate(2.6223145 261.68457), rotate(0)" xlink:href="#item_5">
<title>item, id: 5, transf: [r: 0.000°, t: (2.622, 261.685)]</title>
</use>
<use transform="translate(838.74524 0.0004119873), rotate(0)" xlink:href="#item_5">
<title>item, id: 5, transf: [r: 0.000°, t: (838.745, 0.000)]</title>
</use>
<use transform="translate(592.14954 1790.3157), rotate(90)" xlink:href="#item_3">
<title>item, id: 3, transf: [r: 90.000°, t: (592.150, 1790.316)]</title>
</use>
<use transform="translate(1386.7979 1172.3477), rotate(-90)" xlink:href="#item_3">
<title>item, id: 3, transf: [r: -90.000°, t: (1386.798, 1172.348)]</title>
</use>
<use transform="translate(0.0020751953 0.22080994), rotate(0)" xlink:href="#item_8">
<title>item, id: 8, transf: [r: 0.000°, t: (0.002, 0.221)]</title>
</use>
<use transform="translate(0.0029449463 2549.9917), rotate(-90)" xlink:href="#item_8">
<title>item, id: 8, transf: [r: -90.000°, t: (0.003, 2549.992)]</title>
</use>
<use transform="translate(1129.2174 484.1017), rotate(90)" xlink:href="#item_1">
<title>item, id: 1, transf: [r: 90.000°, t: (1129.217, 484.102)]</title>
</use>
<use transform="translate(1135.6617 511.4482), rotate(0)" xlink:href="#item_1">
<title>item, id: 1, transf: [r: 0.000°, t: (1135.662, 511.448)]</title>
</use>
<use transform="translate(549.68896 1535.5284), rotate(-180)" xlink:href="#item_4">
<title>item, id: 4, transf: [r: -180.000°, t: (549.689, 1535.528)]</title>
</use>
<use transform="translate(838.468 275.72806), rotate(-180)" xlink:href="#item_4">
<title>item, id: 4, transf: [r: -180.000°, t: (838.468, 275.728)]</title>
</use>
<use transform="translate(379.1413 969.80835), rotate(90)" xlink:href="#item_2">
<title>item, id: 2, transf: [r: 90.000°, t: (379.141, 969.808)]</title>
</use>
<use transform="translate(1384.9331 2549.9946), rotate(-180)" xlink:href="#item_2">
<title>item, id: 2, transf: [r: -180.000°, t: (1384.933, 2549.995)]</title>
</use>
<use transform="translate(487.41516 1545.0212), rotate(90)" xlink:href="#item_2">
<title>item, id: 2, transf: [r: 90.000°, t: (487.415, 1545.021)]</title>
</use>
<use transform="translate(458.4904 1091.9441), rotate(90)" xlink:href="#item_2">
<title>item, id: 2, transf: [r: 90.000°, t: (458.490, 1091.944)]</title>
</use>
</g>
<g id="quality_zones"/>
<g id="optionals">
<g id="overlap_lines" transform="translate(0 0), rotate(0)"/>
</g>
<text font-family="monospace" font-size="42.42004" font-weight="500" x="0" y="-21.21002">
height: 2550.000 | width: 1696.802 | usage: 86.867% | final_best
</text>
</svg>