<svg viewBox="-2369.143 -500.00012 52121.137 11000" xmlns="http://www.w3.org/2000/svg">
<g id="container_0">
<path d="M0,0 L47382.848,0 L47382.848,10000 L0,10000 z" fill="#D3D3D3" stroke="black" stroke-width="55.000004"/>
<title>container, id: 0, bbox: [x_min: 0.000, y_min: 0.000, x_max: 47382.848, y_max: 10000.000]</title>
</g>
<g id="items">
<defs>
<g id="item_0">
<path d="M1074,1726 L976,1726 L879,1722 L684,1711 L490,1696 L295,1679 L0,1649 L29,1403 L45,1257 L58,1112 L70,966 L82,804 L92,641 L101,479 L111,232 L1136,86 L1722,0 L1813,5 L1896,13 L1960,22 L2024,35 L2071,47 L2077,49 L2119,64 L2125,67 L2161,84 L2167,86 L2204,108 L2209,111 L2213,115 L2232,129 L2251,146 L2270,164 L2287,183 L2304,204 L2319,226 L2333,249 L2357,294 L2369,320 L2381,348 L2400,406 L2409,439 L2417,472 L2423,506 L2427,531 L2431,577 L2432,623 L2430,669 L2424,720 L2415,775 L2403,829 L2388,882 L2366,950 L2350,994 L2336,1026 L2322,1056 L2319,1063 L2297,1098 L2274,1131 L2240,1178 L2206,1219 L2097,1370 L2087,1385 L2072,1410 L2063,1428 L2058,1443 L2054,1455 L2025,1645 L1655,1691 L1603,1697 L1483,1708 L1409,1713 L1171,1724 z" fill="#7A7A7A" fill-opacity="0.5" fill-rule="nonzero" stroke="black" stroke-width="27.500002"/>
</g>
<g id="cd_shape_0">
<path d="M1127.7272,1726 L949.90906,1726 L684,1711 L373.8781,1687.0215 L0,1649 L45,1257 L82,804 L101,479 L111,232 L1136,86 L1737.5098,-2.276184 L1933.4744,16.612 L2110.9211,52.655823 L2222.5,119 L2305.709,197.82953 L2373.3574,324.6703 L2411.604,441.42255 L2434.3022,570.04663 L2429.1514,688.5197 L2407.204,822.64197 L2354.2925,986.18744 L2308.29,1086.31 L2097,1370 L2054,1455 L2025,1645 L1518.8994,1707.9207 z" fill="none" stroke="black" stroke-dasharray="27.500002 55.000004" stroke-linecap="round" stroke-linejoin="round" stroke-opacity="0.3" stroke-width="13.750001"/>
</g>
<g id="item_1">
<path d="M1119,10726 L935,10297 L910,10239 L885,10179 L817,10003 L749,9826 L723,9753 L673,9606 L625,9458 L517,9102 L477,8964 L439,8824 L402,8685 L367,8545 L333,8405 L304,8277 L276,8149 L250,8021 L225,7893 L197,7744 L172,7594 L148,7444 L125,7293 L105,7143 L86,6992 L69,6841 L54,6690 L41,6545 L30,6400 L20,6255 L13,6110 L7,5965 L3,5820 L0,5675 L0,5530 L0,5385 L2,5240 L6,5095 L11,4950 L19,4805 L28,4660 L38,4515 L51,4370 L66,4217 L82,4065 L101,3912 L121,3760 L142,3608 L166,3456 L191,3304 L218,3152 L243,3030 L269,2908 L296,2787 L324,2666 L357,2529 L392,2393 L427,2256 L464,2119 L525,1906 L590,1696 L638,1547 L688,1397 L740,1249 L794,1101 L860,930 L928,760 L1006,575 L1074,420 L1119,320 L1165,221 L1220,110 L1276,0 L1910,316 L1874,391 L1801,544 L1731,697 L1663,852 L1598,1004 L1537,1153 L1479,1303 L1422,1454 L1360,1629 L1326,1727 L1294,1826 L1229,2031 L1197,2135 L1166,2240 L1137,2345 L1108,2451 L1080,2557 L1054,2663 L1009,2850 L973,3011 L939,3172 L907,3334 L878,3496 L850,3659 L825,3822 L803,3985 L782,4149 L764,4313 L748,4477 L734,4641 L723,4806 L714,4971 L707,5135 L702,5300 L700,5454 L701,5673 L704,5820 L709,5967 L715,6114 L724,6260 L734,6407 L746,6554 L759,6700 L768,6782 L787,6946 L807,7110 L831,7273 L856,7436 L884,7599 L914,7761 L946,7923 L990,8128 L1018,8251 L1048,8375 L1079,8498 L1111,8621 L1145,8743 L1180,8865 L1216,8987 L1272,9169 L1331,9349 L1392,9529 L1457,9707 L1528,9890 L1601,10072 L1678,10253 L1757,10431 z" fill="#7A7A7A" fill-opacity="0.5" fill-rule="nonzero" stroke="black" stroke-width="27.500002"/>
</g>
<g id="cd_shape_1">
<path d="M1119,10726 L888.53467,10189.201 L738.79407,9799.435 L644.3097,9521.65 L492.84924,9022.392 L410.5,8719 L342.66666,8447.666 L284.66675,8191.667 L211.92896,7833.573 L137.66693,7388.002 L92.148926,7046.617 L61.82068,6777.2305 L36.666687,6496.6665 L17.5,6218.75 L0,5795.8335 L0,5269.001 L14,4863 L44.400085,4422.199 L92.04205,3969.6006 L159.5,3481.333 L231.4515,3076.2732 L330.56662,2632.09 L446.11646,2181.4458 L525,1906 L611.6667,1626 L740.22266,1240.332 L899.78723,826.91504 L1059.748,447.5205 L1180.7767,187.0459 L1276,0 L1910,316 L1801,544 L1731,697 L1598,1004 L1537,1153 L1422,1454 L1326,1727 L1229,2031 L1166,2240 L1080,2557 L1009,2850 L939,3172 L907,3334 L850,3659 L825,3822 L782,4149 L748,4477 L723,4806 L707,5135 L700,5454 L704,5820 L715,6114 L734,6407 L759,6700 L807,7110 L856,7436 L884,7599 L946,7923 L990,8128 L1048,8375 L1111,8621 L1216,8987 L1272,9169 L1392,9529 L1457,9707 L1601,10072 L1757,10431 z" fill="none" stroke="black" stroke-dasharray="27.500002 55.000004" stroke-linecap="round" stroke-linejoin="round" stroke-opacity="0.3" stroke-width="13.750001"/>
</g>
<g id="item_2">
<path d="M2,504 L0,502 L0,2 L2,0 L1656,0 L1658,2 L1658,502 L1656,504 z" fill="#7A7A7A" fill-opacity="0.5" fill-rule="nonzero" stroke="black" stroke-width="27.500002"/>
</g>
<g id="cd_shape_2">
<path d="M0,504 L0,0 L1658,0 L1658,504 z" fill="none" stroke="black" stroke-dasharray="27.500002 55.000004" stroke-linecap="round" stroke-linejoin="round" stroke-opacity="0.3" stroke-width="13.750001"/>
</g>
<g id="item_3">
<path d="M2672,4710 L2580,4487 L2565,4455 L2547,4424 L2528,4394 L2507,4367 L2485,4342 L2461,4318 L2435,4295 L2379,4252 L2321,4209 L2260,4168 L2199,4130 L2137,4094 L2074,4061 L2010,4030 L1940,3999 L1718,3891 L0,3220 L453,70 L587,53 L659,45 L731,39 L803,35 L1085,24 L1366,15 L1647,7 L1928,1 L2297,0 L2661,2 L6396,2 L6396,3719 L5296,3719 L4924,3803 L4577,3929 L4237,4065 L3895,4204 L3353,4427 z" fill="#7A7A7A" fill-opacity="0.5" fill-rule="nonzero" stroke="black" stroke-width="27.500002"/>
</g>
<g id="cd_shape_3">
<path d="M2672,4710 L2528,4394 L2137,4094 L1940,3999 L1718,3891 L0,3220 L457.18872,40.873535 L1958.253,-1.861206 L2661,2 L6396,2 L6396,3719 L5296,3719 L4924,3803 L4577,3929 z" fill="none" stroke="black" stroke-dasharray="27.500002 55.000004" stroke-linecap="round" stroke-linejoin="round" stroke-opacity="0.3" stroke-width="13.750001"/>
</g>
<g id="item_4">
<path d="M3995,2722 L48,2718 L33,2547 L1,2280 L0,2268 L1,2256 L25,2066 L34,1986 L48,1818 L53,1731 L59,1547 L59,1175 L53,991 L48,904 L34,735 L30,696 L1,466 L0,454 L1,442 L33,175 L48,4 L3995,0 L3993,449 L4006,838 L4007,970 L4009,1230 L4010,1361 L4006,1882 L4004,1971 L3993,2273 z" fill="#7A7A7A" fill-opacity="0.5" fill-rule="nonzero" stroke="black" stroke-width="27.500002"/>
</g>
<g id="cd_shape_4">
<path d="M3995,2722 L48,2718 L-0.47595215,2267.6846 L34,1986 L59,1547 L48,904 L-0.47460938,454.30444 L48,4 L3995,0 L3993,449 L4012.518,1033.0353 L4005.6685,1925.1958 z" fill="none" stroke="black" stroke-dasharray="27.500002 55.000004" stroke-linecap="round" stroke-linejoin="round" stroke-opacity="0.3" stroke-width="13.750001"/>
</g>
<g id="item_5">
<path d="M0,2000 L24,1547 L37,1116 L43,1041 L48,967 L55,892 L62,817 L68,765 L74,712 L81,660 L89,608 L95,570 L103,532 L112,495 L123,458 L135,421 L149,385 L164,350 L180,315 L193,292 L206,270 L221,249 L237,229 L254,209 L272,191 L291,174 L311,158 L335,138 L359,121 L385,104 L411,89 L438,75 L466,63 L494,53 L523,44 L566,32 L609,23 L652,15 L696,9 L740,4 L784,2 L828,0 L872,1 L1440,30 L1440,322 L1433,1764 L995,1875 L912,1893 L831,1910 L740,1927 L647,1943 L531,1956 L418,1968 L284,1981 L149,1992 z" fill="#7A7A7A" fill-opacity="0.5" fill-rule="nonzero" stroke="black" stroke-width="27.500002"/>
</g>
<g id="cd_shape_5">
<path d="M0,2000 L24,1547 L37,1116 L61.12909,789.16077 L102.219604,522.0729 L143.44183,394.97107 L198.73438,274.0185 L267.194,193.4776 L367.01126,111.80902 L490.42056,47.81897 L688.6195,6.335449 L840.9154,-0.58703613 L1441.4171,30.072327 L1433,1764 L929.5067,1891.5977 L631.299,1947.3069 L197.40338,1989.4011 z" fill="none" stroke="black" stroke-dasharray="27.500002 55.000004" stroke-linecap="round" stroke-linejoin="round" stroke-opacity="0.3" stroke-width="13.750001"/>
</g>
<g id="item_6">
<path d="M5398,6002 L5319,5982 L5063,5916 L4805,5855 L4577,5804 L4217,5729 L4102,5706 L3978,5683 L3855,5660 L3734,5639 L3614,5619 L3493,5601 L3374,5583 L2970,5544 L2738,5546 L2501,5552 L2220,5563 L1939,5577 L1481,5603 L604,5648 L593,5644 L589,5633 L580,5507 L575,5472 L570,5437 L563,5402 L555,5368 L545,5334 L535,5301 L526,5278 L510,5239 L493,5200 L475,5163 L455,5125 L434,5089 L412,5053 L389,5018 L362,4981 L266,4834 L174,4689 L169,4681 L166,4674 L141,4614 L114,4543 L95,4483 L78,4424 L49,4294 L37,4218 L28,4144 L22,4084 L19,4024 L12,3881 L0,3001 L12,2121 L22,1918 L28,1858 L37,1784 L49,1708 L78,1578 L95,1519 L114,1459 L141,1388 L166,1328 L169,1320 L174,1313 L267,1166 L362,1021 L389,984 L412,949 L434,913 L455,876 L475,839 L493,801 L510,763 L526,724 L535,701 L545,668 L555,634 L563,600 L570,565 L575,530 L580,495 L589,369 L593,358 L604,354 L1481,399 L2079,433 L2361,445 L2620,453 L2856,457 L2970,457 L3374,419 L3493,401 L3613,383 L3734,363 L3854,342 L3978,319 L4101,296 L4224,271 L4577,198 L4805,147 L5063,86 L5319,20 L5398,0 L5409,4 L5413,15 L5468,219 L5479,250 L5496,289 L5516,328 L5537,363 L5547,378 L5567,406 L5588,433 L5611,458 L5634,482 L5671,514 L5709,543 L5737,561 L5764,576 L5794,587 L5831,599 L5858,606 L5883,610 L5962,616 L6112,632 L6340,640 L6570,646 L6744,648 L6908,649 L7009,636 L7020,640 L7024,651 L7051,873 L7067,1012 L7082,1152 L7095,1292 L7104,1396 L7111,1500 L7117,1604 L7122,1708 L7127,2073 L7130,3001 L7127,3930 L7122,4294 L7117,4399 L7111,4503 L7104,4607 L7095,4711 L7082,4851 L7067,4990 L7051,5130 L7024,5350 L7020,5361 L7009,5365 L6908,5353 L6745,5353 L6571,5356 L6341,5362 L6112,5370 L5962,5386 L5883,5391 L5858,5396 L5831,5402 L5794,5414 L5764,5426 L5737,5440 L5709,5459 L5671,5488 L5634,5520 L5611,5543 L5588,5569 L5567,5596 L5547,5624 L5527,5655 L5506,5693 L5487,5733 L5474,5767 L5462,5804 L5413,5987 L5409,5998 z" fill="#7A7A7A" fill-opacity="0.5" fill-rule="nonzero" stroke="black" stroke-width="27.500002"/>
</g>
<g id="cd_shape_6">
<path d="M5408.1826,6004.992 L5063,5916 L4577,5804 L3855,5660 L3374,5583 L2970,5544 L2501,5552 L590.1223,5648.712 L555,5368 L493,5200 L116.659424,4597.3 L15.5896,4144.23 L0,3001 L15.589355,1857.7717 L96.01172,1497.2567 L179.23096,1295.1537 L434,913 L535,701 L580,495 L590.1223,353.28784 L1481,399 L2079,433 L2620,453 L2970,457 L3374,419 L3854,342 L4577,198 L5063,86 L5408.1514,-2.984375 L5468,219 L5537,363 L5634,482 L5764,576 L6112,632 L6908,649 L7021.9727,634.3303 L7072.534,1050.057 L7125.538,1620.8771 L7130,3001 L7125.54,4382.106 L7071.925,4959.504 L7021.9697,5366.541 L6745,5353 L6112,5370 L5831,5402 L5737,5440 L5634,5520 L5487,5733 z" fill="none" stroke="black" stroke-dasharray="27.500002 55.000004" stroke-linecap="round" stroke-linejoin="round" stroke-opacity="0.3" stroke-width="13.750001"/>
</g>
<g id="item_7">
<path d="M462,4940 L8,4940 L0,4932 L0,8 L8,0 L462,0 L470,8 L470,4932 z" fill="#7A7A7A" fill-opacity="0.5" fill-rule="nonzero" stroke="black" stroke-width="27.500002"/>
</g>
<g id="cd_shape_7">
<path d="M470,4940 L0,4940 L0,0 L470,0 z" fill="none" stroke="black" stroke-dasharray="27.500002 55.000004" stroke-linecap="round" stroke-linejoin="round" stroke-opacity="0.3" stroke-width="13.750001"/>
</g>
<g id="item_8">
<path d="M0,2108 L0,0 L1016,0 L1016,2108 z" fill="#7A7A7A" fill-opacity="0.5" fill-rule="nonzero" stroke="black" stroke-width="27.500002"/>
</g>
<g id="cd_shape_8">
<path d="M0,2108 L0,0 L1016,0 L1016,2108 z" fill="none" stroke="black" stroke-dasharray="27.500002 55.000004" stroke-linecap="round" stroke-linejoin="round" stroke-opacity="0.3" stroke-width="13.750001"/>
</g>
<g id="item_9">
<path d="M937,1363 L935,1364 L941,1407 L936,1412 L887,1421 L882,1416 L874,1368 L837,1366 L835,1366 L832,1366 L782,1361 L779,1361 L777,1360 L726,1352 L724,1351 L721,1351 L672,1339 L669,1339 L667,1338 L614,1322 L612,1321 L610,1320 L557,1301 L555,1300 L553,1299 L502,1276 L500,1275 L498,1274 L449,1249 L447,1248 L446,1247 L416,1229 L413,1227 L385,1209 L382,1207 L355,1186 L352,1184 L325,1163 L323,1161 L297,1138 L295,1136 L271,1112 L266,1107 L263,1105 L240,1080 L238,1077 L216,1051 L214,1049 L187,1015 L186,1012 L160,977 L159,975 L134,938 L133,936 L110,899 L109,897 L88,859 L86,856 L66,818 L65,815 L47,776 L46,773 L29,733 L0,665 L5,660 L70,634 L71,631 L83,612 L94,591 L104,569 L113,545 L116,539 L119,534 L154,479 L155,477 L192,424 L193,422 L232,371 L234,368 L275,319 L277,317 L316,273 L318,271 L359,229 L364,224 L366,222 L409,182 L412,180 L456,142 L461,138 L466,135 L506,112 L509,110 L512,109 L553,90 L556,88 L559,87 L605,70 L607,69 L610,68 L630,63 L619,17 L624,12 L672,0 L677,5 L688,47 L716,40 L719,40 L776,29 L778,28 L780,28 L814,23 L817,23 L820,22 L855,20 L857,20 L860,20 L904,20 L906,20 L908,20 L952,23 L954,23 L956,23 L1000,29 L1002,29 L1004,29 L1047,37 L1049,38 L1051,38 L1099,49 L1102,50 L1149,64 L1153,65 L1199,82 L1203,83 L1248,102 L1252,104 L1257,106 L1336,153 L1338,154 L1360,168 L1362,169 L1383,184 L1386,186 L1406,201 L1408,203 L1428,219 L1430,221 L1449,238 L1451,240 L1470,258 L1476,264 L1494,284 L1496,285 L1497,287 L1548,347 L1549,349 L1582,391 L1615,434 L1647,478 L1678,523 L1708,568 L1737,614 L1765,660 L1788,698 L1764,734 L1742,766 L1740,770 L1717,801 L1715,803 L1674,852 L1673,854 L1646,884 L1679,912 L1684,917 L1651,955 L1646,960 L1610,929 L1595,948 L1555,997 L1553,999 L1525,1032 L1523,1034 L1472,1089 L1470,1090 L1465,1095 L1443,1117 L1441,1119 L1418,1140 L1416,1142 L1393,1162 L1391,1164 L1367,1183 L1365,1184 L1341,1203 L1339,1204 L1314,1222 L1312,1223 L1286,1240 L1283,1242 L1280,1243 L1232,1268 L1229,1270 L1180,1292 L1177,1294 L1130,1313 L1127,1314 L1079,1331 L1076,1332 L1073,1333 L1027,1345 L1024,1346 L978,1356 L974,1357 L939,1363 z" fill="#7A7A7A" fill-opacity="0.5" fill-rule="nonzero" stroke="black" stroke-width="27.500002"/>
</g>
<g id="cd_shape_9">
<path d="M935,1364 L941.5553,1410.9796 L882.9571,1421.7426 L874,1368 L799.3637,1364.4458 L723.45,1351.6 L645.1842,1333.4889 L535.21094,1292.9724 L439.64038,1244.2478 L382.52942,1207.4117 L315.76385,1156.2119 L243.2417,1085.8229 L176.61536,1001.9231 L120.285706,917.4285 L64.77185,817.96625 L-1.0917969,662.4367 L70,634 L71,631 L83,612 L104,569 L114.43475,541.174 L173.68939,447.4335 L234,368 L298.53217,290.8762 L384.62598,202.76971 L460.33078,138.25977 L530.27405,97.64722 L608,68.5 L630,63 L618.1538,13.461548 L675.4637,-0.86590576 L688,47 L745.3334,32.666687 L834,20 L931.99994,20 L1022.1818,31.272705 L1099,49 L1177.706,72.32031 L1255.842,105.3111 L1355.2849,164.24347 L1418.6793,209.14786 L1486.5444,273.72614 L1548,347 L1624.4829,445.314 L1708.9998,567.99963 L1788.0681,697.8977 L1728.8463,786.7306 L1673,854 L1646,884 L1684.3788,916.56384 L1646.3765,960.3241 L1610,929 L1549.4078,1005.75006 L1452.969,1109.4673 L1386.1389,1168.2778 L1328.26,1212.8 L1266.2432,1252.8108 L1154.8152,1304.2391 L1074.3398,1332.6505 L1000.36365,1352.2681 z" fill="none" stroke="black" stroke-dasharray="27.500002 55.000004" stroke-linecap="round" stroke-linejoin="round" stroke-opacity="0.3" stroke-width="13.750001"/>
</g>
<g id="item_10">
<path d="M1114,3234 L652,3213 L602,2928 L572,2760 L540,2592 L506,2425 L472,2257 L436,2090 L400,1923 L361,1756 L324,1599 L286,1443 L246,1286 L205,1130 L163,974 L120,819 L75,663 L0,408 L906,0 z" fill="#7A7A7A" fill-opacity="0.5" fill-rule="nonzero" stroke="black" stroke-width="27.500002"/>
</g>
<g id="cd_shape_10">
<path d="M1114,3234 L652,3213 L572,2760 L472,2257 L400,1923 L246,1286 L120,819 L0,408 L906,0 z" fill="none" stroke="black" stroke-dasharray="27.500002 55.000004" stroke-linecap="round" stroke-linejoin="round" stroke-opacity="0.3" stroke-width="13.750001"/>
</g>
<g id="item_11">
<path d="M7442,4015 L7357,3987 L7138,3910 L6920,3835 L6701,3761 L6481,3690 L6293,3630 L6104,3572 L5914,3515 L5725,3461 L5606,3429 L5487,3399 L5367,3370 L5247,3343 L5127,3316 L5007,3291 L4886,3267 L4766,3244 L4650,3223 L4533,3204 L4417,3185 L4301,3168 L4184,3152 L4067,3138 L3950,3124 L3850,3114 L3847,3143 L3816,3141 L3818,3111 L3419,3084 L3003,3056 L2586,3031 L2170,3007 L1665,2980 L1160,2955 L655,2932 L1,2903 L0,2838 L0,881 L148,874 L653,852 L1158,829 L1662,804 L2167,777 L2583,754 L3000,728 L3416,701 L3816,674 L3814,645 L3845,642 L3848,671 L4093,643 L4359,612 L4625,578 L4890,543 L5221,498 L5552,451 L5883,402 L6214,351 L6550,297 L6887,245 L7225,195 L7563,147 L7760,120 L7958,94 L8157,71 L8339,51 L8335,22 L8366,17 L8370,48 L8568,33 L8778,21 L8987,11 L9197,5 L9428,1 L9658,0 L9889,2 L10410,13 L10419,103 L10427,191 L10436,277 L10446,363 L10458,449 L10484,626 L10512,802 L10631,1482 L10687,1811 L10720,2019 L10750,2232 L10780,2531 L10480,2571 L8752,2792 L8756,2821 L8725,2826 L8720,2797 L8657,2807 L8577,2822 L8498,2840 L8419,2860 L8324,2886 L8230,2915 L8136,2945 L8044,2978 L8015,2989 L7987,3002 L7960,3016 L7933,3031 L7907,3047 L7881,3064 L7856,3082 L7832,3101 L7809,3121 L7786,3142 L7765,3162 L7744,3185 L7724,3208 L7705,3232 L7688,3257 L7670,3283 L7648,3320 L7627,3357 L7607,3394 L7588,3433 L7570,3472 L7553,3511 L7537,3551 L7523,3591 L7510,3632 L7498,3673 L7487,3714 L7477,3756 L7469,3798 L7462,3840 L7456,3883 z" fill="#7A7A7A" fill-opacity="0.5" fill-rule="nonzero" stroke="black" stroke-width="27.500002"/>
</g>
<g id="cd_shape_11">
<path d="M7441.807,4016.8179 L6701,3761 L5914,3515 L5606,3429 L5127,3316 L4417,3185 L3850,3114 L3847,3143 L3816,3141 L3818,3111 L3003,3056 L2170,3007 L1160,2955 L0,2902.9556 L0,880.4475 L1158,829 L2583,754 L3816,674 L3814,645 L3845,642 L3848,671 L4359,612 L5552,451 L6878.407,244.22034 L7896.894,99.58313 L8339,51 L8335,22 L8366,17 L8370,48 L8860.74,10.822632 L9655.255,-2.9351807 L10410.82,13.017334 L10446,363 L10512,802 L10733.539,2067.9385 L10780.162,2532.6113 L8752,2792 L8756,2821 L8725,2826 L8720,2797 L8324,2886 L8015,2989 L7832,3101 L7724,3208 L7607,3394 L7477,3756 z" fill="none" stroke="black" stroke-dasharray="27.500002 55.000004" stroke-linecap="round" stroke-linejoin="round" stroke-opacity="0.3" stroke-width="13.750001"/>
</g>
<g id="item_12">
<path d="M5811,164 L6044,69 L6172,0 L6212,147 L6620,1669 L6654,1799 L6547,1834 L6496,1850 L6450,1866 L6307,1921 L6259,1942 L6215,1964 L6173,1987 L6133,2012 L6095,2039 L6059,2068 L5980,2142 L5945,2179 L5913,2216 L5885,2253 L5860,2289 L5837,2326 L5817,2362 L5799,2397 L5783,2433 L5770,2467 L5746,2537 L5726,2603 L5709,2667 L5692,2730 L4856,2730 L288,2730 L17,2730 L15,2632 L1,1855 L0,1754 L101,1754 L484,1753 L607,1753 L814,1753 L932,1753 L1078,1752 L1210,1750 L1332,1746 L1444,1742 L1598,1734 L1691,1727 L1779,1720 L1942,1704 L2256,1668 L2419,1651 L2530,1630 L2640,1607 L2748,1584 L2853,1558 L2956,1532 L3055,1505 L3152,1476 L3246,1446 L3338,1416 L3426,1384 L3512,1351 L3596,1317 L3676,1282 L3754,1246 L3830,1209 L3903,1171 L3973,1132 L4041,1093 L4106,1052 L4169,1011 L4230,969 L4287,926 L4343,883 L4396,838 L4447,793 L4495,748 L4541,701 L4585,654 L4627,606 L4666,558 L4704,509 L4740,458 L4782,399 L4811,397 L4918,388 L5014,377 L5102,366 L5182,353 L5256,339 L5323,324 L5384,309 L5441,293 L5494,277 L5592,243 L5725,193 L5728,193 z" fill="#7A7A7A" fill-opacity="0.5" fill-rule="nonzero" stroke="black" stroke-width="27.500002"/>
</g>
<g id="cd_shape_12">
<path d="M6044,69 L6172.519,-0.27978516 L6654.7803,1798.7438 L6307,1921 L6095,2039 L5980,2142 L5860,2289 L5799,2397 L5726,2603 L5692.2656,2730 L16.76587,2730 L-0.8378906,1753 L932,1753 L1210,1750 L1598,1734 L1942,1704 L2256,1668 L2419,1651 L2748,1584 L2956,1532 L3338,1416 L3596,1317 L3903,1171 L4041,1093 L4230,969 L4343,883 L4495,748 L4627,606 L4781.629,399.02563 L5102,366 L5256,339 L5494,277 L5725,193 z" fill="none" stroke="black" stroke-dasharray="27.500002 55.000004" stroke-linecap="round" stroke-linejoin="round" stroke-opacity="0.3" stroke-width="13.750001"/>
</g>
<g id="item_13">
<path d="M2097,440 L1811,437 L1512,429 L1213,418 L1053,408 L894,396 L735,383 L576,368 L456,356 L336,342 L216,327 L0,297 L51,0 L258,28 L374,42 L490,55 L605,67 L761,81 L918,93 L1074,105 L1230,114 L1524,126 L1818,134 L2106,137 L2532,137 L2513,273 L2510,308 L2509,339 L2511,440 z" fill="#7A7A7A" fill-opacity="0.5" fill-rule="nonzero" stroke="black" stroke-width="27.500002"/>
</g>
<g id="cd_shape_13">
<path d="M2097,440 L1811,437 L1512,429 L1159.3458,416.02612 L787.99994,388 L486.42255,359.5493 L261.00006,333.25 L0,297 L51,0 L258,28 L374,42 L605,67 L1074,105 L1230,114 L1524,126 L1818,134 L2106,137 L2532,137 L2513,273 L2509,339 L2511,440 z" fill="none" stroke="black" stroke-dasharray="27.500002 55.000004" stroke-linecap="round" stroke-linejoin="round" stroke-opacity="0.3" stroke-width="13.750001"/>
</g>
<g id="item_14">
<path d="M545,654 L494,652 L444,648 L400,641 L377,636 L341,628 L302,615 L269,601 L263,598 L228,579 L222,576 L202,562 L182,548 L160,531 L139,511 L119,490 L101,468 L74,428 L59,403 L46,375 L34,347 L24,318 L16,289 L11,266 L6,239 L2,208 L0,178 L1,50 L5,31 L16,15 L32,4 L51,0 L1600,0 L1619,4 L1635,15 L1646,31 L1650,50 L1651,248 L1654,344 L1658,417 L1676,600 L1672,619 L1661,635 L1645,646 L1626,650 L615,650 L594,652 z" fill="#7A7A7A" fill-opacity="0.5" fill-rule="nonzero" stroke="black" stroke-width="27.500002"/>
</g>
<g id="cd_shape_14">
<path d="M564.8334,654.7778 L461.01117,650.7063 L361.73917,634.9131 L282.52026,608.5068 L222,576 L166.3396,537.0377 L113.869995,487.06668 L63.131348,411.89832 L21.355347,321.91916 L-0.2144165,205.44199 L1.1939087,25.179169 L37.818176,0 L1613.1819,0 L1649.8749,25.22647 L1651,248 L1658,417 L1677.1343,611.532 L1650.6875,650 L615,650 z" fill="none" stroke="black" stroke-dasharray="27.500002 55.000004" stroke-linecap="round" stroke-linejoin="round" stroke-opacity="0.3" stroke-width="13.750001"/>
</g>
<g id="item_15">
<path d="M296,1318 L258,1318 L230,1317 L203,1315 L176,1313 L149,1309 L122,1304 L95,1299 L69,1293 L42,1286 L31,1280 L20,1273 L10,1265 L0,1256 L17,1237 L33,1218 L49,1199 L64,1179 L79,1159 L93,1139 L107,1118 L120,1097 L133,1076 L145,1054 L157,1032 L168,1010 L179,988 L189,965 L198,942 L207,919 L215,898 L222,877 L228,856 L234,835 L239,814 L243,792 L247,771 L250,749 L253,727 L255,706 L257,684 L258,662 L258,640 L258,618 L257,596 L255,574 L254,546 L1531,404 L2502,298 L2500,278 L2550,273 L2552,293 L2603,287 L2601,267 L2651,262 L2653,282 L5160,0 L5157,75 L4826,386 L4494,697 L4393,791 L4291,884 L2126,1115 L2128,1135 L2078,1141 L2076,1121 L1561,1177 L561,1293 L524,1300 L486,1305 L448,1309 L410,1313 L372,1316 L334,1317 z" fill="#7A7A7A" fill-opacity="0.5" fill-rule="nonzero" stroke="black" stroke-width="27.500002"/>
</g>
<g id="cd_shape_15">
<path d="M209.84326,1320.2673 L46.843506,1290.082 L-2.3742676,1258.762 L107,1118 L189,965 L234,835 L257,684 L253.09766,546.10034 L1531,404 L2502,298 L2500,278 L2550,273 L2552,293 L2601,267 L2651,262 L2653,282 L5160,0 L5156.961,75.973206 L4294.8066,883.5939 L2126,1115 L2128,1135 L2078,1141 L2076,1121 L1561,1177 L561,1293 L450.32275,1313.939 z" fill="none" stroke="black" stroke-dasharray="27.500002 55.000004" stroke-linecap="round" stroke-linejoin="round" stroke-opacity="0.3" stroke-width="13.750001"/>
</g>
<g id="item_16">
<path d="M667,1918 L591,1841 L566,1817 L540,1794 L513,1772 L486,1750 L458,1729 L430,1709 L400,1690 L369,1671 L337,1652 L305,1634 L272,1618 L239,1602 L205,1587 L171,1573 L58,1530 L56,1528 L44,1474 L35,1423 L27,1372 L20,1321 L14,1270 L10,1219 L7,1168 L6,1127 L6,1086 L8,1045 L11,1003 L15,962 L21,921 L27,881 L30,867 L2,858 L0,856 L16,799 L18,797 L45,805 L54,772 L75,707 L98,642 L124,578 L153,517 L184,457 L217,398 L275,304 L277,302 L381,354 L426,379 L471,404 L514,431 L557,459 L599,487 L641,517 L681,549 L721,581 L759,614 L797,648 L834,683 L857,707 L854,665 L853,612 L853,560 L855,507 L859,455 L865,405 L872,355 L881,306 L892,257 L904,208 L919,160 L935,112 L976,2 L978,0 L1073,34 L1123,53 L1171,74 L1219,97 L1267,121 L1313,147 L1359,175 L1455,239 L1508,277 L1559,316 L1608,358 L1659,405 L1710,455 L1759,506 L1832,588 L1799,675 L1781,721 L1761,766 L1740,812 L1719,857 L1696,901 L1672,945 L1648,988 L1621,1032 L1594,1076 L1566,1120 L1536,1162 L1506,1204 L1429,1303 L1450,1322 L1452,1324 L1413,1369 L1411,1371 L1390,1353 L1379,1367 L1344,1409 L1307,1450 L1269,1490 L1228,1530 L1187,1568 L1146,1604 L1102,1639 L1049,1680 L994,1720 L938,1758 L882,1795 L824,1831 L765,1865 L706,1898 z" fill="#7A7A7A" fill-opacity="0.5" fill-rule="nonzero" stroke="black" stroke-width="27.500002"/>
</g>
<g id="cd_shape_16">
<path d="M668.1533,1919.1685 L591,1841 L540,1794 L430,1709 L305,1634 L171,1573 L56.30078,1529.3534 L40.600037,1458.7001 L14.200012,1290.4001 L4.2666626,1121.5334 L10.57312,992.2504 L26.538452,883.1539 L30,867 L-0.34942627,857.2448 L16.671875,796.60645 L45,805 L60.72412,747.34485 L110.88385,605.5892 L167.5,486.5 L217,398 L276.4146,301.70734 L381,354 L492.00034,415.66687 L626.00006,505.00006 L721,581 L811.90186,659.9411 L857,707 L850.7531,619.5432 L856.57935,465.14764 L877.3385,316.8678 L913.1611,170.59229 L976.8931,-0.3961792 L1109.1158,46.92566 L1227.8511,98.872375 L1339.2856,161.85712 L1480.8,256.2 L1579.125,331.3897 L1684.8423,428.81543 L1759,506 L1832,588 L1777.5786,731.4743 L1708.2036,880.13525 L1648,988 L1573.0968,1110.0645 L1506,1204 L1429,1303 L1452.0925,1323.8933 L1411.1531,1371.1311 L1390,1353 L1359.4626,1391.8657 L1284.9104,1474.4777 L1170.9359,1585.6724 L1020.8085,1701.8086 L852.15234,1816.2538 z" fill="none" stroke="black" stroke-dasharray="27.500002 55.000004" stroke-linecap="round" stroke-linejoin="round" stroke-opacity="0.3" stroke-width="13.750001"/>
</g>
<g id="item_17">
<path d="M865,4482 L723,4482 L504,4480 L218,2810 L0,1512 L1177,1076 L1609,935 L1656,920 L1700,905 L1744,888 L1787,871 L1830,853 L1872,833 L1914,813 L1955,792 L1973,782 L1989,771 L2006,760 L2021,749 L2037,736 L2051,723 L2065,709 L2076,698 L2127,631 L2178,560 L2226,486 L2271,411 L2308,344 L2342,276 L2373,207 L2456,0 L3111,384 L3713,681 L4105,838 L4451,947 L5015,1063 L5586,1132 L5941,1153 L11084,1009 L11196,3503 L5952,3875 L5759,3891 L5564,3909 L5370,3927 L5176,3947 L4982,3967 L4788,3989 L4594,4012 L4400,4036 L4152,4068 L3903,4101 L3654,4136 L3195,4204 L2776,4270 L2567,4304 L2306,4348 L2044,4391 L1861,4420 L1674,4448 L1540,4458 L1409,4466 L1279,4473 L1148,4477 L1006,4481 z" fill="#7A7A7A" fill-opacity="0.5" fill-rule="nonzero" stroke="black" stroke-width="27.500002"/>
</g>
<g id="cd_shape_17">
<path d="M1055.4678,4485.036 L504,4480 L-4.036133,1513.4951 L1177,1076 L1700,905 L2076,698 L2308,344 L2456,0 L3111,384 L3713,681 L4451,947 L5015,1063 L5586,1132 L5941,1153 L11084,1009 L11196,3503 L5952,3875 L4982,3967 L3903,4101 L2776,4270 L1684.2959,4451.177 z" fill="none" stroke="black" stroke-dasharray="27.500002 55.000004" stroke-linecap="round" stroke-linejoin="round" stroke-opacity="0.3" stroke-width="13.750001"/>
</g>
<g id="item_18">
<path d="M5,4154 L0,4149 L22,3726 L43,3304 L56,3018 L67,2754 L52,2754 L47,2749 L48,2714 L53,2709 L68,2710 L108,1248 L113,1243 L209,1289 L304,1334 L343,1351 L382,1367 L415,1377 L448,1386 L482,1395 L515,1402 L549,1409 L583,1415 L617,1420 L652,1424 L679,1426 L706,1428 L734,1429 L761,1429 L788,1428 L816,1426 L843,1424 L870,1420 L912,1408 L953,1395 L995,1380 L1035,1365 L1076,1349 L1116,1332 L1156,1314 L1195,1295 L1235,1274 L1275,1252 L1314,1230 L1353,1207 L1391,1183 L1429,1158 L1466,1132 L1503,1106 L1668,963 L1832,820 L1954,711 L2076,602 L2158,535 L2241,470 L2305,422 L2369,375 L2436,332 L2503,291 L2572,251 L2642,213 L2747,157 L2852,103 L2959,51 L3066,0 L3191,31 L3196,36 L3191,41 L3157,60 L3123,81 L3089,101 L3055,123 L3022,145 L2989,167 L2957,190 L2925,213 L2887,241 L2849,270 L2812,299 L2776,329 L2739,359 L2703,390 L2668,421 L2540,536 L2448,620 L2356,704 L2264,789 L2009,1027 L1753,1266 L1499,1505 L1262,1727 L1276,1741 L1271,1746 L1245,1771 L1240,1766 L1231,1756 L1213,1770 L1183,1797 L1153,1825 L1123,1853 L1094,1881 L1070,1905 L1042,1934 L1014,1963 L986,1993 L959,2024 L933,2055 L906,2086 L881,2117 L856,2149 L831,2182 L807,2214 L789,2239 L771,2265 L755,2290 L738,2316 L723,2343 L707,2369 L692,2396 L678,2424 L665,2451 L651,2479 L639,2507 L627,2535 L615,2564 L605,2592 L594,2621 L584,2650 L570,2690 L557,2731 L544,2771 L531,2812 L519,2853 L508,2894 L497,2935 L488,2976 L478,3018 L469,3059 L461,3101 L454,3143 L447,3185 L441,3227 L435,3269 L431,3311 L425,3363 L421,3414 L417,3465 L414,3516 L411,3567 L409,3618 L408,3670 L407,3721 L407,3772 L408,3824 L409,3875 L411,3926 L413,3977 L416,4029 L420,4080 L424,4131 L419,4136 L338,4141 L256,4145 L130,4150 z" fill="#7A7A7A" fill-opacity="0.5" fill-rule="nonzero" stroke="black" stroke-width="27.500002"/>
</g>
<g id="cd_shape_18">
<path d="M-0.3209839,4155.1714 L22,3726 L43,3304 L56,3018 L67,2754 L46.857117,2754 L48.1521,2708.6768 L68,2710 L108.19971,1240.7 L304,1334 L382,1367 L482,1395 L549,1409 L617,1420 L706,1428 L761,1429 L870,1420 L953,1395 L1076,1349 L1156,1314 L1235,1274 L1353,1207 L1429,1158 L1503,1106 L1832,820 L2101.2302,579.4584 L2261.5098,453.93823 L2369,375 L2470.7837,309.67615 L2586.375,242.66663 L2747,157 L2878.5603,89.340454 L3066,0 L3203.394,34.07373 L3089,101 L2989,167 L2887,241 L2739,359 L2668,421 L2540,536 L2264,789 L1753,1266 L1499,1505 L1262,1727 L1276.098,1741.098 L1244.7319,1771.2577 L1231,1756 L1213,1770 L1123,1853 L1070,1905 L986,1993 L856,2149 L771,2265 L692,2396 L665,2451 L615,2564 L557,2731 L531,2812 L497,2935 L488,2976 L469,3059 L447,3185 L425,3363 L417,3465 L409,3618 L407,3772 L409,3875 L416,4029 L424.36618,4135.669 L304.16095,4143.089 z" fill="none" stroke="black" stroke-dasharray="27.500002 55.000004" stroke-linecap="round" stroke-linejoin="round" stroke-opacity="0.3" stroke-width="13.750001"/>
</g>
<g id="item_19">
<path d="M326,3150 L312,3144 L306,3130 L0,20 L6,6 L20,0 L392,37 L406,43 L412,57 L456,273 L486,404 L519,543 L556,689 L595,841 L638,997 L728,1321 L823,1653 L1108,2630 L1172,2819 L1166,2833 L1152,2839 L663,3025 z" fill="#7A7A7A" fill-opacity="0.5" fill-rule="nonzero" stroke="black" stroke-width="27.500002"/>
</g>
<g id="cd_shape_19">
<path d="M308.92032,3159.6807 L-2.184967,-2.206543 L408.25525,38.61682 L456,273 L519,543 L595,841 L728,1321 L823,1653 L1108,2630 L1175.7175,2829.9785 z" fill="none" stroke="black" stroke-dasharray="27.500002 55.000004" stroke-linecap="round" stroke-linejoin="round" stroke-opacity="0.3" stroke-width="13.750001"/>
</g>
<g id="item_20">
<path d="M1394,2862 L917,2686 L721,2595 L716,2607 L711,2612 L679,2597 L674,2592 L681,2576 L669,2570 L634,2554 L599,2539 L564,2525 L529,2511 L493,2498 L457,2485 L421,2473 L370,2458 L318,2443 L266,2428 L214,2415 L162,2402 L110,2389 L57,2378 L5,2367 L0,2362 L33,2228 L65,2094 L97,1960 L128,1825 L140,1773 L151,1721 L162,1668 L172,1615 L182,1520 L169,1519 L164,1514 L165,1479 L170,1474 L185,1475 L186,1453 L172,1453 L167,1449 L167,1413 L172,1409 L186,1409 L185,1387 L170,1388 L165,1383 L164,1348 L169,1343 L182,1342 L172,1247 L162,1194 L151,1141 L140,1089 L128,1037 L97,902 L65,768 L33,634 L0,500 L5,495 L57,484 L110,473 L162,460 L214,447 L266,434 L318,419 L370,404 L421,389 L457,377 L493,364 L529,351 L564,337 L599,323 L634,308 L669,292 L681,286 L674,269 L679,265 L711,250 L716,255 L721,267 L917,176 L1394,0 L1535,79 L1567,94 L1599,107 L1653,128 L1684,140 L1683,135 L1688,130 L1723,128 L1728,133 L1728,157 L1769,170 L1812,183 L1854,194 L1897,204 L1941,213 L1984,221 L2028,227 L2072,232 L2228,247 L2385,260 L2542,272 L2699,283 L2856,293 L3013,301 L3170,308 L3327,314 L3332,319 L3382,372 L3382,647 L3327,703 L3084,708 L2841,712 L2454,719 L2067,724 L1997,725 L1927,727 L1857,731 L1787,735 L1772,737 L1757,740 L1742,744 L1745,764 L1740,769 L1706,774 L1701,769 L1699,759 L1696,760 L1689,763 L1682,768 L1675,772 L1668,777 L1662,783 L1659,786 L1652,794 L1645,802 L1638,811 L1632,820 L1626,830 L1621,840 L1617,850 L1583,932 L1551,1015 L1522,1092 L1493,1170 L1479,1202 L1465,1235 L1440,1288 L1424,1321 L1432,1322 L1437,1327 L1432,1362 L1427,1367 L1405,1363 L1401,1374 L1394,1402 L1393,1409 L1404,1409 L1409,1413 L1409,1449 L1404,1453 L1393,1453 L1394,1460 L1401,1488 L1405,1499 L1427,1495 L1432,1500 L1437,1535 L1432,1540 L1424,1541 L1440,1574 L1465,1627 L1479,1660 L1493,1692 L1522,1770 L1551,1847 L1583,1930 L1617,2012 L1621,2022 L1626,2032 L1632,2042 L1638,2051 L1645,2060 L1652,2068 L1659,2076 L1662,2079 L1668,2085 L1675,2090 L1682,2094 L1689,2099 L1696,2102 L1699,2103 L1701,2093 L1706,2088 L1740,2093 L1745,2098 L1742,2118 L1757,2122 L1772,2125 L1787,2127 L1857,2131 L1927,2135 L1997,2137 L2067,2138 L2454,2143 L2841,2150 L3084,2154 L3327,2159 L3382,2215 L3382,2490 L3332,2543 L3327,2548 L3170,2554 L3013,2561 L2856,2569 L2699,2579 L2542,2590 L2385,2602 L2228,2615 L2072,2630 L2028,2635 L1984,2641 L1941,2649 L1897,2658 L1854,2668 L1812,2679 L1769,2692 L1728,2705 L1728,2729 L1723,2734 L1688,2732 L1683,2727 L1684,2722 L1653,2734 L1599,2755 L1567,2768 L1535,2783 z" fill="#7A7A7A" fill-opacity="0.5" fill-rule="nonzero" stroke="black" stroke-width="27.500002"/>
</g>
<g id="cd_shape_20">
<path d="M1394,2862 L917,2686 L721,2595 L713.44006,2613.1438 L673.03564,2594.204 L681,2576 L529,2511 L421,2473 L266,2428 L110,2389 L-0.9769287,2365.967 L97,1960 L128,1825 L172,1615 L182,1520 L161.15552,1518.3966 L167,1453 L163.86841,1343.3948 L182,1342 L172,1247 L128,1037 L97,902 L-0.9769287,496.03296 L110,473 L266,434 L421,389 L529,351 L681,286 L673.42834,267.6117 L713.44006,248.8562 L721,267 L917,176 L1394,0 L1535,79 L1684,140 L1682.0679,130.33899 L1728,127.71423 L1728,157 L1812,183 L1984,221 L2228,247 L2542,272 L2856,293 L3327.2935,314.01123 L3382,372 L3382,647 L3326.2434,703.7703 L2454,719 L1997,725 L1787,735 L1742,744 L1745.6259,768.17267 L1702.1143,774.5714 L1699,759 L1668,777 L1626,830 L1583,932 L1478.0717,1209.4773 L1424,1321 L1437.614,1322.7018 L1431.1772,1367.7595 L1405,1363 L1393,1409 L1409,1409 L1409,1453 L1393,1453 L1405,1499 L1431.1772,1494.2405 L1437.614,1539.2982 L1424,1541 L1478.0717,1652.5227 L1583,1930 L1626,2032 L1668,2085 L1699,2103 L1702.1143,2087.4287 L1745.6259,2093.8274 L1742,2118 L1787,2127 L1997,2137 L2454,2143 L3326.2434,2158.2297 L3382,2215 L3382,2490 L3327.2935,2547.9888 L3013,2561 L2699,2579 L2385,2602 L2072,2630 L1984,2641 L1812,2679 L1728,2705 L1728,2734.2856 L1682.0679,2731.6611 L1684,2722 L1535,2783 z" fill="none" stroke="black" stroke-dasharray="27.500002 55.000004" stroke-linecap="round" stroke-linejoin="round" stroke-opacity="0.3" stroke-width="13.750001"/>
</g>
<g id="item_21">
<path d="M4611,3794 L4540,3789 L4451,3760 L4378,3738 L4305,3717 L4232,3698 L4158,3680 L4084,3663 L4010,3648 L3935,3634 L3732,3599 L3528,3566 L3324,3534 L3119,3503 L2915,3474 L2710,3446 L2505,3420 L2299,3395 L153,3131 L2,3150 L0,3148 L0,646 L2,644 L153,663 L2710,348 L2915,320 L3119,291 L3324,261 L3528,229 L3731,195 L4010,146 L4084,131 L4158,115 L4232,97 L4305,77 L4378,56 L4451,34 L4540,5 L4611,0 L4613,2 L4625,177 L4634,277 L4648,405 L4663,530 L4676,608 L4693,686 L4729,832 L4756,927 L4802,914 L4804,916 L4831,1012 L4829,1014 L4782,1028 L4817,1173 L4864,1161 L4866,1163 L4890,1261 L4888,1263 L4840,1274 L4851,1325 L4869,1425 L4884,1527 L4897,1628 L4906,1726 L4913,1824 L4916,1922 L4916,1967 L4964,1967 L4966,1969 L4966,2069 L4964,2071 L4912,2071 L4904,2146 L4889,2265 L4870,2383 L4848,2501 L4823,2615 L4795,2729 L4764,2842 L4730,2952 L4711,3026 L4693,3101 L4675,3193 L4658,3283 L4645,3396 L4634,3511 L4625,3615 L4613,3792 z" fill="#7A7A7A" fill-opacity="0.5" fill-rule="nonzero" stroke="black" stroke-width="27.500002"/>
</g>
<g id="cd_shape_21">
<path d="M4611.714,3810.9717 L4305,3717 L4084,3663 L3732,3599 L3119,3503 L2710,3446 L153,3131 L0,3150.2517 L0,643.7483 L153,663 L2710,348 L3324,261 L4010,146 L4232,97 L4611.6133,-16.390991 L4663,530 L4756,927 L4803.3315,913.62366 L4831.3643,1013.2957 L4782,1028 L4817,1173 L4865.4214,1160.6371 L4890.3574,1262.4597 L4840,1274 L4868.3594,1405.4851 L4916,1775.6155 L4916,1967 L4966,1967 L4966,2071 L4912,2071 L4883.3066,2340.003 L4795.735,2739.3281 L4730,2952 L4658,3283 z" fill="none" stroke="black" stroke-dasharray="27.500002 55.000004" stroke-linecap="round" stroke-linejoin="round" stroke-opacity="0.3" stroke-width="13.750001"/>
</g>
<g id="item_22">
<path d="M7558,1488 L4186,1437 L4186,1465 L4184,1467 L4124,1466 L4122,1464 L4122,1437 L2,1437 L0,1435 L0,860 L2,858 L2691,672 L2689,644 L2691,642 L2751,638 L2753,640 L2755,668 L4120,593 L4119,565 L4121,563 L4181,560 L4183,562 L4184,588 L4275,579 L4400,565 L4524,550 L4649,533 L4773,516 L4897,497 L5021,478 L5145,457 L5259,437 L5372,415 L5486,393 L5599,370 L5712,345 L5825,319 L5938,293 L6050,265 L6151,239 L6254,213 L6357,188 L6460,165 L6563,143 L6667,121 L6771,101 L6875,81 L6950,68 L7026,56 L7102,45 L7178,35 L7254,26 L7331,18 L7407,11 L7558,0 L7560,2 L7560,228 L7588,228 L7590,230 L7590,290 L7588,292 L7560,292 L7560,430 L7588,430 L7590,432 L7590,492 L7588,494 L7560,494 L7560,1486 z" fill="#7A7A7A" fill-opacity="0.5" fill-rule="nonzero" stroke="black" stroke-width="27.500002"/>
</g>
<g id="cd_shape_22">
<path d="M7560,1488.0303 L4186,1437 L4186,1467.0333 L4122,1465.9667 L4122,1437 L0,1437 L0,858.13837 L2691,672 L2688.8672,642.1422 L2752.8484,637.8768 L2755,668 L4120,593 L4118.932,563.1034 L4182.9194,559.90405 L4184,588 L4524,550 L5021,478 L5599,370 L6352.382,187.55383 L6862.1963,79.708435 L7265.8833,21.28003 L7560,-0.14569092 L7560,228 L7590,228 L7590,292 L7560,292 L7560,430 L7590,430 L7590,494 L7560,494 z" fill="none" stroke="black" stroke-dasharray="27.500002 55.000004" stroke-linecap="round" stroke-linejoin="round" stroke-opacity="0.3" stroke-width="13.750001"/>
</g>
<g id="item_23">
<path d="M4499,6696 L4180,6669 L0,6415 L0,281 L4180,27 L4499,0 L4511,134 L4519,196 L4530,254 L4543,310 L4553,344 L4566,379 L4580,413 L4595,446 L4612,479 L4631,511 L4651,542 L4672,572 L4689,592 L4707,613 L4725,634 L4745,653 L4765,672 L4786,690 L4807,708 L4828,723 L4882,759 L4939,791 L4997,821 L5057,847 L5130,874 L5205,898 L5281,918 L5356,935 L5456,947 L5560,957 L5663,964 L5766,969 L5818,969 L5869,969 L5920,968 L5972,966 L6023,962 L6074,958 L6126,953 L6177,946 L6245,936 L6313,925 L6381,913 L6449,900 L6516,886 L6584,871 L6651,855 L6717,839 L6826,804 L7007,738 L7564,2342 L7408,2428 L7379,2443 L7355,2456 L7332,2470 L7309,2486 L7286,2503 L7264,2521 L7242,2541 L7223,2559 L7204,2582 L7184,2608 L7165,2635 L7146,2662 L7136,2679 L7126,2696 L7118,2714 L7111,2732 L7104,2752 L7098,2774 L7092,2797 L7088,2820 L7082,2855 L7078,2890 L7074,2926 L7072,2961 L7070,3056 L7071,3348 L7070,3640 L7072,3735 L7074,3770 L7078,3806 L7082,3840 L7093,3900 L7098,3922 L7104,3944 L7111,3964 L7118,3982 L7126,4000 L7136,4017 L7146,4034 L7165,4061 L7184,4088 L7204,4114 L7223,4137 L7242,4155 L7264,4175 L7286,4193 L7309,4210 L7332,4226 L7355,4240 L7379,4253 L7408,4268 L7564,4354 L7007,5958 L6830,5893 L6717,5857 L6651,5841 L6584,5825 L6516,5810 L6449,5796 L6381,5783 L6313,5771 L6245,5760 L6125,5743 L6074,5738 L6023,5734 L5972,5730 L5920,5728 L5869,5727 L5818,5727 L5766,5727 L5663,5732 L5560,5739 L5456,5749 L5356,5761 L5281,5778 L5205,5798 L5130,5822 L5057,5849 L4997,5875 L4939,5905 L4882,5937 L4828,5973 L4807,5988 L4786,6006 L4765,6024 L4745,6043 L4725,6062 L4707,6083 L4689,6104 L4672,6124 L4651,6154 L4631,6185 L4612,6217 L4595,6250 L4580,6283 L4566,6317 L4553,6352 L4543,6386 L4530,6442 L4519,6500 L4511,6562 z" fill="#7A7A7A" fill-opacity="0.5" fill-rule="nonzero" stroke="black" stroke-width="27.500002"/>
</g>
<g id="cd_shape_23">
<path d="M4499,6696 L4180,6669 L0,6415 L0,281 L4180,27 L4499,0 L4553,344 L4672,572 L4807,708 L5057,847 L5356,935 L5766,969 L6126,953 L6717,839 L7007,738 L7564,2342 L7332,2470 L7126,2696 L7074,2926 L7074,3770 L7126,4000 L7332,4226 L7564,4354 L7007,5958 L6717,5857 L6125,5743 L5766,5727 L5356,5761 L5057,5849 L4807,5988 L4672,6124 L4543,6386 z" fill="none" stroke="black" stroke-dasharray="27.500002 55.000004" stroke-linecap="round" stroke-linejoin="round" stroke-opacity="0.3" stroke-width="13.750001"/>
</g>
<g id="item_24">
<path d="M1702,1010 L646,1008 L621,1009 L589,1010 L557,1008 L526,1005 L494,999 L463,992 L433,984 L403,973 L373,961 L344,947 L316,931 L289,914 L262,895 L237,875 L213,854 L192,833 L189,829 L185,825 L160,793 L135,759 L112,725 L89,689 L69,654 L50,617 L32,580 L0,505 L32,430 L50,393 L69,356 L89,321 L112,285 L135,251 L160,217 L185,185 L189,181 L192,177 L213,156 L237,135 L262,115 L289,96 L316,79 L344,63 L373,49 L403,37 L433,26 L463,18 L494,11 L526,5 L557,2 L589,0 L621,1 L646,2 L1702,0 L1657,505 z" fill="#7A7A7A" fill-opacity="0.5" fill-rule="nonzero" stroke="black" stroke-width="27.500002"/>
</g>
<g id="cd_shape_24">
<path d="M1702,1010 L646,1008 L560.28577,1011.4286 L452.8837,991.29065 L365.32562,959.18604 L272.7646,906.294 L190.15479,834.01044 L125.25421,745.7457 L57.410156,639.55505 L0,505 L57.410156,370.44498 L125.25421,264.25424 L190.15479,175.98956 L272.76453,103.70599 L365.32562,50.813934 L452.8837,18.70932 L560.28577,-1.4285889 L646,2 L1702,0 L1657,505 z" fill="none" stroke="black" stroke-dasharray="27.500002 55.000004" stroke-linecap="round" stroke-linejoin="round" stroke-opacity="0.3" stroke-width="13.750001"/>
</g>
<g id="item_25">
<path d="M714,4662 L695,4658 L578,4606 L528,4586 L477,4567 L425,4551 L369,4535 L313,4521 L275,4513 L165,4493 L146,4489 L130,4478 L119,4462 L115,4443 L89,4199 L70,4006 L53,3813 L38,3619 L25,3441 L15,3262 L6,3084 L0,2904 L0,1758 L6,1579 L15,1400 L25,1222 L38,1044 L53,850 L70,657 L89,464 L115,219 L119,200 L130,184 L146,173 L165,169 L275,149 L313,141 L369,127 L425,111 L477,95 L528,76 L578,56 L695,4 L714,0 L733,4 L749,15 L760,31 L810,157 L834,214 L861,272 L890,331 L920,396 L978,526 L1034,657 L1088,788 L1134,906 L1172,1010 L1208,1115 L1242,1221 L1316,1480 L1320,1499 L1316,1518 L1305,1534 L1261,1587 L1248,1606 L1238,1621 L1222,1647 L1207,1676 L1194,1705 L1182,1735 L1174,1760 L1169,1786 L1162,1833 L1156,1880 L1152,1927 L1149,1989 L1147,2051 L1147,2113 L1149,2176 L1149,2483 L1147,2549 L1147,2611 L1149,2673 L1152,2735 L1156,2782 L1162,2829 L1169,2876 L1174,2902 L1182,2927 L1194,2957 L1207,2986 L1222,3015 L1238,3041 L1248,3056 L1261,3075 L1305,3128 L1316,3144 L1320,3163 L1316,3182 L1258,3387 L1225,3493 L1190,3598 L1153,3703 L1114,3806 L1061,3938 L1007,4070 L950,4200 L890,4330 L861,4390 L834,4448 L810,4505 L760,4631 L749,4647 L733,4658 z" fill="#7A7A7A" fill-opacity="0.5" fill-rule="nonzero" stroke="black" stroke-width="27.500002"/>
</g>
<g id="cd_shape_25">
<path d="M718.07983,4668.258 L578,4606 L477,4567 L275,4513 L119.44528,4484.717 L66.5694,3988.497 L26.986572,3476.5596 L7.3966675,3125.901 L0,2904 L0,1758 L7.562317,1532.3904 L27.027405,1185.9124 L66.32355,677.682 L119.42676,177.28638 L275,149 L369,127 L477,95 L578,56 L718.07983,-6.2575684 L755.3956,19.396973 L834,214 L900.8334,353.04028 L1004.2906,584.9271 L1113.3918,849.5989 L1216.5518,1131.931 L1324.6619,1510.3164 L1261,1587 L1222,1647 L1182,1735 L1169,1786 L1152,1927 L1147,2051 L1149,2176 L1149,2483 L1147,2611 L1152,2735 L1169,2876 L1182,2927 L1222,3015 L1261,3075 L1324.5989,3151.6077 L1232.123,3478.4614 L1127.2975,3775.9395 L967.0822,4167.5767 L834,4448 L755.3956,4642.603 z" fill="none" stroke="black" stroke-dasharray="27.500002 55.000004" stroke-linecap="round" stroke-linejoin="round" stroke-opacity="0.3" stroke-width="13.750001"/>
</g>
<g id="item_26">
<path d="M259,3000 L0,946 L2058,713 L2178,688 L2300,660 L2364,645 L2457,621 L2484,612 L2511,602 L2537,591 L2569,575 L2601,558 L2632,539 L2659,521 L2683,499 L2707,473 L2730,445 L2751,416 L2765,392 L2777,367 L2787,342 L2796,310 L2810,271 L2821,234 L2842,153 L2880,0 L3086,47 L3331,103 L3441,127 L3614,163 L3912,221 L4038,243 L4240,276 L4441,305 L4655,332 L4868,356 L4964,365 L5059,371 L7598,443 L7768,438 L7768,2447 L7598,2447 L5214,2449 L4506,2493 L4226,2511 L4018,2525 L3618,2554 L3426,2570 L3168,2594 L2913,2618 L2203,2730 L1538,2823 z" fill="#7A7A7A" fill-opacity="0.5" fill-rule="nonzero" stroke="black" stroke-width="27.500002"/>
</g>
<g id="cd_shape_26">
<path d="M259,3000 L0,946 L2058,713 L2457,621 L2659,521 L2765,392 L2880.02,-0.08105469 L3331,103 L3912,221 L4441,305 L5059,371 L7598,443 L7768,438 L7768,2447 L5214,2449 L4018,2525 L2913,2618 L2152.834,2737.9136 z" fill="none" stroke="black" stroke-dasharray="27.500002 55.000004" stroke-linecap="round" stroke-linejoin="round" stroke-opacity="0.3" stroke-width="13.750001"/>
</g>
<g id="item_27">
<path d="M504,3464 L490,3458 L484,3444 L388,3049 L359,2924 L317,2727 L291,2584 L265,2427 L241,2253 L230,2158 L0,21 L6,6 L20,0 L145,8 L160,9 L241,10 L334,14 L430,20 L525,27 L620,36 L795,55 L961,76 L975,82 L981,96 L961,714 L953,987 L949,1256 L948,1505 L949,1736 L954,1947 L960,2140 L968,2315 L977,2472 L988,2611 L998,2732 L1014,2882 L1028,2994 L1041,3086 L1064,3215 L1058,3229 z" fill="#7A7A7A" fill-opacity="0.5" fill-rule="nonzero" stroke="black" stroke-width="27.500002"/>
</g>
<g id="cd_shape_27">
<path d="M490.27567,3469.8218 L368.85788,2970.2383 L306.61414,2678.2852 L247.72412,2322.6802 L-2.4571533,-1.8304443 L160,9 L305.01147,10.790283 L562.6727,29.775879 L981.6679,75.266846 L953,987 L949,1256 L949,1736 L960,2140 L977,2472 L998,2732 L1014,2882 L1041,3086 L1065.8987,3225.6494 z" fill="none" stroke="black" stroke-dasharray="27.500002 55.000004" stroke-linecap="round" stroke-linejoin="round" stroke-opacity="0.3" stroke-width="13.750001"/>
</g>
<g id="item_28">
<path d="M1382,4400 L4,4100 L27,3856 L41,3682 L52,3508 L62,3334 L69,3147 L74,2960 L77,2773 L77,2585 L76,2394 L72,2200 L75,1939 L76,1724 L74,1509 L71,1294 L66,1079 L62,950 L57,822 L54,756 L50,691 L42,609 L33,528 L23,452 L0,301 L1382,0 L1405,216 L1418,339 L1428,463 L1438,588 L1446,715 L1453,843 L1459,972 L1463,1100 L1469,1336 L1473,1572 L1474,1769 L1473,1966 L1469,2200 L1473,2433 L1474,2669 L1473,2895 L1469,3122 L1462,3348 L1452,3575 L1442,3759 L1428,3942 L1411,4125 z" fill="#7A7A7A" fill-opacity="0.5" fill-rule="nonzero" stroke="black" stroke-width="27.500002"/>
</g>
<g id="cd_shape_28">
<path d="M1382,4400 L4,4100 L41,3682 L62,3334 L77,2773 L72,2200 L76,1724 L71,1294 L62,950 L50,691 L0,301 L1382,0 L1418.028,338.34924 L1445.5,681.7505 L1465.0266,1101.5747 L1476.3533,1769.8381 L1469,2200 L1477.0173,2667.0127 L1467.0293,3233.833 L1446.4658,3700.6245 L1421.9272,4021.3796 z" fill="none" stroke="black" stroke-dasharray="27.500002 55.000004" stroke-linecap="round" stroke-linejoin="round" stroke-opacity="0.3" stroke-width="13.750001"/>
</g>
<g id="item_29">
<path d="M100,814 L0,812 L662,428 L637,385 L681,359 L707,402 L1399,0 L2091,402 L2116,360 L2160,384 L2136,428 L2798,812 L2798,814 z" fill="#7A7A7A" fill-opacity="0.5" fill-rule="nonzero" stroke="black" stroke-width="27.500002"/>
</g>
<g id="cd_shape_29">
<path d="M-3.447876,814 L662,428 L637,385 L681,359 L707,402 L1399,0 L2091,402 L2116,360 L2160,384 L2136,428 L2801.4478,814 z" fill="none" stroke="black" stroke-dasharray="27.500002 55.000004" stroke-linecap="round" stroke-linejoin="round" stroke-opacity="0.3" stroke-width="13.750001"/>
</g>
<g id="item_30">
<path d="M654,804 L643,775 L633,743 L621,713 L609,686 L595,661 L585,645 L545,675 L514,635 L553,604 L520,561 L487,529 L450,496 L415,469 L379,445 L345,426 L311,408 L271,390 L231,373 L201,364 L171,356 L108,345 L2,330 L1,265 L0,11 L52,10 L97,10 L192,11 L288,16 L560,38 L686,47 L738,49 L764,50 L763,1 L814,0 L816,50 L841,49 L894,47 L1020,38 L1244,19 L1342,13 L1435,10 L1579,10 L1580,101 L1579,329 L1537,336 L1472,345 L1408,356 L1394,359 L1364,368 L1309,390 L1269,408 L1235,426 L1201,445 L1165,469 L1130,496 L1093,529 L1060,561 L1027,604 L1065,633 L1036,674 L995,645 L985,661 L971,686 L959,713 L947,743 L927,803 L868,804 z" fill="#7A7A7A" fill-opacity="0.5" fill-rule="nonzero" stroke="black" stroke-width="27.500002"/>
</g>
<g id="cd_shape_30">
<path d="M652.0625,804 L633,743 L609,686 L585,645 L545,675 L514,635 L553,604 L520,561 L450,496 L379,445 L311,408 L231,373 L171,356 L108,345 L1.2554932,329.89465 L-0.00793457,8.978851 L192,11 L288,16 L560,38 L686,47 L764,50 L763,1 L814,0 L816,50 L841,49 L894,47 L1020,38 L1298.0055,14.419189 L1435,10 L1580.3992,10 L1578.9949,330.18533 L1472,345 L1408,356 L1364,368 L1269,408 L1201,445 L1130,496 L1060,561 L1027,604 L1065,633 L1036,674 L995,645 L971,686 L947,743 L926.6667,804 z" fill="none" stroke="black" stroke-dasharray="27.500002 55.000004" stroke-linecap="round" stroke-linejoin="round" stroke-opacity="0.3" stroke-width="13.750001"/>
</g>
<g id="item_31">
<path d="M467,1970 L291,1968 L270,1706 L246,1507 L220,1308 L190,1108 L158,910 L131,759 L102,609 L69,460 L0,163 L347,113 L565,84 L766,60 L968,39 L1491,0 L1544,287 L1553,333 L1560,380 L1567,426 L1573,473 L1579,519 L1583,566 L1587,613 L1590,660 L1593,713 L1594,767 L1595,821 L1596,875 L1595,929 L1594,983 L1592,1037 L1589,1090 L1587,1120 L1584,1149 L1581,1178 L1576,1208 L1571,1237 L1564,1265 L1557,1294 L1549,1322 L1540,1350 L1530,1378 L1520,1406 L1508,1433 L1496,1460 L1483,1486 L1469,1512 L1455,1538 L1441,1561 L1426,1584 L1410,1606 L1394,1628 L1377,1649 L1359,1670 L1340,1690 L1321,1709 L1302,1728 L1281,1746 L1260,1764 L1239,1781 L1217,1797 L1195,1812 L1172,1827 L1148,1841 L1113,1857 L1078,1872 L1042,1886 L1005,1899 L968,1910 L931,1920 L894,1929 L856,1936 L801,1945 L746,1952 L690,1959 L635,1963 L579,1967 L523,1969 z" fill="#7A7A7A" fill-opacity="0.5" fill-rule="nonzero" stroke="black" stroke-width="27.500002"/>
</g>
<g id="cd_shape_31">
<path d="M527.39307,1970.6863 L291,1968 L270,1706 L220,1308 L158,910 L102,609 L69,460 L0,163 L467.3014,95.66553 L898.4218,44.188416 L1491,0 L1553,333 L1576.3987,488.4335 L1592.3018,675.2957 L1597.2744,943.8186 L1583.5732,1185.8748 L1550.3804,1320.9348 L1508.0303,1439.5154 L1442.2964,1561.5925 L1372.6669,1657.3331 L1261.1248,1768.8752 L1156.4713,1837.1274 L1051.116,1885.2898 L910.5956,1927.0662 L734.38074,1955.9014 z" fill="none" stroke="black" stroke-dasharray="27.500002 55.000004" stroke-linecap="round" stroke-linejoin="round" stroke-opacity="0.3" stroke-width="13.750001"/>
</g>
<g id="item_32">
<path d="M1401,1844 L1152,1841 L829,1832 L578,1822 L0,1813 L0,1793 L19,1155 L56,1 L734,0 L1181,2 L1432,5 L1432,25 z" fill="#7A7A7A" fill-opacity="0.5" fill-rule="nonzero" stroke="black" stroke-width="27.500002"/>
</g>
<g id="cd_shape_32">
<path d="M1401,1844 L1012.8066,1839.323 L578,1822 L-2.0960083,1812.9673 L56.129333,-3.032959 L1432.3728,3.1246948 z" fill="none" stroke="black" stroke-dasharray="27.500002 55.000004" stroke-linecap="round" stroke-linejoin="round" stroke-opacity="0.3" stroke-width="13.750001"/>
</g>
<g id="item_33">
<path d="M9532,3816 L9270,3699 L9156,3653 L9040,3608 L8923,3563 L8805,3520 L8687,3479 L8569,3438 L8450,3399 L8331,3362 L8225,3329 L8118,3298 L8010,3268 L7902,3240 L7794,3212 L7686,3186 L7352,3113 L7238,3089 L7123,3067 L7008,3046 L6893,3027 L6777,3009 L6662,2992 L6546,2977 L6443,2964 L6340,2954 L6237,2944 L6134,2936 L6031,2929 L5928,2924 L5825,2920 L5719,2918 L1,2626 L0,226 L5721,118 L9495,34 L11099,0 L11098,991 L11098,1015 L11100,1050 L11103,1088 L11108,1125 L11114,1163 L11122,1200 L11132,1237 L11144,1272 L11153,1297 L11164,1320 L11176,1343 L11189,1365 L11204,1386 L11220,1407 L11237,1426 L11276,1464 L11295,1480 L11315,1496 L11336,1511 L11357,1524 L11379,1537 L11401,1549 L11425,1559 L11462,1575 L11500,1590 L11539,1603 L11579,1615 L11613,1625 L11648,1633 L11683,1640 L11810,1663 L11810,1683 L11792,1886 L11784,1998 L11775,2173 L11770,2339 L11775,2654 L11775,2674 L10468,2770 L10441,2772 L10416,2776 L10391,2781 L10366,2787 L10342,2794 L10318,2802 L10294,2811 L10271,2822 L10253,2831 L10236,2841 L10219,2852 L10203,2865 L10188,2878 L10173,2891 L10159,2906 L10149,2918 L10132,2949 L10116,2984 L10102,3021 L10092,3059 L10084,3099 L10080,3141 L10078,3171 L10084,3295 L10084,3315 L10002,3334 L9975,3342 L9948,3351 L9922,3362 L9896,3374 L9871,3387 L9846,3402 L9822,3418 L9797,3437 L9772,3457 L9749,3479 L9726,3502 L9704,3525 L9684,3550 L9665,3576 L9648,3600 z" fill="#7A7A7A" fill-opacity="0.5" fill-rule="nonzero" stroke="black" stroke-width="27.500002"/>
</g>
<g id="cd_shape_33">
<path d="M9532,3816 L8923,3563 L8225,3329 L7686,3186 L7008,3046 L6443,2964 L5719,2918 L1,2626 L0,226 L5721,118 L11099.002,-1.7011719 L11098,1015 L11114,1163 L11189,1365 L11401,1549 L11613,1625 L11811.746,1663.316 L11770,2339 L11775.316,2673.9766 L10441,2772 L10294,2811 L10149,2918 L10102,3021 L10084.957,3314.7783 L9948,3351 L9772,3457 L9648,3600 z" fill="none" stroke="black" stroke-dasharray="27.500002 55.000004" stroke-linecap="round" stroke-linejoin="round" stroke-opacity="0.3" stroke-width="13.750001"/>
</g>
<g id="item_34">
<path d="M2800,500 L0,500 L0,0 L2800,0 z" fill="#7A7A7A" fill-opacity="0.5" fill-rule="nonzero" stroke="black" stroke-width="27.500002"/>
</g>
<g id="cd_shape_34">
<path d="M2800,500 L0,500 L0,0 L2800,0 z" fill="none" stroke="black" stroke-dasharray="27.500002 55.000004" stroke-linecap="round" stroke-linejoin="round" stroke-opacity="0.3" stroke-width="13.750001"/>
</g>
<g id="item_35">
<path d="M124,1604 L113,1580 L90,1526 L69,1470 L50,1414 L33,1356 L23,1314 L16,1272 L11,1229 L9,1187 L7,1151 L8,1114 L10,1076 L14,1039 L22,990 L31,941 L41,892 L46,874 L0,865 L8,815 L59,824 L62,814 L72,781 L83,748 L96,716 L115,675 L136,634 L157,594 L181,554 L184,549 L323,368 L327,364 L374,314 L423,265 L473,216 L523,168 L559,136 L596,105 L633,74 L730,0 L902,77 L1052,141 L1165,188 L1292,236 L1296,325 L1299,410 L1301,495 L1300,580 L1297,665 L1293,741 L1287,816 L1279,892 L1270,968 L1258,1018 L1244,1066 L1226,1113 L1205,1158 L1180,1204 L1152,1249 L1121,1292 L1105,1311 L1142,1343 L1111,1382 L1070,1349 L1036,1378 L1002,1403 L967,1427 L928,1450 L884,1473 L839,1493 L794,1512 L724,1536 L676,1551 L628,1563 L580,1575 L531,1584 L482,1592 L433,1598 L384,1602 z" fill="#7A7A7A" fill-opacity="0.5" fill-rule="nonzero" stroke="black" stroke-width="27.500002"/>
</g>
<g id="cd_shape_35">
<path d="M123.22479,1604.006 L67,1472 L21.011353,1315.0977 L6.0438843,1186.3773 L9.238831,1068.162 L33.72278,918.1979 L46,874 L0,865 L8,815 L59,824 L89.33319,722.88916 L173.332,562.8914 L332.92856,355.07144 L515.8335,172.16644 L633,74 L730,0 L902,77 L1165,188 L1292,236 L1298.0988,371.69754 L1301.8,528.9998 L1295.3579,711.5265 L1284.9177,842.0274 L1270,968 L1250.6428,1048.6548 L1217.7522,1134.5361 L1166.396,1229.0314 L1121,1292 L1105,1311 L1142,1343 L1111,1382 L1070,1349 L1004.4354,1404.9227 L895.6327,1469.0884 L794,1512 L691.6923,1547.0769 L540.7999,1584.8 L401.4282,1601.866 z" fill="none" stroke="black" stroke-dasharray="27.500002 55.000004" stroke-linecap="round" stroke-linejoin="round" stroke-opacity="0.3" stroke-width="13.750001"/>
</g>
<g id="item_36">
<path d="M1702,3270 L1459,3265 L8,2883 L0,2875 L18,2484 L35,2092 L46,1807 L56,1523 L75,897 L82,551 L80,161 L88,153 L1145,135 L1219,132 L1294,131 L1368,130 L1443,130 L1456,131 L1469,132 L1482,135 L1495,138 L1518,144 L1540,151 L1562,159 L1583,170 L1606,184 L1628,199 L1649,216 L1668,234 L1676,242 L1686,252 L1695,263 L1704,274 L1713,286 L1720,298 L1728,310 L1734,323 L1741,335 L1746,349 L1751,362 L1756,376 L1760,390 L1763,404 L1766,418 L1768,432 L1769,438 L1844,432 L1908,426 L1972,420 L2020,414 L2069,407 L2108,401 L2146,392 L2187,382 L2227,371 L2292,344 L2300,340 L2315,328 L2340,301 L2370,249 L2387,201 L2402,152 L2440,8 L2448,0 L2762,65 L4441,404 L4641,364 L4649,372 L4648,656 L4649,941 L4651,1225 L4654,1510 L4659,1784 L4664,2058 L4672,2332 L4680,2606 L4700,3192 L4692,3200 L4492,3205 L3318,3251 L2842,3263 L2496,3268 L2240,3269 z" fill="#7A7A7A" fill-opacity="0.5" fill-rule="nonzero" stroke="black" stroke-width="27.500002"/>
</g>
<g id="cd_shape_36">
<path d="M1479.5625,3270.4136 L-0.2680664,2880.8232 L35,2092 L56,1523 L82,551 L79.95972,153.13696 L1145,135 L1450.7568,122.60449 L1605.9998,171.99988 L1750.8235,316.82336 L1769,438 L2108,401 L2292,344 L2370,249 L2442.416,-1.1558838 L4441,404 L4649.034,362.3932 L4654,1510 L4664,2058 L4700.2656,3199.7935 L4492,3205 L3318,3251 L2632.9724,3268.2695 z" fill="none" stroke="black" stroke-dasharray="27.500002 55.000004" stroke-linecap="round" stroke-linejoin="round" stroke-opacity="0.3" stroke-width="13.750001"/>
</g>
<g id="item_37">
<path d="M133,5254 L122,5250 L118,5239 L91,5022 L76,4893 L63,4764 L51,4634 L40,4505 L31,4376 L23,4246 L17,4116 L11,3967 L6,3818 L3,3668 L1,3519 L0,3369 L0,3220 L2,3071 L6,2924 L6,2330 L2,2182 L0,2033 L0,1883 L0,1734 L2,1584 L6,1435 L10,1286 L17,1136 L23,1006 L31,877 L40,747 L51,618 L63,489 L76,360 L90,231 L117,15 L121,4 L132,0 L863,32 L1085,46 L1096,50 L1100,61 L1098,97 L1815,143 L1817,109 L1821,98 L1832,94 L1932,101 L1943,105 L1947,116 L1945,149 L2524,165 L2645,167 L2766,169 L2886,169 L3007,168 L3148,165 L3289,161 L3430,155 L3501,152 L3497,120 L3501,109 L3512,105 L3611,93 L3622,97 L3626,108 L3630,140 L3641,138 L3678,130 L3714,121 L3734,115 L3743,112 L3761,104 L3804,83 L3808,22 L3812,11 L3823,7 L3834,11 L4082,181 L4103,150 L4114,146 L4125,150 L4208,207 L4212,218 L4208,229 L4190,255 L4831,695 L4852,664 L4863,660 L4874,664 L4957,720 L4961,731 L4957,742 L4937,771 L5542,1239 L5546,1250 L5542,1261 L5485,1357 L5400,1443 L5323,1522 L5249,1601 L5176,1678 L5036,1833 L4900,1988 L4766,2147 L4629,2312 L4559,2397 L4373,2627 L4559,2856 L4629,2941 L4766,3106 L4900,3265 L5036,3420 L5176,3575 L5249,3652 L5323,3731 L5400,3810 L5485,3895 L5542,3992 L5546,4003 L5542,4014 L4937,4482 L4957,4511 L4961,4522 L4957,4533 L4875,4589 L4864,4593 L4853,4589 L4831,4558 L4190,4998 L4208,5025 L4212,5036 L4208,5047 L4126,5103 L4115,5107 L4104,5103 L4082,5072 L3835,5242 L3824,5246 L3813,5242 L3809,5231 L3805,5170 L3762,5149 L3744,5141 L3734,5138 L3714,5132 L3678,5123 L3642,5116 L3630,5114 L3627,5145 L3623,5156 L3612,5160 L3513,5148 L3502,5144 L3498,5133 L3501,5101 L3430,5098 L3289,5093 L3148,5089 L3007,5086 L2887,5085 L2766,5085 L2646,5086 L2525,5089 L1945,5105 L1947,5138 L1943,5149 L1932,5153 L1833,5159 L1822,5155 L1818,5144 L1815,5110 L1098,5156 L1101,5193 L1097,5204 L1086,5208 L861,5222 z" fill="#7A7A7A" fill-opacity="0.5" fill-rule="nonzero" stroke="black" stroke-width="27.500002"/>
</g>
<g id="cd_shape_37">
<path d="M119.937744,5254.574 L69.02539,4845.389 L21.951416,4293.341 L-7.4335938,3417.691 L6,2924 L6,2330 L-6.053955,1884.0066 L19.919922,916.4867 L112.36572,-0.85961914 L1101.0322,42.420166 L1098,97 L1815,143 L1817.9402,93.01587 L1947.8419,102.10889 L1945,149 L2524,165 L3007,168 L3501,152 L3495.377,107.01489 L3623.9292,91.43286 L3630,140 L3804,83 L3809.8086,-5.5825195 L4082,181 L4109.9854,139.68848 L4218.3228,214.08911 L4190,255 L4831,695 L4858.9014,653.81274 L4967.3545,726.9861 L4937,771 L5575.4497,1264.8752 L5323,1522 L4900,1988 L4373,2627 L4900,3265 L5323,3731 L5576.3223,3987.4497 L4937,4482 L4967.3145,4525.956 L4860.1816,4599.1196 L4831,4558 L4190,4998 L4218.078,5040.117 L4111.1816,5113.12 L4082,5072 L3810.813,5258.647 L3805,5170 L3630,5114 L3625.3914,5161.623 L3496.778,5146.0337 L3501,5101 L3007,5086 L2646,5086 L1945,5105 L1947.8508,5152.039 L1819.3962,5159.824 L1815,5110 L1098,5156 L1102.4906,5211.385 z" fill="none" stroke="black" stroke-dasharray="27.500002 55.000004" stroke-linecap="round" stroke-linejoin="round" stroke-opacity="0.3" stroke-width="13.750001"/>
</g>
<g id="item_38">
<path d="M3793,9088 L3340,9069 L3031,9053 L2722,9036 L2413,9016 L2167,8998 L1921,8979 L1675,8957 L1428,8933 L1233,8911 L1038,8887 L844,8861 L650,8833 L508,8811 L367,8787 L226,8761 L0,8716 L68,8242 L73,8203 L106,7926 L117,7821 L117,7717 L114,7477 L114,7470 L115,7463 L128,7363 L140,7263 L148,7183 L156,7104 L175,6905 L185,6761 L182,6616 L174,6417 L174,6410 L175,6402 L183,6319 L191,6235 L199,6139 L205,6043 L219,5753 L220,5699 L219,5644 L205,5350 L205,5344 L220,5031 L222,4898 L224,4765 L224,4655 L222,4544 L224,4433 L224,4323 L222,4189 L220,4057 L205,3741 L205,3735 L219,3444 L220,3389 L219,3335 L205,3045 L199,2949 L191,2853 L183,2769 L175,2686 L174,2678 L174,2671 L182,2472 L185,2327 L181,2258 L148,1905 L140,1825 L128,1725 L115,1625 L114,1618 L114,1611 L117,1371 L117,1267 L106,1163 L78,925 L68,846 L0,372 L226,327 L367,301 L508,277 L650,255 L844,227 L1038,201 L1233,177 L1428,155 L1674,131 L1920,109 L2166,90 L2412,72 L2721,53 L3030,35 L3339,19 L3793,0 L3841,717 L3857,1067 L3879,1416 L3895,1794 L3901,2063 L3902,2228 L3906,2308 L3913,2485 L3918,2692 L3920,2807 L3921,3389 L3920,3740 L3922,4544 L3920,5349 L3921,5698 L3920,6049 L3921,6163 L3920,6280 L3918,6395 L3915,6510 L3910,6695 L3902,6860 L3901,7026 L3897,7210 L3895,7294 L3879,7672 L3857,8021 L3841,8371 z" fill="#7A7A7A" fill-opacity="0.5" fill-rule="nonzero" stroke="black" stroke-width="27.500002"/>
</g>
<g id="cd_shape_38">
<path d="M3792.7026,9092.441 L2570.1184,9029.135 L1825.5194,8971.625 L1167.4502,8907.684 L423.21057,8800.268 L0,8716 L68,8242 L117,7821 L113.919556,7470.5635 L185,6761 L173.78711,6411.703 L205,6043 L219,5644 L204.85669,5346.99 L220,5031 L220,4057 L204.85669,3737.98 L219,3444 L205,3045 L173.78711,2676.2966 L185,2327 L113.919556,1617.4368 L117,1267 L68,846 L0,372 L423.21057,287.73242 L1165.2532,180.63379 L2051.6123,94.15967 L3135.3237,27.523926 L3793,0 L3841,717 L3899.3472,1790.2788 L3902,2228 L3923.105,2650.1035 L3922,4544 L3922.5286,6231.451 L3895.438,7369.629 L3841,8371 z" fill="none" stroke="black" stroke-dasharray="27.500002 55.000004" stroke-linecap="round" stroke-linejoin="round" stroke-opacity="0.3" stroke-width="13.750001"/>
</g>
<g id="item_39">
<path d="M250,1742 L90,1742 L76,1736 L70,1722 L62,1585 L57,1442 L54,1253 L52,1061 L51,951 L38,951 L24,945 L18,931 L18,899 L24,885 L38,879 L50,879 L47,681 L45,597 L43,515 L40,437 L36,364 L29,290 L22,223 L12,162 L6,135 L0,110 L1,84 L1,59 L7,45 L21,39 L412,0 L426,6 L437,21 L462,53 L468,67 L462,81 L444,118 L432,143 L419,179 L406,219 L395,259 L385,301 L368,388 L354,491 L344,599 L336,710 L328,852 L339,852 L353,858 L359,872 L357,904 L351,918 L337,924 L324,923 L318,1032 L306,1251 L299,1357 L292,1458 L290,1487 L300,1487 L314,1493 L320,1507 L318,1539 L312,1553 L298,1559 L284,1558 L282,1593 L270,1722 L264,1736 z" fill="#7A7A7A" fill-opacity="0.5" fill-rule="nonzero" stroke="black" stroke-width="27.500002"/>
</g>
<g id="cd_shape_39">
<path d="M250,1742 L90,1742 L70.684494,1733.7219 L62,1585 L57,1442 L53.40425,1215.468 L51,951 L38,951 L18,942.4286 L18,887.5714 L38,879 L50,879 L47,681 L43,515 L36,364 L22,223 L12,162 L0,110 L1,59 L9.061066,40.190857 L420.73676,-0.87145996 L470.30313,63.84021 L432,143 L406,219 L385,301 L368,388 L354,491 L344,599 L336,710 L328,852 L350.4286,852 L359,872 L356.26605,915.7431 L337,924 L324,923 L304.70587,1274.5817 L290,1487 L311.4286,1487 L320,1507 L317.26605,1550.7432 L298,1559 L284,1558 L282,1593 L268.89273,1733.9031 z" fill="none" stroke="black" stroke-dasharray="27.500002 55.000004" stroke-linecap="round" stroke-linejoin="round" stroke-opacity="0.3" stroke-width="13.750001"/>
</g>
<g id="item_40">
<path d="M51,694 L40,689 L35,678 L0,16 L5,5 L16,0 L27,5 L60,22 L86,33 L121,48 L157,61 L194,72 L231,82 L269,90 L278,91 L280,78 L285,67 L296,62 L328,67 L339,72 L344,83 L341,100 L428,112 L549,124 L670,135 L791,144 L1034,159 L1277,174 L1622,174 L1967,172 L2311,170 L2656,171 L2667,176 L2683,186 L2690,191 L2695,197 L2700,204 L2705,215 L2708,222 L2709,231 L2710,241 L2709,271 L2709,302 L2710,362 L2708,389 L2701,412 L2696,423 L2691,433 L2685,441 L2677,448 L2667,454 L2656,459 L1920,473 L1552,481 L1185,491 L1112,496 L1039,498 L892,502 L743,506 L668,510 L594,515 L521,523 L449,534 L378,549 L309,567 L241,590 L209,604 L186,614 L154,630 L123,648 L92,668 L62,689 z" fill="#7A7A7A" fill-opacity="0.5" fill-rule="nonzero" stroke="black" stroke-width="27.500002"/>
</g>
<g id="cd_shape_40">
<path d="M53.338623,695.063 L35.47278,686.94214 L-0.45056152,7.477539 L16.6875,-0.3125 L60,22 L157,61 L231,82 L278,91 L282.77936,59.934265 L346.31842,69.86226 L341,100 L428,112 L670,135 L791,144 L1277,174 L1622,174 L2311,170 L2659.0142,171.00874 L2695.3174,193.69847 L2710.2373,226.52208 L2710.3228,381.36795 L2694.7778,432.4445 L2664.6157,458.83612 L1920,473 L1552,481 L1185,491 L1109.7438,496.15454 L743,506 L594,515 L521,523 L449,534 L378,549 L309,567 L241,590 L154,630 z" fill="none" stroke="black" stroke-dasharray="27.500002 55.000004" stroke-linecap="round" stroke-linejoin="round" stroke-opacity="0.3" stroke-width="13.750001"/>
</g>
<g id="item_41">
<path d="M2053,1000 L2045,992 L2045,905 L1396,905 L1396,913 L1388,921 L1372,921 L1364,913 L1364,905 L715,905 L715,992 L707,1000 L43,1000 L35,992 L0,117 L8,109 L397,67 L440,62 L478,58 L537,53 L682,42 L935,28 L1175,17 L1364,16 L1364,8 L1372,0 L1388,0 L1396,8 L1396,16 L1585,17 L1825,28 L2078,42 L2223,53 L2282,58 L2320,62 L2363,67 L2752,109 L2760,117 L2725,992 L2717,1000 z" fill="#7A7A7A" fill-opacity="0.5" fill-rule="nonzero" stroke="black" stroke-width="27.500002"/>
</g>
<g id="cd_shape_41">
<path d="M2045,1000 L2045,905 L1396,905 L1396,921 L1364,921 L1364,905 L715,905 L715,1000 L35.319946,1000 L-0.2841797,109.89444 L613.5385,42.733643 L1175,17 L1364,16 L1364,0 L1396,0 L1396,16 L1585,17 L2146.4614,42.733643 L2760.2842,109.89444 L2724.6802,1000 z" fill="none" stroke="black" stroke-dasharray="27.500002 55.000004" stroke-linecap="round" stroke-linejoin="round" stroke-opacity="0.3" stroke-width="13.750001"/>
</g>
<g id="item_42">
<path d="M673,2244 L671,2242 L668,2192 L660,2176 L651,2160 L642,2144 L632,2128 L622,2113 L611,2099 L599,2085 L587,2071 L580,2063 L571,2055 L561,2048 L551,2040 L541,2033 L530,2027 L519,2022 L507,2017 L481,2009 L454,2002 L427,1995 L400,1989 L373,1983 L345,1978 L318,1973 L291,1969 L262,1965 L233,1962 L205,1960 L176,1958 L147,1956 L118,1955 L90,1955 L61,1955 L59,1953 L53,1868 L55,1866 L72,1857 L89,1846 L104,1833 L118,1821 L131,1807 L143,1792 L155,1775 L165,1758 L176,1734 L186,1710 L195,1685 L202,1660 L208,1635 L212,1609 L215,1583 L216,1557 L219,1527 L221,1498 L222,1469 L223,1440 L223,1411 L222,1381 L221,1352 L219,1323 L216,1282 L212,1242 L208,1202 L202,1162 L197,1122 L190,1082 L183,1042 L175,1002 L0,68 L2,66 L1190,0 L1192,2 L1187,62 L1183,123 L1180,183 L1177,243 L1175,304 L1173,364 L1172,424 L1172,485 L1172,565 L1172,645 L1174,725 L1175,805 L1178,886 L1181,966 L1184,1046 L1188,1126 L1188,1228 L1189,1329 L1192,1431 L1196,1533 L1206,1703 L1217,1872 L1230,2042 L1244,2211 L1242,2213 z" fill="#7A7A7A" fill-opacity="0.5" fill-rule="nonzero" stroke="black" stroke-width="27.500002"/>
</g>
<g id="cd_shape_42">
<path d="M671.1261,2244.102 L668,2192 L622,2113 L580,2063 L507,2017 L373,1983 L262,1965 L147,1956 L59.141174,1955 L52.935974,1867.0928 L89,1846 L131,1807 L165,1758 L195,1685 L208,1635 L221,1498 L221,1352 L208,1202 L175,1002 L-0.35028076,66.130554 L1192.1768,-0.12097168 L1177,243 L1172,424 L1174,725 L1175,805 L1188,1126 L1189,1329 L1196,1533 L1217,1872 L1244.156,2212.8826 z" fill="none" stroke="black" stroke-dasharray="27.500002 55.000004" stroke-linecap="round" stroke-linejoin="round" stroke-opacity="0.3" stroke-width="13.750001"/>
</g>
<g id="item_43">
<path d="M1905,2008 L1884,2008 L280,1774 L0,926 L318,60 L1448,15 L1884,0 L1905,0 L2105,147 L2105,1839 z" fill="#7A7A7A" fill-opacity="0.5" fill-rule="nonzero" stroke="black" stroke-width="27.500002"/>
</g>
<g id="cd_shape_43">
<path d="M1901.9082,2010.6125 L280,1774 L0,926 L318,60 L1900.8712,-3.034668 L2105,147 L2105,1839 z" fill="none" stroke="black" stroke-dasharray="27.500002 55.000004" stroke-linecap="round" stroke-linejoin="round" stroke-opacity="0.3" stroke-width="13.750001"/>
</g>
<g id="item_44">
<path d="M347,3848 L345,3846 L333,3517 L321,3239 L306,2962 L289,2685 L269,2408 L248,2132 L245,2107 L217,2109 L215,2107 L210,2047 L212,2045 L240,2043 L223,1855 L197,1579 L182,1437 L164,1295 L144,1153 L122,1012 L97,871 L70,730 L41,590 L0,408 L2,406 L1190,0 L1192,2 L1217,103 L1231,149 L1246,195 L1262,240 L1280,284 L1300,328 L1322,371 L1344,414 L1364,446 L1384,478 L1407,508 L1430,538 L1455,566 L1480,593 L1506,618 L1534,643 L1562,666 L1590,687 L1620,707 L1650,725 L1681,742 L1713,758 L1745,772 L1778,785 L1844,807 L1911,828 L1978,847 L2045,864 L2113,880 L2182,895 L2250,907 L2288,913 L2292,886 L2294,884 L2353,893 L2355,895 L2351,922 L4280,1160 L4282,1162 L4240,1515 L4158,2044 L4075,2569 L3990,3099 L3904,3629 L3902,3632 L3513,3665 L3319,3680 L3124,3694 L2929,3707 L2707,3720 L2484,3732 L2262,3743 L2071,3752 L2072,3780 L2070,3782 L2010,3784 L2008,3782 L2007,3755 z" fill="#7A7A7A" fill-opacity="0.5" fill-rule="nonzero" stroke="black" stroke-width="27.500002"/>
</g>
<g id="cd_shape_44">
<path d="M345.0769,3848.108 L321,3239 L289,2685 L245,2107 L215.17749,2109.1301 L209.84619,2045.1538 L240,2043 L182,1437 L122,1012 L-0.27539063,406.7776 L1191.3876,-0.4741211 L1262,240 L1344,414 L1480,593 L1590,687 L1713,758 L1911,828 L2288,913 L2292.334,883.74585 L2355.2456,893.3425 L2351,922 L4282.2056,1160.2721 L4235.0347,1556.7332 L3907.0117,3631.5747 L3344.1885,3679.3208 L2695.1643,3722.5889 L2071,3752 L2072.0688,3781.9312 L2008.0764,3784.064 L2007,3755 z" fill="none" stroke="black" stroke-dasharray="27.500002 55.000004" stroke-linecap="round" stroke-linejoin="round" stroke-opacity="0.3" stroke-width="13.750001"/>
</g>
<g id="item_45">
<path d="M2280,1100 L0,521 L118,18 L313,9 L484,1 L737,0 L990,3 L1243,9 L1369,15 L1495,22 L1602,31 L1709,41 L1922,64 L2135,92 L2348,122 L2315,465 z" fill="#7A7A7A" fill-opacity="0.5" fill-rule="nonzero" stroke="black" stroke-width="27.500002"/>
</g>
<g id="cd_shape_45">
<path d="M2280,1100 L0,521 L118,18 L484,1 L845.42883,-0.42855835 L1460.3984,14.155701 L1982.8572,70.57144 L2348,122 L2315,465 z" fill="none" stroke="black" stroke-dasharray="27.500002 55.000004" stroke-linecap="round" stroke-linejoin="round" stroke-opacity="0.3" stroke-width="13.750001"/>
</g>
<g id="item_46">
<path d="M1088,4300 L30,4087 L15,4083 L4,4072 L0,4057 L36,3883 L60,3758 L83,3633 L105,3507 L126,3382 L146,3256 L164,3130 L181,3004 L195,2897 L207,2790 L218,2683 L228,2576 L237,2468 L244,2361 L251,2254 L253,2209 L241,2206 L230,2195 L226,2180 L226,2120 L230,2105 L241,2094 L253,2091 L251,2045 L244,1938 L237,1831 L228,1723 L218,1616 L207,1509 L195,1402 L181,1295 L164,1169 L146,1043 L126,918 L105,792 L83,667 L60,542 L36,417 L0,243 L4,228 L15,217 L30,213 L1088,0 L1103,4 L1114,15 L1118,30 L1133,93 L1140,114 L1149,139 L1159,163 L1170,187 L1183,211 L1197,234 L1212,256 L1241,296 L1271,334 L1302,372 L1334,409 L1367,445 L1392,471 L1534,602 L1606,665 L1679,727 L1753,787 L1838,853 L1924,917 L2011,980 L2062,1015 L2073,1004 L2088,1000 L2103,1004 L2148,1043 L2159,1054 L2163,1069 L2159,1084 L2177,1097 L2252,1150 L2328,1201 L2404,1252 L2482,1302 L2559,1351 L2638,1400 L2716,1446 L2771,1478 L2826,1508 L2882,1538 L2938,1567 L2995,1594 L3052,1621 L3110,1646 L3195,1682 L3206,1693 L3210,1708 L3193,1860 L3187,1943 L3183,2046 L3183,2090 L3197,2093 L3208,2104 L3212,2119 L3212,2179 L3208,2194 L3197,2205 L3183,2209 L3183,2254 L3187,2357 L3193,2440 L3210,2592 L3206,2607 L3195,2618 L3110,2654 L3052,2679 L2995,2706 L2938,2733 L2882,2762 L2826,2792 L2771,2822 L2637,2901 L2559,2949 L2481,2998 L2404,3048 L2327,3099 L2251,3151 L2176,3204 L2159,3216 L2163,3231 L2159,3246 L2148,3257 L2103,3296 L2088,3300 L2073,3296 L2062,3285 L2011,3320 L1924,3383 L1838,3447 L1753,3513 L1679,3573 L1606,3635 L1426,3797 L1394,3828 L1367,3855 L1334,3891 L1302,3928 L1271,3966 L1241,4004 L1212,4044 L1197,4066 L1183,4089 L1170,4113 L1159,4137 L1149,4161 L1140,4186 L1133,4207 L1118,4270 L1114,4285 L1103,4296 z" fill="#7A7A7A" fill-opacity="0.5" fill-rule="nonzero" stroke="black" stroke-width="27.500002"/>
</g>
<g id="cd_shape_46">
<path d="M1109.8116,4304.3916 L-4.7591553,4080.0022 L36,3883 L83,3633 L126,3382 L164,3130 L195,2897 L237,2468 L253,2209 L226,2202.25 L226,2097.75 L253,2091 L237,1831 L218,1616 L195,1402 L146,1043 L105,792 L36,417 L-4.7591553,219.9978 L1109.8116,-4.3913574 L1133,93 L1170,187 L1241,296 L1392,471 L1534,602 L1679,727 L1838,853 L2062,1015 L2086.9287,990.0714 L2165.816,1058.4404 L2159,1084 L2404,1252 L2638,1400 L2771,1478 L2938,1567 L3212.0925,1689.2913 L3193,1860 L3183,2090 L3212,2096.2144 L3212,2200.7144 L3183,2209 L3193,2440 L3212.0925,2610.7087 L2938,2733 L2771,2822 L2481,2998 L2327,3099 L2159,3216 L2165.816,3241.5596 L2086.9287,3309.9287 L2062,3285 L1838,3447 L1606,3635 L1426,3797 L1302,3928 L1212,4044 L1170,4113 L1133,4207 z" fill="none" stroke="black" stroke-dasharray="27.500002 55.000004" stroke-linecap="round" stroke-linejoin="round" stroke-opacity="0.3" stroke-width="13.750001"/>
</g>
<g id="item_47">
<path d="M411,1656 L3,1549 L0,1546 L15,1495 L30,1445 L44,1395 L57,1344 L70,1293 L82,1242 L94,1191 L105,1140 L113,1101 L120,1063 L127,1024 L133,985 L138,946 L143,906 L148,867 L151,828 L148,789 L143,749 L138,710 L133,671 L127,632 L120,593 L113,554 L105,516 L94,465 L82,414 L70,363 L57,312 L44,261 L30,211 L16,160 L1,110 L4,107 L412,0 L415,3 L426,43 L439,82 L453,121 L468,160 L493,221 L519,281 L546,340 L574,400 L607,446 L640,493 L671,541 L701,589 L722,624 L742,658 L760,694 L778,729 L784,741 L789,753 L794,765 L798,777 L801,790 L803,802 L804,805 L823,805 L826,808 L826,848 L823,851 L804,851 L803,854 L801,867 L798,879 L794,891 L789,904 L784,915 L778,927 L760,963 L742,998 L722,1032 L701,1067 L671,1115 L639,1163 L607,1210 L574,1256 L546,1316 L519,1375 L493,1435 L468,1496 L453,1535 L439,1574 L426,1613 L414,1653 z" fill="#7A7A7A" fill-opacity="0.5" fill-rule="nonzero" stroke="black" stroke-width="27.500002"/>
</g>
<g id="cd_shape_47">
<path d="M412.94684,1656.5105 L-0.89367676,1547.9789 L44,1395 L70,1293 L94,1191 L113,1101 L133,985 L151,828 L148,789 L133,671 L113,554 L94,465 L70,363 L44,261 L0.38446045,107.94818 L414.0287,-0.53204346 L439,82 L468,160 L519,281 L574,400 L633.5253,482.97467 L695.4044,578.7875 L742,658 L795.7719,763.8595 L804,805 L826,805 L826,851 L804,851 L796.7999,889.4001 L745.33325,992.3334 L689.50006,1087.2499 L616.4286,1196.8572 L574,1256 L519,1375 L468,1496 L439,1574 z" fill="none" stroke="black" stroke-dasharray="27.500002 55.000004" stroke-linecap="round" stroke-linejoin="round" stroke-opacity="0.3" stroke-width="13.750001"/>
</g>
<g id="item_48">
<path d="M341,0 L388,0 L731,2 L802,2 L802,72 L801,1210 L803,1558 L804,1629 L733,1629 L390,1632 L343,1632 L325,1589 L12,844 L0,816 L12,789 L323,44 z" fill="#7A7A7A" fill-opacity="0.5" fill-rule="nonzero" stroke="black" stroke-width="27.500002"/>
</g>
<g id="cd_shape_48">
<path d="M341.11185,-0.27337646 L802.0615,2 L801,1210 L804,1629 L343.17145,1632.4097 L0,816 z" fill="none" stroke="black" stroke-dasharray="27.500002 55.000004" stroke-linecap="round" stroke-linejoin="round" stroke-opacity="0.3" stroke-width="13.750001"/>
</g>
<g id="item_49">
<path d="M232,1066 L221,1062 L217,1051 L196,967 L176,973 L165,969 L161,958 L152,927 L156,916 L167,912 L180,908 L175,890 L162,847 L149,808 L135,773 L123,742 L108,712 L93,683 L77,655 L4,544 L0,533 L4,522 L76,412 L87,393 L98,375 L108,356 L117,337 L126,317 L134,298 L142,278 L146,267 L156,237 L167,206 L176,175 L185,143 L194,111 L202,79 L209,47 L216,15 L220,4 L231,0 L466,0 L477,4 L481,15 L488,47 L495,79 L503,111 L512,143 L521,174 L531,206 L541,237 L551,266 L555,277 L563,297 L572,317 L580,336 L590,355 L600,374 L610,393 L621,411 L694,522 L698,533 L694,544 L622,654 L605,683 L590,712 L576,742 L563,772 L550,807 L537,846 L524,890 L519,908 L532,911 L543,915 L547,926 L539,957 L535,968 L524,972 L503,967 L482,1051 L478,1062 L467,1066 z" fill="#7A7A7A" fill-opacity="0.5" fill-rule="nonzero" stroke="black" stroke-width="27.500002"/>
</g>
<g id="cd_shape_49">
<path d="M220.75,1066 L196,967 L166.20772,975.9377 L149.23235,917.467 L180,908 L162,847 L149,808 L135,773 L123,742 L93,683 L77,655 L-3.2170715,533.0261 L76,412 L108,356 L126,317 L142,278 L156,237 L167,206 L194,111 L202,79 L219.28127,0 L477.71875,0 L495,79 L521,174 L541,237 L555,277 L572,317 L580,336 L610,393 L621,411 L701.21704,532.9739 L622,654 L590,712 L563,772 L537,846 L519,908 L542.41986,913.40454 L547,926 L536.28156,967.53394 L524,972 L503,967 L478.25,1066 z" fill="none" stroke="black" stroke-dasharray="27.500002 55.000004" stroke-linecap="round" stroke-linejoin="round" stroke-opacity="0.3" stroke-width="13.750001"/>
</g>
</defs>
<use href="#item_33" transform="translate(30238.486 9997.202), rotate(-180)">
<title>item, id: 33, transf: [r: -180.000, t: (30238.486, 9997.202)]</title>
</use>
<use href="#item_17" transform="translate(24755.004 525.4983), rotate(0)">
<title>item, id: 17, transf: [r: 0.000, t: (24755.004, 525.498)]</title>
</use>
<use href="#item_23" transform="translate(10578.807 0.09008789), rotate(90)">
<title>item, id: 23, transf: [r: 90.000, t: (10578.807, 0.090)]</title>
</use>
<use href="#item_11" transform="translate(25628.209 4150.3296), rotate(0)">
<title>item, id: 11, transf: [r: 0.000, t: (25628.209, 4150.330)]</title>
</use>
<use href="#item_38" transform="translate(10318.219 3923.1274), rotate(-90)">
<title>item, id: 38, transf: [r: -90.000, t: (10318.219, 3923.127)]</title>
</use>
<use href="#item_6" transform="translate(40252.125 3994.9385), rotate(0)">
<title>item, id: 6, transf: [r: 0.000, t: (40252.125, 3994.938)]</title>
</use>
<use href="#item_37" transform="translate(41200.31 7.845703), rotate(90)">
<title>item, id: 37, transf: [r: 90.000, t: (41200.309, 7.846)]</title>
</use>
<use href="#item_3" transform="translate(1.9384766 9209.1045), rotate(-90)">
<title>item, id: 3, transf: [r: -90.000, t: (1.938, 9209.104)]</title>
</use>
<use href="#item_1" transform="translate(20586.867 3710.9692), rotate(90)">
<title>item, id: 1, transf: [r: 90.000, t: (20586.867, 3710.969)]</title>
</use>
<use href="#item_26" transform="translate(7513.382 6992.413), rotate(0)">
<title>item, id: 26, transf: [r: 0.000, t: (7513.382, 6992.413)]</title>
</use>
<use href="#item_21" transform="translate(25410.158 1915.6863), rotate(90)">
<title>item, id: 21, transf: [r: 90.000, t: (25410.158, 1915.686)]</title>
</use>
<use href="#item_12" transform="translate(30600.197 7269.372), rotate(0)">
<title>item, id: 12, transf: [r: 0.000, t: (30600.197, 7269.372)]</title>
</use>
<use href="#item_36" transform="translate(15158.9375 9581.579), rotate(-90)">
<title>item, id: 36, transf: [r: -90.000, t: (15158.938, 9581.579)]</title>
</use>
<use href="#item_44" transform="translate(41169.15 504.39673), rotate(0)">
<title>item, id: 44, transf: [r: 0.000, t: (41169.148, 504.397)]</title>
</use>
<use href="#item_22" transform="translate(26971.492 1488.1031), rotate(-180)">
<title>item, id: 22, transf: [r: -180.000, t: (26971.492, 1488.103)]</title>
</use>
<use href="#item_4" transform="translate(4021.891 2746.3872), rotate(-180)">
<title>item, id: 4, transf: [r: -180.000, t: (4021.891, 2746.387)]</title>
</use>
<use href="#item_46" transform="translate(40261.77 9989.944), rotate(-180)">
<title>item, id: 46, transf: [r: -180.000, t: (40261.770, 9989.944)]</title>
</use>
<use href="#item_20" transform="translate(15199.098 7397.175), rotate(-180)">
<title>item, id: 20, transf: [r: -180.000, t: (15199.098, 7397.175)]</title>
</use>
<use href="#item_18" transform="translate(21839 7299.3403), rotate(-180)">
<title>item, id: 18, transf: [r: -180.000, t: (21839.000, 7299.340)]</title>
</use>
<use href="#item_28" transform="translate(36050.05 73.66522), rotate(90)">
<title>item, id: 28, transf: [r: 90.000, t: (36050.051, 73.665)]</title>
</use>
<use href="#item_25" transform="translate(47093.28 0.39660645), rotate(90)">
<title>item, id: 25, transf: [r: 90.000, t: (47093.281, 0.397)]</title>
</use>
<use href="#item_15" transform="translate(26642.096 1998.1538), rotate(-180)">
<title>item, id: 15, transf: [r: -180.000, t: (26642.096, 1998.154)]</title>
</use>
<use href="#item_7" transform="translate(11418.479 9999.905), rotate(-90)">
<title>item, id: 7, transf: [r: -90.000, t: (11418.479, 9999.905)]</title>
</use>
<use href="#item_0" transform="translate(3866.3223 9548.87), rotate(-90)">
<title>item, id: 0, transf: [r: -90.000, t: (3866.322, 9548.870)]</title>
</use>
<use href="#item_27" transform="translate(46316.67 1088.5425), rotate(0)">
<title>item, id: 27, transf: [r: 0.000, t: (46316.672, 1088.542)]</title>
</use>
<use href="#item_43" transform="translate(19180.367 2718.7314), rotate(0)">
<title>item, id: 43, transf: [r: 0.000, t: (19180.367, 2718.731)]</title>
</use>
<use href="#item_41" transform="translate(6608.3784 9855.947), rotate(-90)">
<title>item, id: 41, transf: [r: -90.000, t: (6608.378, 9855.947)]</title>
</use>
<use href="#item_10" transform="translate(45406.207 1088.4374), rotate(0)">
<title>item, id: 10, transf: [r: 0.000, t: (45406.207, 1088.437)]</title>
</use>
<use href="#item_19" transform="translate(37670.523 6650.8184), rotate(90)">
<title>item, id: 19, transf: [r: 90.000, t: (37670.523, 6650.818)]</title>
</use>
<use href="#item_42" transform="translate(21522.88 1543.5627), rotate(90)">
<title>item, id: 42, transf: [r: 90.000, t: (21522.881, 1543.563)]</title>
</use>
<use href="#item_5" transform="translate(13448.348 5217.666), rotate(90)">
<title>item, id: 5, transf: [r: 90.000, t: (13448.348, 5217.666)]</title>
</use>
<use href="#item_31" transform="translate(11592.373 5379.4795), rotate(90)">
<title>item, id: 31, transf: [r: 90.000, t: (11592.373, 5379.479)]</title>
</use>
<use href="#item_32" transform="translate(31629.607 166.9071), rotate(90)">
<title>item, id: 32, transf: [r: 90.000, t: (31629.607, 166.907)]</title>
</use>
<use href="#item_8" transform="translate(6608.3394 9999.27), rotate(-180)">
<title>item, id: 8, transf: [r: -180.000, t: (6608.339, 9999.270)]</title>
</use>
<use href="#item_16" transform="translate(39112.68 6491.2305), rotate(-180)">
<title>item, id: 16, transf: [r: -180.000, t: (39112.680, 6491.230)]</title>
</use>
<use href="#item_45" transform="translate(32628.201 8556.497), rotate(-180)">
<title>item, id: 45, transf: [r: -180.000, t: (32628.201, 8556.497)]</title>
</use>
<use href="#item_34" transform="translate(29808.531 500.16296), rotate(-180)">
<title>item, id: 34, transf: [r: -180.000, t: (29808.531, 500.163)]</title>
</use>
<use href="#item_40" transform="translate(30276.693 8457.722), rotate(0)">
<title>item, id: 40, transf: [r: 0.000, t: (30276.693, 8457.722)]</title>
</use>
<use href="#item_29" transform="translate(36328.35 9180.549), rotate(0)">
<title>item, id: 29, transf: [r: 0.000, t: (36328.352, 9180.549)]</title>
</use>
<use href="#item_9" transform="translate(33111.492 7230.0786), rotate(0)">
<title>item, id: 9, transf: [r: 0.000, t: (33111.492, 7230.079)]</title>
</use>
<use href="#item_35" transform="translate(19729.336 6972.6943), rotate(-180)">
<title>item, id: 35, transf: [r: -180.000, t: (19729.336, 6972.694)]</title>
</use>
<use href="#item_24" transform="translate(1704.6357 9997.838), rotate(-180)">
<title>item, id: 24, transf: [r: -180.000, t: (1704.636, 9997.838)]</title>
</use>
<use href="#item_13" transform="translate(16976.203 4920.4653), rotate(-180)">
<title>item, id: 13, transf: [r: -180.000, t: (16976.203, 4920.465)]</title>
</use>
<use href="#item_14" transform="translate(3359.7522 9813.815), rotate(-180)">
<title>item, id: 14, transf: [r: -180.000, t: (3359.752, 9813.815)]</title>
</use>
<use href="#item_48" transform="translate(28031.273 1304.1802), rotate(-90)">
<title>item, id: 48, transf: [r: -90.000, t: (28031.273, 1304.180)]</title>
</use>
<use href="#item_47" transform="translate(36404.44 5075.2334), rotate(0)">
<title>item, id: 47, transf: [r: 0.000, t: (36404.441, 5075.233)]</title>
</use>
<use href="#item_30" transform="translate(18335.852 9999.869), rotate(-90)">
<title>item, id: 30, transf: [r: -90.000, t: (18335.852, 9999.869)]</title>
</use>
<use href="#item_2" transform="translate(3362.2837 9495.907), rotate(0)">
<title>item, id: 2, transf: [r: 0.000, t: (3362.284, 9495.907)]</title>
</use>
<use href="#item_39" transform="translate(45692.453 4020.3271), rotate(-180)">
<title>item, id: 39, transf: [r: -180.000, t: (45692.453, 4020.327)]</title>
</use>
<use href="#item_49" transform="translate(21520.238 1982.4294), rotate(0)">
<title>item, id: 49, transf: [r: 0.000, t: (21520.238, 1982.429)]</title>
</use>
</g>
<g id="quality_zones"/>
<g id="optionals">
<g id="highlight_cd_shapes">
<use href="#cd_shape_33" transform="translate(30238.486 9997.202), rotate(-180)"/>
<use href="#cd_shape_17" transform="translate(24755.004 525.4983), rotate(0)"/>
<use href="#cd_shape_23" transform="translate(10578.807 0.09008789), rotate(90)"/>
<use href="#cd_shape_11" transform="translate(25628.209 4150.3296), rotate(0)"/>
<use href="#cd_shape_38" transform="translate(10318.219 3923.1274), rotate(-90)"/>
<use href="#cd_shape_6" transform="translate(40252.125 3994.9385), rotate(0)"/>
<use href="#cd_shape_37" transform="translate(41200.31 7.845703), rotate(90)"/>
<use href="#cd_shape_3" transform="translate(1.9384766 9209.1045), rotate(-90)"/>
<use href="#cd_shape_1" transform="translate(20586.867 3710.9692), rotate(90)"/>
<use href="#cd_shape_26" transform="translate(7513.382 6992.413), rotate(0)"/>
<use href="#cd_shape_21" transform="translate(25410.158 1915.6863), rotate(90)"/>
<use href="#cd_shape_12" transform="translate(30600.197 7269.372), rotate(0)"/>
<use href="#cd_shape_36" transform="translate(15158.9375 9581.579), rotate(-90)"/>
<use href="#cd_shape_44" transform="translate(41169.15 504.39673), rotate(0)"/>
<use href="#cd_shape_22" transform="translate(26971.492 1488.1031), rotate(-180)"/>
<use href="#cd_shape_4" transform="translate(4021.891 2746.3872), rotate(-180)"/>
<use href="#cd_shape_46" transform="translate(40261.77 9989.944), rotate(-180)"/>
<use href="#cd_shape_20" transform="translate(15199.098 7397.175), rotate(-180)"/>
<use href="#cd_shape_18" transform="translate(21839 7299.3403), rotate(-180)"/>
<use href="#cd_shape_28" transform="translate(36050.05 73.66522), rotate(90)"/>
<use href="#cd_shape_25" transform="translate(47093.28 0.39660645), rotate(90)"/>
<use href="#cd_shape_15" transform="translate(26642.096 1998.1538), rotate(-180)"/>
<use href="#cd_shape_7" transform="translate(11418.479 9999.905), rotate(-90)"/>
<use href="#cd_shape_0" transform="translate(3866.3223 9548.87), rotate(-90)"/>
<use href="#cd_shape_27" transform="translate(46316.67 1088.5425), rotate(0)"/>
<use href="#cd_shape_43" transform="translate(19180.367 2718.7314), rotate(0)"/>
<use href="#cd_shape_41" transform="translate(6608.3784 9855.947), rotate(-90)"/>
<use href="#cd_shape_10" transform="translate(45406.207 1088.4374), rotate(0)"/>
<use href="#cd_shape_19" transform="translate(37670.523 6650.8184), rotate(90)"/>
<use href="#cd_shape_42" transform="translate(21522.88 1543.5627), rotate(90)"/>
<use href="#cd_shape_5" transform="translate(13448.348 5217.666), rotate(90)"/>
<use href="#cd_shape_31" transform="translate(11592.373 5379.4795), rotate(90)"/>
<use href="#cd_shape_32" transform="translate(31629.607 166.9071), rotate(90)"/>
<use href="#cd_shape_8" transform="translate(6608.3394 9999.27), rotate(-180)"/>
<use href="#cd_shape_16" transform="translate(39112.68 6491.2305), rotate(-180)"/>
<use href="#cd_shape_45" transform="translate(32628.201 8556.497), rotate(-180)"/>
<use href="#cd_shape_34" transform="translate(29808.531 500.16296), rotate(-180)"/>
<use href="#cd_shape_40" transform="translate(30276.693 8457.722), rotate(0)"/>
<use href="#cd_shape_29" transform="translate(36328.35 9180.549), rotate(0)"/>
<use href="#cd_shape_9" transform="translate(33111.492 7230.0786), rotate(0)"/>
<use href="#cd_shape_35" transform="translate(19729.336 6972.6943), rotate(-180)"/>
<use href="#cd_shape_24" transform="translate(1704.6357 9997.838), rotate(-180)"/>
<use href="#cd_shape_13" transform="translate(16976.203 4920.4653), rotate(-180)"/>
<use href="#cd_shape_14" transform="translate(3359.7522 9813.815), rotate(-180)"/>
<use href="#cd_shape_48" transform="translate(28031.273 1304.1802), rotate(-90)"/>
<use href="#cd_shape_47" transform="translate(36404.44 5075.2334), rotate(0)"/>
<use href="#cd_shape_30" transform="translate(18335.852 9999.869), rotate(-90)"/>
<use href="#cd_shape_2" transform="translate(3362.2837 9495.907), rotate(0)"/>
<use href="#cd_shape_39" transform="translate(45692.453 4020.3271), rotate(-180)"/>
<use href="#cd_shape_49" transform="translate(21520.238 1982.4294), rotate(0)"/>
<path d="M0,0 L47382.848,0 L47382.848,10000 L0,10000 z" fill="none" stroke="black" stroke-dasharray="27.500002 55.000004" stroke-linecap="round" stroke-linejoin="round" stroke-opacity="0.3" stroke-width="13.750001"/>
</g>
<g id="surrogates">
<defs/>
</g>
<g id="collision_lines"/>
</g>
<text font-family="monospace" font-size="250" font-weight="500" x="0" y="-125">
h: 10000.000 | w: 47382.848 | d: 89.571% | final_best
</text>
</svg>