<svg viewBox="-1.1000235 -3.500351 24.200512 77.007706" xmlns="http://www.w3.org/2000/svg" xmlns:xlink="http://www.w3.org/1999/xlink">
<g id="bin_0">
<path d="M0,0 L22.000465,0 L22.000465,70.007 L0,70.007 z" fill="#D3D3D3" stroke="black" stroke-width="0.12100257"/>
<title>bin, id: 0, bbox: [x_min: 0.000, y_min: 0.000, x_max: 22.000, y_max: 70.007]</title>
</g>
<g id="items">
<defs>
<g id="item_0">
<path d="M0,4 L6,0 L12,4 L6,8 z" fill="#7A7A7A" fill-opacity="0.5" fill-rule="nonzero" stroke="black" stroke-width="0.060501285"/>
</g>
<g id="item_1">
<path d="M5,0 L10,0 L10,10 L0,10 L0,5 L5,5 z" fill="#7A7A7A" fill-opacity="0.5" fill-rule="nonzero" stroke="black" stroke-width="0.060501285"/>
</g>
<g id="item_2">
<path d="M0,0 L6,0 L4,2 L4,4 L6,6 L0,6 L2,4 L2,2 z" fill="#7A7A7A" fill-opacity="0.5" fill-rule="nonzero" stroke="black" stroke-width="0.060501285"/>
</g>
<g id="item_3">
<path d="M0,0 L8,0 L6,2 L6,6 L8,8 L0,8 L2,6 L2,2 z" fill="#7A7A7A" fill-opacity="0.5" fill-rule="nonzero" stroke="black" stroke-width="0.060501285"/>
</g>
<g id="item_4">
<path d="M0,0 L10,0 L8,2 L8,8 L10,10 L0,10 L2,8 L2,2 z" fill="#7A7A7A" fill-opacity="0.5" fill-rule="nonzero" stroke="black" stroke-width="0.060501285"/>
</g>
<g id="item_5">
<path d="M0,0 L6,0 L6,6 L4,6 L4,2 L2,2 L2,6 L0,6 z" fill="#7A7A7A" fill-opacity="0.5" fill-rule="nonzero" stroke="black" stroke-width="0.060501285"/>
</g>
<g id="item_6">
<path d="M0,0 L8,0 L8,8 L6,8 L6,2 L2,2 L2,8 L0,8 z" fill="#7A7A7A" fill-opacity="0.5" fill-rule="nonzero" stroke="black" stroke-width="0.060501285"/>
</g>
<g id="item_7">
<path d="M0,0 L10,0 L10,10 L8,10 L8,2 L2,2 L2,10 L0,10 z" fill="#7A7A7A" fill-opacity="0.5" fill-rule="nonzero" stroke="black" stroke-width="0.060501285"/>
</g>
<g id="item_8">
<path d="M0,0 L12,0 L6,12 z" fill="#7A7A7A" fill-opacity="0.5" fill-rule="nonzero" stroke="black" stroke-width="0.060501285"/>
</g>
<g id="item_9">
<path d="M0,0 L8,0 L4,8 z" fill="#7A7A7A" fill-opacity="0.5" fill-rule="nonzero" stroke="black" stroke-width="0.060501285"/>
</g>
<g id="item_10">
<path d="M0,10 L10,0 L10,10 z" fill="#7A7A7A" fill-opacity="0.5" fill-rule="nonzero" stroke="black" stroke-width="0.060501285"/>
</g>
<g id="item_11">
<path d="M6,0 L12,8 L6,16 L0,8 z" fill="#7A7A7A" fill-opacity="0.5" fill-rule="nonzero" stroke="black" stroke-width="0.060501285"/>
</g>
<g id="item_12">
<path d="M6,0 L12,12 L0,12 z" fill="#7A7A7A" fill-opacity="0.5" fill-rule="nonzero" stroke="black" stroke-width="0.060501285"/>
</g>
<g id="item_13">
<path d="M0,0 L8,0 L4,8 z" fill="#7A7A7A" fill-opacity="0.5" fill-rule="nonzero" stroke="black" stroke-width="0.060501285"/>
</g>
<g id="item_14">
<path d="M5,0 L10,10 L0,10 z" fill="#7A7A7A" fill-opacity="0.5" fill-rule="nonzero" stroke="black" stroke-width="0.060501285"/>
</g>
<g id="item_15">
<path d="M4,0 L8,5 L4,10 L0,5 z" fill="#7A7A7A" fill-opacity="0.5" fill-rule="nonzero" stroke="black" stroke-width="0.060501285"/>
</g>
<g id="item_16">
<path d="M2,0 L4,0 L6,2 L6,4 L3,6 L0,4 L0,2 z" fill="#7A7A7A" fill-opacity="0.5" fill-rule="nonzero" stroke="black" stroke-width="0.060501285"/>
</g>
<g id="item_17">
<path d="M2,0 L6,0 L8,2 L8,6 L4,8 L0,6 L0,2 z" fill="#7A7A7A" fill-opacity="0.5" fill-rule="nonzero" stroke="black" stroke-width="0.060501285"/>
</g>
<g id="item_18">
<path d="M0,0 L6,0 L6,3 L3,3 L3,6 L0,6 z" fill="#7A7A7A" fill-opacity="0.5" fill-rule="nonzero" stroke="black" stroke-width="0.060501285"/>
</g>
<g id="item_19">
<path d="M4,0 L8,0 L8,8 L0,8 L0,4 L4,4 z" fill="#7A7A7A" fill-opacity="0.5" fill-rule="nonzero" stroke="black" stroke-width="0.060501285"/>
</g>
<g id="item_20">
<path d="M0,0 L6,0 L6,3 L3,3 L3,6 L0,6 z" fill="#7A7A7A" fill-opacity="0.5" fill-rule="nonzero" stroke="black" stroke-width="0.060501285"/>
</g>
<g id="item_21">
<path d="M4,0 L8,0 L8,8 L0,8 L0,4 L4,4 z" fill="#7A7A7A" fill-opacity="0.5" fill-rule="nonzero" stroke="black" stroke-width="0.060501285"/>
</g>
<g id="item_22">
<path d="M0,0 L12,0 L12,12 L0,12 z" fill="#7A7A7A" fill-opacity="0.5" fill-rule="nonzero" stroke="black" stroke-width="0.060501285"/>
</g>
<g id="item_23">
<path d="M0,0 L8,0 L8,8 L0,8 z" fill="#7A7A7A" fill-opacity="0.5" fill-rule="nonzero" stroke="black" stroke-width="0.060501285"/>
</g>
<g id="item_24">
<path d="M0,0 L10,0 L10,10 L0,10 z" fill="#7A7A7A" fill-opacity="0.5" fill-rule="nonzero" stroke="black" stroke-width="0.060501285"/>
</g>
</defs>
<use transform="translate(22.000252 10.012806), rotate(90)" xlink:href="#item_22">
<title>item, id: 22, transf: [r: 90.000°, t: (22.000, 10.013)]</title>
</use>
<use transform="translate(0.99456835 37.048355), rotate(-90)" xlink:href="#item_11">
<title>item, id: 11, transf: [r: -90.000°, t: (0.995, 37.048)]</title>
</use>
<use transform="translate(10.000063 42.873394), rotate(90)" xlink:href="#item_4">
<title>item, id: 4, transf: [r: 90.000°, t: (10.000, 42.873)]</title>
</use>
<use transform="translate(22.000448 0.004620552), rotate(90)" xlink:href="#item_7">
<title>item, id: 7, transf: [r: 90.000°, t: (22.000, 0.005)]</title>
</use>
<use transform="translate(10.000235 12.031591), rotate(90)" xlink:href="#item_24">
<title>item, id: 24, transf: [r: 90.000°, t: (10.000, 12.032)]</title>
</use>
<use transform="translate(12.000281 32.01293), rotate(-90)" xlink:href="#item_1">
<title>item, id: 1, transf: [r: -90.000°, t: (12.000, 32.013)]</title>
</use>
<use transform="translate(22.000162 37.9857), rotate(90)" xlink:href="#item_8">
<title>item, id: 8, transf: [r: 90.000°, t: (22.000, 37.986)]</title>
</use>
<use transform="translate(22.000359 43.986618), rotate(90)" xlink:href="#item_12">
<title>item, id: 12, transf: [r: 90.000°, t: (22.000, 43.987)]</title>
</use>
<use transform="translate(14.000097 70.00516), rotate(-90)" xlink:href="#item_3">
<title>item, id: 3, transf: [r: -90.000°, t: (14.000, 70.005)]</title>
</use>
<use transform="translate(8.000008 61.99768), rotate(-180)" xlink:href="#item_6">
<title>item, id: 6, transf: [r: -180.000°, t: (8.000, 61.998)]</title>
</use>
<use transform="translate(0.000035762787 69.99821), rotate(-90)" xlink:href="#item_23">
<title>item, id: 23, transf: [r: -90.000°, t: (0.000, 69.998)]</title>
</use>
<use transform="translate(10.00227 32.03219), rotate(-180)" xlink:href="#item_10">
<title>item, id: 10, transf: [r: -180.000°, t: (10.002, 32.032)]</title>
</use>
<use transform="translate(8.000006 8.005214), rotate(-180)" xlink:href="#item_19">
<title>item, id: 19, transf: [r: -180.000°, t: (8.000, 8.005)]</title>
</use>
<use transform="translate(0.000101566315 4.0281014), rotate(0)" xlink:href="#item_21">
<title>item, id: 21, transf: [r: 0.000°, t: (0.000, 4.028)]</title>
</use>
<use transform="translate(12.89835 44.870617), rotate(-180)" xlink:href="#item_0">
<title>item, id: 0, transf: [r: -180.000°, t: (12.898, 44.871)]</title>
</use>
<use transform="translate(18.000114 0.00447464), rotate(90)" xlink:href="#item_14">
<title>item, id: 14, transf: [r: 90.000°, t: (18.000, 0.004)]</title>
</use>
<use transform="translate(22.00018 63.997868), rotate(-180)" xlink:href="#item_17">
<title>item, id: 17, transf: [r: -180.000°, t: (22.000, 63.998)]</title>
</use>
<use transform="translate(8.923191 41.649525), rotate(-90)" xlink:href="#item_15">
<title>item, id: 15, transf: [r: -90.000°, t: (8.923, 41.650)]</title>
</use>
<use transform="translate(14.000093 53.99778), rotate(90)" xlink:href="#item_2">
<title>item, id: 2, transf: [r: 90.000°, t: (14.000, 53.998)]</title>
</use>
<use transform="translate(14.000076 64.00224), rotate(90)" xlink:href="#item_5">
<title>item, id: 5, transf: [r: 90.000°, t: (14.000, 64.002)]</title>
</use>
<use transform="translate(21.998371 49.99374), rotate(90)" xlink:href="#item_9">
<title>item, id: 9, transf: [r: 90.000°, t: (21.998, 49.994)]</title>
</use>
<use transform="translate(0.0052125454 40.306587), rotate(-90)" xlink:href="#item_13">
<title>item, id: 13, transf: [r: -90.000°, t: (0.005, 40.307)]</title>
</use>
<use transform="translate(2.0842915 50.996387), rotate(0)" xlink:href="#item_18">
<title>item, id: 18, transf: [r: 0.000°, t: (2.084, 50.996)]</title>
</use>
<use transform="translate(21.93318 32.014755), rotate(90)" xlink:href="#item_20">
<title>item, id: 20, transf: [r: 90.000°, t: (21.933, 32.015)]</title>
</use>
<use transform="translate(14.000031 63.99819), rotate(-180)" xlink:href="#item_16">
<title>item, id: 16, transf: [r: -180.000°, t: (14.000, 63.998)]</title>
</use>
</g>
<g id="quality_zones"/>
<g id="optionals">
<g id="overlap_lines" transform="translate(0 0), rotate(0)"/>
</g>
<text font-family="monospace" font-size="0.55001163" font-weight="500" x="0" y="-0.27500582">
height: 70.007 | width: 22.000 | usage: 87.717% | final_best
</text>
</svg>