<svg viewBox="-11.758595 -3.950001 258.68903 86.90001" xmlns="http://www.w3.org/2000/svg" xmlns:xlink="http://www.w3.org/1999/xlink">
<g id="bin_0">
<path d="M0,0 L235.17184,0 L235.17184,79 L0,79 z" fill="#D3D3D3" stroke="black" stroke-width="0.43450004"/>
<title>bin, id: 0, bbox: [x_min: 0.000, y_min: 0.000, x_max: 235.172, y_max: 79.000]</title>
</g>
<g id="items">
<defs>
<g id="item_0">
<path d="M0,0 L12,-1 L14,-3.0000005 L24,0 L33,1 L59,2 L59,13 L4,13 L4,8 L2,5 L0,5 z" fill="#7A7A7A" fill-opacity="0.5" fill-rule="nonzero" stroke="black" stroke-width="0.21725002"/>
</g>
<g id="item_1">
<path d="M0,0 L0,-14 L27,-17 L37,-20 L41,-22 L47,-19 L56,-16 L56,0 z" fill="#7A7A7A" fill-opacity="0.5" fill-rule="nonzero" stroke="black" stroke-width="0.21725002"/>
</g>
<g id="item_2">
<path d="M0,0 L57,0 L57,5 L0,5 z" fill="#7A7A7A" fill-opacity="0.5" fill-rule="nonzero" stroke="black" stroke-width="0.21725002"/>
</g>
<g id="item_3">
<path d="M0,0 L52,0 L52,5 L0,5 z" fill="#7A7A7A" fill-opacity="0.5" fill-rule="nonzero" stroke="black" stroke-width="0.21725002"/>
</g>
<g id="item_4">
<path d="M0,0 L44,0 L44,5 L0,5 z" fill="#7A7A7A" fill-opacity="0.5" fill-rule="nonzero" stroke="black" stroke-width="0.21725002"/>
</g>
<g id="item_5">
<path d="M0,0 L42,0 L42,5 L0,5 z" fill="#7A7A7A" fill-opacity="0.5" fill-rule="nonzero" stroke="black" stroke-width="0.21725002"/>
</g>
<g id="item_6">
<path d="M0,0 L21,0 L21,2 L0,2 z" fill="#7A7A7A" fill-opacity="0.5" fill-rule="nonzero" stroke="black" stroke-width="0.21725002"/>
</g>
<g id="item_7">
<path d="M0,0 L15,4 L13,7 L0,6 z" fill="#7A7A7A" fill-opacity="0.5" fill-rule="nonzero" stroke="black" stroke-width="0.21725002"/>
</g>
<g id="item_8">
<path d="M0,0 L15,1 L15,4 L0,4 z" fill="#7A7A7A" fill-opacity="0.5" fill-rule="nonzero" stroke="black" stroke-width="0.21725002"/>
</g>
<g id="item_9">
<path d="M0,0 L14,0 L14,5 L0,5 z" fill="#7A7A7A" fill-opacity="0.5" fill-rule="nonzero" stroke="black" stroke-width="0.21725002"/>
</g>
<g id="item_10">
<path d="M0,0 L14,1 L14,4 L0,4 z" fill="#7A7A7A" fill-opacity="0.5" fill-rule="nonzero" stroke="black" stroke-width="0.21725002"/>
</g>
<g id="item_11">
<path d="M0,0 L13,0 L13,5 L0,5 z" fill="#7A7A7A" fill-opacity="0.5" fill-rule="nonzero" stroke="black" stroke-width="0.21725002"/>
</g>
<g id="item_12">
<path d="M0,0 L13,1 L13,4 L0,4 z" fill="#7A7A7A" fill-opacity="0.5" fill-rule="nonzero" stroke="black" stroke-width="0.21725002"/>
</g>
<g id="item_13">
<path d="M0,0 L12,0 L12,5 L0,5 z" fill="#7A7A7A" fill-opacity="0.5" fill-rule="nonzero" stroke="black" stroke-width="0.21725002"/>
</g>
<g id="item_14">
<path d="M0,0 L4,2 L6,10 L4,11 L-4,11 L-6,10 L-4,2 z" fill="#7A7A7A" fill-opacity="0.5" fill-rule="nonzero" stroke="black" stroke-width="0.21725002"/>
</g>
<g id="item_15">
<path d="M0,0 L3,-2 L8,0 L8,8 L2,8 z" fill="#7A7A7A" fill-opacity="0.5" fill-rule="nonzero" stroke="black" stroke-width="0.21725002"/>
</g>
<g id="item_16">
<path d="M0,0 L2,1 L3,6 L2,7 L-2,7 L-3,6 L-2,1 z" fill="#7A7A7A" fill-opacity="0.5" fill-rule="nonzero" stroke="black" stroke-width="0.21725002"/>
</g>
</defs>
<use transform="translate(235.13727 0.0038490295), rotate(-180)" xlink:href="#item_1">
<title>item, id: 1, transf: [r: -180.000°, t: (235.137, 0.004)]</title>
</use>
<use transform="translate(179.16602 74.99788), rotate(0)" xlink:href="#item_1">
<title>item, id: 1, transf: [r: 0.000°, t: (179.166, 74.998)]</title>
</use>
<use transform="translate(123.15674 73.998924), rotate(0)" xlink:href="#item_1">
<title>item, id: 1, transf: [r: 0.000°, t: (123.157, 73.999)]</title>
</use>
<use transform="translate(170.04773 37.3432), rotate(-180)" xlink:href="#item_1">
<title>item, id: 1, transf: [r: -180.000°, t: (170.048, 37.343)]</title>
</use>
<use transform="translate(115.0035 0.0010681152), rotate(-180)" xlink:href="#item_1">
<title>item, id: 1, transf: [r: -180.000°, t: (115.004, 0.001)]</title>
</use>
<use transform="translate(226.04897 38.34337), rotate(-180)" xlink:href="#item_1">
<title>item, id: 1, transf: [r: -180.000°, t: (226.049, 38.343)]</title>
</use>
<use transform="translate(173.17043 38.3433), rotate(0)" xlink:href="#item_1">
<title>item, id: 1, transf: [r: 0.000°, t: (173.170, 38.343)]</title>
</use>
<use transform="translate(0.0012645721 78.992065), rotate(0)" xlink:href="#item_1">
<title>item, id: 1, transf: [r: 0.000°, t: (0.001, 78.992)]</title>
</use>
<use transform="translate(182.48003 23.027548), rotate(-180)" xlink:href="#item_0">
<title>item, id: 0, transf: [r: -180.000°, t: (182.480, 23.028)]</title>
</use>
<use transform="translate(114.16996 24.266087), rotate(0)" xlink:href="#item_0">
<title>item, id: 0, transf: [r: 0.000°, t: (114.170, 24.266)]</title>
</use>
<use transform="translate(59.016846 55.196396), rotate(-180)" xlink:href="#item_0">
<title>item, id: 0, transf: [r: -180.000°, t: (59.017, 55.196)]</title>
</use>
<use transform="translate(118.00137 37.01336), rotate(-180)" xlink:href="#item_0">
<title>item, id: 0, transf: [r: -180.000°, t: (118.001, 37.013)]</title>
</use>
<use transform="translate(55.028435 42.19357), rotate(0)" xlink:href="#item_0">
<title>item, id: 0, transf: [r: 0.000°, t: (55.028, 42.194)]</title>
</use>
<use transform="translate(0.0007686615 24.176186), rotate(0)" xlink:href="#item_0">
<title>item, id: 0, transf: [r: 0.000°, t: (0.001, 24.176)]</title>
</use>
<use transform="translate(59.000656 13.000369), rotate(-180)" xlink:href="#item_0">
<title>item, id: 0, transf: [r: -180.000°, t: (59.001, 13.000)]</title>
</use>
<use transform="translate(56.014053 65.99291), rotate(0)" xlink:href="#item_0">
<title>item, id: 0, transf: [r: 0.000°, t: (56.014, 65.993)]</title>
</use>
<use transform="translate(121.97963 0.0022006035), rotate(0)" xlink:href="#item_2">
<title>item, id: 2, transf: [r: 0.000°, t: (121.980, 0.002)]</title>
</use>
<use transform="translate(52.002136 42.18737), rotate(-180)" xlink:href="#item_3">
<title>item, id: 3, transf: [r: -180.000°, t: (52.002, 42.187)]</title>
</use>
<use transform="translate(128.04524 73.99975), rotate(0)" xlink:href="#item_4">
<title>item, id: 4, transf: [r: 0.000°, t: (128.045, 74.000)]</title>
</use>
<use transform="translate(137.1238 5.002735), rotate(0)" xlink:href="#item_5">
<title>item, id: 5, transf: [r: 0.000°, t: (137.124, 5.003)]</title>
</use>
<use transform="translate(88.12403 66.23507), rotate(-180)" xlink:href="#item_14">
<title>item, id: 14, transf: [r: -180.000°, t: (88.124, 66.235)]</title>
</use>
<use transform="translate(107.16028 66.19452), rotate(-180)" xlink:href="#item_14">
<title>item, id: 14, transf: [r: -180.000°, t: (107.160, 66.195)]</title>
</use>
<use transform="translate(33.13502 13.741737), rotate(0)" xlink:href="#item_14">
<title>item, id: 14, transf: [r: 0.000°, t: (33.135, 13.742)]</title>
</use>
<use transform="translate(23.737833 23.282541), rotate(-180)" xlink:href="#item_14">
<title>item, id: 14, transf: [r: -180.000°, t: (23.738, 23.283)]</title>
</use>
<use transform="translate(6.0001516 12.342897), rotate(0)" xlink:href="#item_14">
<title>item, id: 14, transf: [r: 0.000°, t: (6.000, 12.343)]</title>
</use>
<use transform="translate(117.11742 54.372707), rotate(0)" xlink:href="#item_14">
<title>item, id: 14, transf: [r: 0.000°, t: (117.117, 54.373)]</title>
</use>
<use transform="translate(51.34371 14.727367), rotate(0)" xlink:href="#item_14">
<title>item, id: 14, transf: [r: 0.000°, t: (51.344, 14.727)]</title>
</use>
<use transform="translate(97.64292 56.163647), rotate(0)" xlink:href="#item_14">
<title>item, id: 14, transf: [r: 0.000°, t: (97.643, 56.164)]</title>
</use>
<use transform="translate(137.11462 10.024988), rotate(-180)" xlink:href="#item_9">
<title>item, id: 9, transf: [r: -180.000°, t: (137.115, 10.025)]</title>
</use>
<use transform="translate(83.64527 42.687122), rotate(-180)" xlink:href="#item_7">
<title>item, id: 7, transf: [r: -180.000°, t: (83.645, 42.687)]</title>
</use>
<use transform="translate(56.9154 16.99525), rotate(0)" xlink:href="#item_7">
<title>item, id: 7, transf: [r: 0.000°, t: (56.915, 16.995)]</title>
</use>
<use transform="translate(235.1698 22.44494), rotate(-180)" xlink:href="#item_7">
<title>item, id: 7, transf: [r: -180.000°, t: (235.170, 22.445)]</title>
</use>
<use transform="translate(83.8205 36.525883), rotate(0)" xlink:href="#item_7">
<title>item, id: 7, transf: [r: 0.000°, t: (83.821, 36.526)]</title>
</use>
<use transform="translate(60.361115 63.1683), rotate(-180)" xlink:href="#item_7">
<title>item, id: 7, transf: [r: -180.000°, t: (60.361, 63.168)]</title>
</use>
<use transform="translate(0.0546031 56.41164), rotate(0)" xlink:href="#item_7">
<title>item, id: 7, transf: [r: 0.000°, t: (0.055, 56.412)]</title>
</use>
<use transform="translate(15.027852 60.339294), rotate(-180)" xlink:href="#item_7">
<title>item, id: 7, transf: [r: -180.000°, t: (15.028, 60.339)]</title>
</use>
<use transform="translate(83.010666 65.80505), rotate(-180)" xlink:href="#item_7">
<title>item, id: 7, transf: [r: -180.000°, t: (83.011, 65.805)]</title>
</use>
<use transform="translate(20.488853 55.044594), rotate(0)" xlink:href="#item_11">
<title>item, id: 11, transf: [r: 0.000°, t: (20.489, 55.045)]</title>
</use>
<use transform="translate(214.16068 76.99814), rotate(-180)" xlink:href="#item_6">
<title>item, id: 6, transf: [r: -180.000°, t: (214.161, 76.998)]</title>
</use>
<use transform="translate(105.29856 21.13659), rotate(0)" xlink:href="#item_6">
<title>item, id: 6, transf: [r: 0.000°, t: (105.299, 21.137)]</title>
</use>
<use transform="translate(89.978516 16.860556), rotate(0)" xlink:href="#item_6">
<title>item, id: 6, transf: [r: 0.000°, t: (89.979, 16.861)]</title>
</use>
<use transform="translate(172.04803 74.99863), rotate(0)" xlink:href="#item_6">
<title>item, id: 6, transf: [r: 0.000°, t: (172.048, 74.999)]</title>
</use>
<use transform="translate(193.09576 76.99899), rotate(0)" xlink:href="#item_6">
<title>item, id: 6, transf: [r: 0.000°, t: (193.096, 76.999)]</title>
</use>
<use transform="translate(193.05215 78.999214), rotate(-180)" xlink:href="#item_6">
<title>item, id: 6, transf: [r: -180.000°, t: (193.052, 78.999)]</title>
</use>
<use transform="translate(235.15877 78.99897), rotate(-180)" xlink:href="#item_6">
<title>item, id: 6, transf: [r: -180.000°, t: (235.159, 78.999)]</title>
</use>
<use transform="translate(235.17082 76.99861), rotate(-180)" xlink:href="#item_6">
<title>item, id: 6, transf: [r: -180.000°, t: (235.171, 76.999)]</title>
</use>
<use transform="translate(113.82536 44.18175), rotate(-180)" xlink:href="#item_8">
<title>item, id: 8, transf: [r: -180.000°, t: (113.825, 44.182)]</title>
</use>
<use transform="translate(81.29677 19.013103), rotate(0)" xlink:href="#item_13">
<title>item, id: 13, transf: [r: 0.000°, t: (81.297, 19.013)]</title>
</use>
<use transform="translate(105.2973 23.862873), rotate(-180)" xlink:href="#item_13">
<title>item, id: 13, transf: [r: -180.000°, t: (105.297, 23.863)]</title>
</use>
<use transform="translate(37.353893 16.606785), rotate(0)" xlink:href="#item_15">
<title>item, id: 15, transf: [r: 0.000°, t: (37.354, 16.607)]</title>
</use>
<use transform="translate(123.08114 9.667058), rotate(-180)" xlink:href="#item_15">
<title>item, id: 15, transf: [r: -180.000°, t: (123.081, 9.667)]</title>
</use>
<use transform="translate(226.78654 39.986183), rotate(0)" xlink:href="#item_15">
<title>item, id: 15, transf: [r: 0.000°, t: (226.787, 39.986)]</title>
</use>
<use transform="translate(115.415565 13.062704), rotate(0)" xlink:href="#item_15">
<title>item, id: 15, transf: [r: 0.000°, t: (115.416, 13.063)]</title>
</use>
<use transform="translate(19.333342 19.67535), rotate(-180)" xlink:href="#item_15">
<title>item, id: 15, transf: [r: -180.000°, t: (19.333, 19.675)]</title>
</use>
<use transform="translate(235.17021 55.99924), rotate(-180)" xlink:href="#item_15">
<title>item, id: 15, transf: [r: -180.000°, t: (235.170, 55.999)]</title>
</use>
<use transform="translate(123.12476 73.38059), rotate(-180)" xlink:href="#item_15">
<title>item, id: 15, transf: [r: -180.000°, t: (123.125, 73.381)]</title>
</use>
<use transform="translate(68.362335 63.213634), rotate(-180)" xlink:href="#item_15">
<title>item, id: 15, transf: [r: -180.000°, t: (68.362, 63.214)]</title>
</use>
<use transform="translate(81.47577 59.549026), rotate(-180)" xlink:href="#item_10">
<title>item, id: 10, transf: [r: -180.000°, t: (81.476, 59.549)]</title>
</use>
<use transform="translate(115.01831 74.99782), rotate(0)" xlink:href="#item_12">
<title>item, id: 12, transf: [r: 0.000°, t: (115.018, 74.998)]</title>
</use>
<use transform="translate(65.00282 41.36093), rotate(-180)" xlink:href="#item_12">
<title>item, id: 12, transf: [r: -180.000°, t: (65.003, 41.361)]</title>
</use>
<use transform="translate(232.1708 29.395725), rotate(-180)" xlink:href="#item_16">
<title>item, id: 16, transf: [r: -180.000°, t: (232.171, 29.396)]</title>
</use>
<use transform="translate(113.92941 14.124839), rotate(0)" xlink:href="#item_16">
<title>item, id: 16, transf: [r: 0.000°, t: (113.929, 14.125)]</title>
</use>
<use transform="translate(17.796215 55.792458), rotate(0)" xlink:href="#item_16">
<title>item, id: 16, transf: [r: 0.000°, t: (17.796, 55.792)]</title>
</use>
<use transform="translate(232.17099 38.914417), rotate(-180)" xlink:href="#item_16">
<title>item, id: 16, transf: [r: -180.000°, t: (232.171, 38.914)]</title>
</use>
</g>
<g id="quality_zones"/>
<g id="optionals">
<g id="overlap_lines" transform="translate(0 0), rotate(0)"/>
</g>
<text font-family="monospace" font-size="1.975" font-weight="500" x="0" y="-0.9875">
height: 79.000 | width: 235.172 | usage: 92.615% | final_best
</text>
</svg>