<svg viewBox="-216.10759 -100.00002 4754.3657 2200" xmlns="http://www.w3.org/2000/svg">
<g id="container_0">
<path d="M0,0 L4322.151,0 L4322.151,2000 L0,2000 z" fill="#D3D3D3" stroke="black" stroke-width="11"/>
<title>container, id: 0, bbox: [x_min: 0.000, y_min: 0.000, x_max: 4322.151, y_max: 2000.000]</title>
</g>
<g id="items">
<defs>
<g id="item_0">
<path d="M230.101,703.388 L229.821,703.442 L229.536,703.442 L228.732,703.442 L227.34,702.638 L226.536,701.245 L226.536,700.442 L226.536,669.819 L225.973,666.266 L224.34,663.06 L221.796,660.516 L218.59,658.882 L215.036,658.319 L211.482,658.882 L208.276,660.516 L205.732,663.06 L204.099,666.266 L203.536,669.819 L203.536,700.442 L203.536,701.245 L202.732,702.638 L201.34,703.442 L200.536,703.442 L200.251,703.442 L199.971,703.388 L194.321,701.837 L183.527,697.275 L173.428,691.332 L164.198,684.112 L155.998,675.741 L148.971,666.363 L143.239,656.142 L138.902,645.256 L137.468,639.575 L6.07968,118.938 L4.06231,110.944 L1.35717,94.6779 L0.0000000148287,78.2446 L0,70 L0,10 L0,8.01088 L1.52241,4.33546 L4.33546,1.52241 L8.01088,-0.00000000000000177636 L10,0 L50,0 L51.9891,0 L55.6645,1.52241 L58.4776,4.33546 L60,8.01088 L60,10 L60,120 L60.6029,122.25 L62.25,123.897 L64.5,124.5 L66.75,123.897 L68.3971,122.25 L69,120 L69,93 L69,92.1962 L69.8038,90.8038 L71.1962,90 L72,90 L132.78,90 L134.216,90 L136.896,91.0358 L139.022,92.9681 L140.309,95.5371 L140.446,96.9671 L161.632,318.129 L163,325.755 L165.594,333.056 L169.345,339.835 L174.152,345.912 L179.885,351.123 L186.393,355.329 L193.499,358.416 L201.014,360.302 L208.736,360.936 L216.603,360.277 L224.251,358.32 L231.467,355.119 L238.05,350.763 L243.817,345.373 L248.609,339.099 L252.29,332.116 L294.496,232.748 L295.027,231.498 L297.291,230 L298.648,230 L308.333,230 L309.666,230 L312.13,231.021 L314.015,232.906 L315.036,235.37 L315.036,236.703 L315.036,357 L315.438,358.5 L316.536,359.598 L318.036,360 L331.536,360 L333.036,359.598 L334.134,358.5 L334.536,357 L334.536,103 L334.536,102.196 L335.34,100.804 L336.732,100 L337.536,100 L351.536,100 L354.169,100 L359.256,101.363 L363.816,103.996 L367.54,107.72 L370.173,112.28 L371.536,117.367 L371.536,120 L371.536,215 L372.206,217.5 L374.036,219.33 L376.536,220 L379.036,219.33 L380.866,217.5 L381.536,215 L381.536,195 L381.536,193.66 L382.876,191.34 L385.196,190 L386.536,190 L435.08,190 L435.884,190 L437.276,190.804 L438.08,192.196 L438.08,193 L438.08,193.476 L437.932,193.929 L291.104,644.773 L289.573,649.473 L285.498,658.48 L280.46,666.986 L274.518,674.887 L271.132,678.487 L267.8,682.03 L260.409,688.354 L252.379,693.842 L243.803,698.432 L234.782,702.068 z" fill="#7A7A7A" fill-opacity="0.5" fill-rule="nonzero" stroke="black" stroke-width="5.5"/>
</g>
<g id="cd_shape_0">
<path d="M226.536,705.3916 L226.536,669.819 L224.34,663.06 L218.59,658.882 L211.482,658.882 L205.732,663.06 L203.536,669.819 L203.536,702.1736 L199.97888,704.2282 L183.527,697.275 L168.33405,688.3343 L151.86298,671.5198 L140.34789,650.98676 L4.062317,110.944 L0,86.51727 L0,3.3182068 L8.0108795,0 L54.142075,0 L60,5.8578186 L60,120 L64.5,124.5 L69,120 L69,90 L135.75638,90 L140.1622,94.004425 L161.632,318.129 L165.594,333.056 L169.345,339.835 L179.885,351.123 L186.393,355.329 L201.014,360.302 L216.603,360.277 L231.467,355.119 L238.05,350.763 L248.609,339.099 L252.29,332.116 L295.6632,230 L309.666,230 L315.036,232.22514 L315.036,357 L318.036,360 L331.536,360 L334.536,357 L334.536,100 L356.89545,100 L366.17682,105.35916 L371.536,114.64053 L371.536,215 L376.536,220 L381.536,215 L381.536,190 L439.21204,190 L288.035,654.19653 L280.46,666.986 L271.57565,678.79944 L256.69452,691.5322 L243.803,698.432 z" fill="none" stroke="black" stroke-dasharray="5.5 11" stroke-linecap="round" stroke-linejoin="round" stroke-opacity="0.3" stroke-width="2.75"/>
</g>
<g id="item_1">
<path d="M481.138,2.19945 L482.23,2.35483 L483.995,3.67893 L484.45,4.6841 L484.628,5.07713 L484.628,5.50852 L484.628,6.18781 L483.8,7.26537 L483.144,7.44073 L479.283,9.18722 L476.189,12.0826 L474.191,15.8192 L473.5,20.0001 L474.136,24.0173 L475.983,27.6413 L478.859,30.5173 L482.483,32.3638 L486.5,33.0001 L490.517,32.3638 L494.141,30.5173 L497.017,27.6413 L498.864,24.0173 L499.5,20.0001 L498.93,16.1919 L497.269,12.7177 L494.663,9.88258 L491.341,7.93513 L490.772,7.70694 L490.086,6.69175 L490.086,6.07898 L490.086,5.76434 L490.183,5.46489 L490.509,4.45173 L491.932,2.86747 L493.876,2.00011 L494.941,2.00011 L503.5,2.00011 L505.091,2.00011 L508.032,3.21804 L510.282,5.46848 L511.5,8.40882 L511.5,10.0001 L511.5,19.0116 L511.5,21.0304 L510.433,24.9243 L508.374,28.3974 L506.922,29.8 L500.255,36.2404 L498.674,38.5404 L498.118,41.275 L498.118,55.4888 L498.667,58.1221 L500.168,60.3541 L509.348,69.534 L510.332,70.5186 L511.398,73.0914 L511.398,74.4837 L511.398,75.6158 L511.041,76.6901 L510.441,78.4959 L507.883,81.313 L504.403,82.8534 L502.5,82.8534 L501.429,82.8534 L500.389,82.6022 L499.871,82.4773 L499.097,81.7464 L498.943,81.237 L497.133,77.5214 L494.249,74.5617 L490.58,72.6571 L486.5,72.0001 L482.483,72.6364 L478.859,74.4829 L475.983,77.3589 L474.136,80.9829 L473.5,85.0001 L474.136,89.0173 L475.983,92.6413 L478.859,95.5173 L482.483,97.3638 L486.5,98.0001 L490.58,97.3431 L494.249,95.4385 L497.133,92.4789 L498.943,88.7633 L499.097,88.2539 L499.871,87.5229 L500.389,87.398 L501.429,87.1469 L502.5,87.1469 L504.29,87.1469 L507.598,88.517 L510.13,91.0488 L511.5,94.3567 L511.5,96.1469 L511.5,100 L511.5,102.817 L510.246,108.31 L507.802,113.385 L504.29,117.79 L499.885,121.302 L494.809,123.747 L489.317,125 L486.5,125 L398.905,125 L390.595,125 L374.005,123.986 L357.508,121.96 L341.165,118.931 L333.101,116.921 L311.641,111.57 L294.422,107.831 L277.006,105.151 L259.46,103.538 L241.847,103 L210.274,103 L209.122,103 L207.172,101.776 L206.672,100.739 L206.473,100.327 L206.473,99.8698 L206.473,99.1176 L207.464,97.986 L208.21,97.8871 L211.797,96.8719 L214.949,94.8803 L217.406,92.076 L218.965,88.6898 L219.5,85 L218.864,80.9828 L217.017,77.3588 L214.141,74.4828 L210.517,72.6363 L206.5,72 L200.5,72 L196.483,72.6363 L192.859,74.4828 L189.983,77.3588 L188.136,80.9828 L187.5,85 L188.035,88.6898 L189.594,92.076 L192.051,94.8803 L195.203,96.8719 L198.79,97.8871 L199.536,97.986 L200.527,99.1176 L200.527,99.8698 L200.527,100.327 L200.328,100.739 L199.828,101.776 L197.878,103 L196.726,103 L196.719,103 L196.711,103 L90.2739,103 L89.1225,103 L87.1721,101.776 L86.6716,100.739 L86.4727,100.327 L86.4727,99.8697 L86.4727,99.1175 L87.464,97.986 L88.2097,97.8871 L91.797,96.8719 L94.9487,94.8802 L97.4055,92.076 L98.9654,88.6897 L99.5,85 L98.8637,80.9828 L97.0172,77.3588 L94.1412,74.4828 L90.5172,72.6363 L86.5,72 L80.5,72 L76.4828,72.6363 L72.8588,74.4828 L69.9828,77.3588 L68.1363,80.9828 L67.5,85 L68.0346,88.6897 L69.5945,92.076 L72.0513,94.8802 L75.203,96.8719 L78.7903,97.8871 L79.536,97.986 L80.5273,99.1175 L80.5273,99.8697 L80.5273,100.327 L80.3284,100.739 L79.8279,101.776 L77.8775,103 L76.7261,103 L26.7738,103 L25.6224,103 L23.672,101.776 L23.1715,100.739 L22.9727,100.327 L22.9727,99.8697 L22.9727,99.1175 L23.964,97.986 L24.7096,97.8871 L28.297,96.8719 L31.4487,94.8802 L33.9055,92.076 L35.4654,88.6897 L36,85 L35.3637,80.9828 L33.5172,77.3588 L30.6412,74.4828 L27.0172,72.6363 L23,72 L17,72 L13.5781,72.4584 L10.3976,73.8014 L7.68274,75.9342 L5.625,78.7064 L5.22873,79.4226 L3.81853,80.254 L3,80.254 L2.19615,80.254 L0.803848,79.4502 L-0.000000000000146549,78.0579 L0,77.254 L0,75.1972 L0.00000101292,72.5539 L1.51991,67.4905 L2.97565,65.2841 L5.09869,61.2655 L6.40538,56.9124 L6.84648,52.3889 L6.40538,47.8654 L5.09869,43.5123 L2.97566,39.4937 L1.51992,37.2873 L0.000011,32.2239 L0.000011,29.5806 L0.000012,27.746 L0.0000120758,26.9421 L0.80386,25.5498 L2.19616,24.746 L3.00001,24.746 L3.81854,24.746 L5.22874,25.5774 L5.62501,26.2936 L7.68275,29.0658 L10.3976,31.1986 L13.5781,32.5416 L17,33 L23,33 L27.0172,32.3637 L30.6412,30.5172 L33.5172,27.6412 L35.3637,24.0172 L36,20 L35.2076,15.5308 L32.9271,11.6064 L29.4364,8.70517 L25.1611,7.18088 L24.439,7.05916 L23.4935,5.94091 L23.4935,5.2087 L23.4935,5.18103 L23.4943,5.15337 L23.5328,3.75994 L24.9711,1.37164 L27.3983,-0.000000000000136779 L28.7923,0 L74.0774,0.000011 L75.0198,0.0000114942 L76.7063,0.841385 L77.2731,1.59427 L77.6752,2.12848 L77.6752,2.79714 L77.6752,3.43963 L76.9269,4.4842 L76.3185,4.69086 L72.7542,6.55961 L69.9322,9.42898 L68.123,13.024 L67.5,17 L68.1363,21.0172 L69.9828,24.6412 L72.8588,27.5172 L76.4828,29.3637 L80.5,30 L86.5,30 L90.5172,29.3637 L94.1412,27.5172 L97.0172,24.6412 L98.8637,21.0172 L99.5,17 L98.8771,13.024 L97.0679,9.42899 L94.2459,6.55962 L90.6815,4.69086 L90.0731,4.4842 L89.3248,3.43963 L89.3248,2.79714 L89.3248,2.12848 L89.727,1.59427 L90.2937,0.841388 L91.9803,0.000015 L92.9226,0.000015 L196.595,0.00004 L197.935,0.0000404234 L200.255,1.33979 L201.595,3.66029 L201.595,5.00004 L201.595,5.02283 L201.595,5.04561 L201.588,5.83358 L200.502,6.97618 L199.715,7.02374 L195.89,7.84472 L192.483,9.76652 L189.801,12.6151 L188.089,16.1324 L187.5,20 L188.136,24.0173 L189.983,27.6412 L192.859,30.5173 L196.483,32.3638 L200.5,33 L206.5,33 L210.517,32.3638 L214.141,30.5173 L217.017,27.6413 L218.864,24.0173 L219.5,20 L218.765,15.6915 L216.644,11.87 L213.376,8.96748 L209.331,7.31207 L208.645,7.15906 L207.767,6.06263 L207.767,5.36007 L207.767,5.32006 L207.768,5.28008 L207.826,3.84674 L209.326,1.40127 L211.829,0.000044 L213.264,0.000044 L214.681,0.000045 L217.345,0.0000457138 L222.554,1.12325 L227.41,3.31919 L231.694,6.48921 L235.213,10.4909 L237.81,15.1444 L238.589,17.6926 L240.666,22.5675 L243.724,26.8951 L247.626,30.481 L252.195,33.164 L257.228,34.8235 L262.497,35.3851 L434.846,35.3851 L440.26,34.7919 L445.417,33.0402 L450.072,30.2134 L454.005,26.4455 L457.028,21.9153 L458.999,16.8379 L459.679,14.2926 L462.311,9.72792 L466.035,6.00047 L470.597,3.36459 L475.687,2.00011 L478.321,2.00011 L479.737,2.00011 z" fill="#7A7A7A" fill-opacity="0.5" fill-rule="nonzero" stroke="black" stroke-width="5.5"/>
</g>
<g id="cd_shape_1">
<path d="M483.23495,2.0001106 L485.32492,6.616558 L489.66028,7.085331 L490.509,4.451729 L492.71106,2.0001106 L506.81433,2.0001106 L511.5,6.6867027 L511.5,23.124538 L508.374,28.3974 L500.255,36.2404 L498.118,41.275 L498.118,55.4888 L500.168,60.3541 L510.33157,70.51756 L511.86353,74.214874 L510.441,78.4959 L507.883,81.313 L504.403,82.8534 L506.22778,87.1469 L511.5,92.41868 L511.5,102.817 L510.246,108.31 L507.802,113.385 L504.29,117.79 L499.885,121.302 L494.809,123.747 L489.317,125 L390.595,125 L374.005,123.986 L357.508,121.96 L341.15356,118.92888 L311.641,111.57 L294.422,107.831 L277.006,105.151 L259.46,103.538 L241.847,103 L207.76245,103 L205.57768,98.47101 L201.42232,98.47101 L199.23755,103 L87.76288,103 L85.576965,98.47119 L81.423035,98.47119 L79.23712,103 L24.262451,103 L22.077225,98.47113 L28.296997,96.8719 L31.4487,94.8802 L33.905502,92.076 L35.465393,88.6897 L36,85 L35.36371,80.9828 L33.517197,77.3588 L30.641205,74.4828 L27.017197,72.6363 L23,72 L13.5780945,72.4584 L10.397598,73.8014 L7.6827393,75.9342 L4.64386,80.254 L0,80.254 L0,72.5539 L1.5198975,67.4905 L5.098694,61.2655 L6.405365,56.9124 L6.846466,52.3889 L6.405365,47.8654 L5.098694,43.5123 L1.519928,37.2873 L0,32.2239 L0,26.013885 L3.9368896,23.74105 L7.6827545,29.0658 L10.397598,31.1986 L13.5780945,32.5416 L23,33 L27.017197,32.3637 L30.641205,30.5172 L33.517197,27.641197 L35.36371,24.0172 L36,20 L35.207596,15.5308 L32.927094,11.6064 L29.436401,8.70517 L23.450546,6.733593 L23.577087,2.1594162 L27.3983,0 L75.019806,0.000011444092 L77.6752,1.3247604 L77.6752,4.112015 L72.75421,6.5596085 L69.93219,9.428978 L68.123,13.024002 L67.5,17 L68.13629,21.0172 L69.9828,24.641197 L72.858795,27.5172 L76.4828,29.3637 L80.5,30 L86.5,30 L90.5172,29.3637 L94.141205,27.5172 L97.0172,24.641197 L98.86371,21.0172 L99.5,17 L98.877106,13.024002 L97.0679,9.428989 L94.24591,6.55962 L89.3248,4.112026 L89.3248,1.3247337 L91.9803,0.000015258789 L199.48135,0.000038146973 L201.595,3.6602898 L201.595,6.770344 L195.89,7.844719 L192.483,9.766518 L189.801,12.615101 L188.089,16.1324 L187.5,20 L188.136,24.0173 L189.983,27.641197 L192.859,30.5173 L196.483,32.3638 L200.5,33 L206.5,33 L210.517,32.3638 L214.141,30.5173 L217.017,27.6413 L218.864,24.0173 L219.5,20 L218.765,15.691498 L216.644,11.869999 L213.376,8.96748 L207.7065,6.800316 L207.89249,2.203785 L211.829,0.000045776367 L217.345,0.000045776367 L222.554,1.123249 L227.41,3.319191 L231.694,6.489212 L236.64697,12.121574 L240.666,22.567497 L243.724,26.8951 L247.626,30.481003 L252.195,33.164 L257.228,34.8235 L262.497,35.3851 L434.846,35.3851 L440.26,34.7919 L445.417,33.0402 L450.072,30.213402 L454.005,26.4455 L457.028,21.915298 L459.679,14.292599 L462.311,9.727921 L466.035,6.000469 L470.597,3.3645897 L475.687,2.0001106 z" fill="none" stroke="black" stroke-dasharray="5.5 11" stroke-linecap="round" stroke-linejoin="round" stroke-opacity="0.3" stroke-width="2.75"/>
</g>
<g id="item_2">
<path d="M0,3 L0.000000000000000444089,2.19615 L0.803848,0.803848 L2.19615,0 L3,0 L27.1992,-0.0000000000000177636 L29.9793,-0.0000000000000177636 L35.3288,1.51654 L40.0619,4.43462 L43.8196,8.53298 L45.0683,11.0169 L122.407,164.858 L124.191,168.407 L126.593,175.978 L127.182,179.905 L162.448,415.223 L163,418.908 L163,422.634 L163,524.587 L163,529.448 L161.435,539.043 L158.346,548.262 L153.813,556.862 L147.954,564.621 L140.923,571.336 L132.903,576.831 L124.103,580.963 L114.752,583.625 L109.923,584.186 L3.34617,596.567 L3.17367,596.587 L3,596.587 L2.19615,596.587 L0.803848,595.783 L0.0000000988931,594.391 L0,593.587 L0,196 L0.00000000000000976996,195.196 L0.803848,193.804 L2.19615,193 L3,193 L20,193 L23.8268,192.239 L27.0711,190.071 L29.2388,186.827 L30,183 L30,153 L29.2388,149.173 L27.0711,145.929 L23.8268,143.761 L20,143 L3,143 L2.19615,143 L0.803848,142.196 L-0.000000000000000444089,140.804 L0,140 z" fill="#7A7A7A" fill-opacity="0.5" fill-rule="nonzero" stroke="black" stroke-width="5.5"/>
</g>
<g id="cd_shape_2">
<path d="M0,0 L35.995876,0 L43.8196,8.5329895 L125.99728,171.99974 L163,418.9063 L163,529.448 L160.64172,543.90656 L153.813,556.862 L144.9848,568.553 L128.84073,579.6143 L114.752,583.625 L0,596.95575 L0,193 L23.826797,192.239 L30,183 L30,153 L23.826797,143.761 L0,143 z" fill="none" stroke="black" stroke-dasharray="5.5 11" stroke-linecap="round" stroke-linejoin="round" stroke-opacity="0.3" stroke-width="2.75"/>
</g>
<g id="item_3">
<path d="M10,0 L18.5,0 L19.3038,0.000000000000000888178 L20.6962,0.803848 L21.5,2.19615 L21.5,3 L21.5,9.03852 L21.5,9.88979 L20.6058,11.3386 L19.8448,11.7202 L16.4868,14.2686 L14.2726,17.8559 L13.5,22 L14.0628,25.5537 L15.6963,28.7595 L18.2405,31.3037 L21.4463,32.9372 L25,33.5 L28.5537,32.9372 L31.7595,31.3037 L34.3037,28.7595 L35.9372,25.5537 L36.5,22 L35.7274,17.8559 L33.5132,14.2686 L30.1552,11.7202 L29.3942,11.3386 L28.5,9.88979 L28.5,9.03852 L28.5,3 L28.5,2.19615 L29.3038,0.803848 L30.6962,0 L31.5,0 L88.5,0 L89.3038,0.000000000000000888178 L90.6962,0.803848 L91.5,2.19615 L91.5,3 L91.5,9.03852 L91.5,9.88979 L90.6058,11.3386 L89.8448,11.7202 L86.4868,14.2686 L84.2726,17.8559 L83.5,22 L84.0628,25.5537 L85.6963,28.7595 L88.2405,31.3037 L91.4463,32.9372 L95,33.5 L98.5537,32.9372 L101.76,31.3037 L104.304,28.7595 L105.937,25.5537 L106.5,22 L105.727,17.8559 L103.513,14.2686 L100.155,11.7202 L99.3942,11.3386 L98.5,9.88979 L98.5,9.03852 L98.5,3 L98.5,2.19615 L99.3038,0.803848 L100.696,-0.000000000000000444089 L101.5,0 L110,0 L111.989,0 L115.665,1.52241 L118.478,4.33546 L120,8.01088 L120,10 L120,64.6455 L120,65.4494 L119.196,66.8417 L117.804,67.6455 L117,67.6455 L111.076,67.6455 L105.838,68.3388 L100.96,70.3708 L96.7793,73.6016 L93.5827,77.8089 L91.5906,82.7028 L91.4243,83.3409 L90.5872,84.3599 L89.9936,84.6469 L86.5615,87.1871 L84.2927,90.8043 L83.5,95 L84.0629,98.5537 L85.6963,101.76 L88.2405,104.304 L91.4463,105.937 L95,106.5 L98.5537,105.937 L101.76,104.304 L104.304,101.76 L105.937,98.5537 L106.5,95 L105.823,91.1112 L103.87,87.6807 L100.872,85.1124 L100.19,84.707 L99.4044,83.327 L99.4044,82.533 L99.4044,81.6958 L99.8379,80.9795 L101.013,79.038 L104.53,76.1685 L108.806,74.6455 L111.076,74.6455 L117,74.6455 L117.804,74.6455 L119.196,75.4494 L120,76.8417 L120,77.6455 L120,245.385 L120,255.02 L118.764,274.25 L116.296,293.361 L112.607,312.274 L107.712,330.911 L104.672,340.053 L101.59,351.297 L99.7261,362.807 L99.1025,374.449 L99.8343,387.058 L102.02,399.497 L105.629,411.6 L110.615,423.204 L116.909,434.154 L124.428,444.302 L133.07,453.512 L142.72,461.661 L153.247,468.639 L164.511,474.352 L176.361,478.723 L188.636,481.695 L201.173,483.227 L388.819,495.178 L392.042,495.383 L398.252,497.157 L403.943,500.213 L406.397,502.311 L410.817,506.09 L418.602,514.731 L425.201,524.307 L430.502,534.659 L432.459,540.135 L433.163,541.265 L433.895,543.825 L433.895,545.156 L433.895,547.046 L432.448,550.538 L429.776,553.21 L426.284,554.656 L424.395,554.656 L422.783,554.656 L421.261,554.125 L414.177,551.649 L413.743,551.498 L413.414,551.176 L408.21,546.086 L404.941,543.625 L401.152,542.08 L397.094,541.553 L395.907,541.598 L395.795,541.606 L395.683,541.606 L394.88,541.606 L393.487,540.802 L392.683,539.41 L392.683,538.606 L392.683,537.828 L393.439,536.468 L394.1,536.058 L396.368,534.048 L397.841,531.4 L398.351,528.413 L397.666,524.969 L395.715,522.049 L392.795,520.098 L389.351,519.413 L385.855,520.119 L382.909,522.128 L380.973,525.124 L377.513,533.939 L377.401,534.227 L376.891,534.574 L376.582,534.574 L371.732,534.574 L371.354,534.574 L371.071,534.324 L369.531,533.397 L367.763,533.074 L365.263,533.744 L363.433,535.574 L362.763,538.074 L363.433,540.574 L365.263,542.404 L367.763,543.074 L369.531,542.751 L371.071,541.824 L371.354,541.574 L371.732,541.574 L376.151,541.574 L376.512,541.574 L377.068,542.036 L377.134,542.391 L378.572,546.818 L381.098,550.729 L381.81,551.568 L381.81,552.669 L381.81,553.054 L381.712,553.428 L381.194,557.451 L381.87,562.037 L383.84,566.233 L387.923,571.4 L392.81,575.814 L398.364,579.353 L404.43,581.918 L405.942,582.413 L408.304,584.546 L409.597,587.454 L409.597,589.046 L409.597,590.586 L408.382,593.418 L406.149,595.542 L404.705,596.077 L401.366,597.316 L394.357,598.574 L390.797,598.574 L387.847,598.574 L382.01,597.708 L376.364,595.995 L373.697,594.734 L357.207,587.677 L340.235,581.87 L322.877,577.348 L321.846,577.12 L320.524,575.474 L320.524,574.419 L320.524,574.179 L320.562,573.943 L320.991,571.271 L321.12,570.469 L322.153,569.214 L322.915,568.932 L325.634,567.427 L327.777,565.177 L329.147,562.387 L329.618,559.316 L328.838,555.393 L326.616,552.068 L323.291,549.846 L319.368,549.066 L315.446,549.846 L312.121,552.068 L309.899,555.393 L309.118,559.316 L309.575,562.34 L310.904,565.096 L312.986,567.336 L313.523,567.763 L314.118,568.998 L314.118,569.684 L314.118,569.923 L314.08,570.16 L313.715,572.429 L313.54,573.52 L311.858,574.953 L310.753,574.953 L310.507,574.953 L310.264,574.913 L297.271,573.127 L284.201,572.053 L271.091,571.695 L258.187,572.042 L218.854,574.16 L213.481,574.449 L208.101,574.449 L199.369,574.449 L181.971,572.927 L164.772,569.894 L147.902,565.374 L131.491,559.401 L115.663,552.02 L100.539,543.288 L86.2325,533.271 L72.854,522.045 L60.5049,509.696 L49.279,496.317 L39.2618,482.011 L30.5296,466.886 L23.1489,451.058 L17.1757,434.647 L12.6556,417.778 L9.62292,400.579 L8.1008,383.181 L8.1008,374.449 L8.1008,365.752 L9.61054,348.425 L12.6186,331.294 L14.8605,322.891 L19.2824,303.846 L22.4543,284.554 L24.3629,265.096 L25,245.555 L25,168.095 L24.2091,158.385 L21.8571,148.93 L18.0061,139.982 L12.7576,131.774 L6.25,124.524 L4.27051,122.65 L1.45898,117.979 L0.0000000565529,112.726 L0,110 L0,77.6455 L-0.00000000000000222045,76.8417 L0.803848,75.4494 L2.19615,74.6455 L3,74.6455 L8.924,74.6455 L11.1936,74.6455 L15.4696,76.1685 L18.9868,79.038 L20.1621,80.9795 L20.5956,81.6958 L20.5956,82.533 L20.5956,83.327 L19.8102,84.707 L19.1276,85.1124 L16.13,87.6807 L14.1774,91.1112 L13.5,95 L14.0628,98.5537 L15.6963,101.76 L18.2405,104.304 L21.4463,105.937 L25,106.5 L28.5537,105.937 L31.7595,104.304 L34.3037,101.76 L35.9371,98.5537 L36.5,95 L35.7073,90.8043 L33.4385,87.1871 L30.0064,84.6469 L29.4128,84.3599 L28.5757,83.3409 L28.4094,82.7028 L26.4173,77.8089 L23.2207,73.6016 L19.0397,70.3708 L14.1622,68.3388 L8.924,67.6455 L3,67.6455 L2.19615,67.6455 L0.803848,66.8417 L0,65.4494 L0,64.6455 L0,10 L0,8.01088 L1.52241,4.33546 L4.33546,1.52241 L8.01088,-0.00000000000000177636 z" fill="#7A7A7A" fill-opacity="0.5" fill-rule="nonzero" stroke="black" stroke-width="5.5"/>
</g>
<g id="cd_shape_3">
<path d="M114.14263,0 L120,5.857483 L120,255.02 L118.764,274.25 L116.296,293.361 L112.607,312.274 L107.712,330.911 L104.672,340.053 L101.59,351.297 L99.7261,362.807 L99.1025,374.449 L99.8343,387.058 L102.02,399.497 L105.629,411.6 L110.615,423.204 L116.909,434.154 L124.428,444.302 L133.07,453.512 L142.72,461.661 L153.247,468.639 L164.511,474.352 L176.361,478.723 L188.636,481.695 L201.173,483.227 L395.33948,495.59302 L403.943,500.213 L410.81622,506.08914 L418.602,514.731 L425.201,524.307 L433.89496,541.28485 L433.89496,547.046 L431.66492,552.42786 L424.68042,555.32 L413.74298,551.498 L404.94098,543.625 L401.15198,542.08 L392.68298,541.4813 L392.68298,537.09265 L396.36798,534.048 L398.351,528.413 L397.66595,524.969 L395.71497,522.049 L389.351,519.413 L385.855,520.119 L382.909,522.128 L380.973,525.124 L377.26483,534.574 L376.98206,541.574 L378.572,546.818 L381.98868,551.77856 L381.194,557.451 L381.87,562.037 L383.84,566.233 L387.923,571.4 L392.81,575.814 L398.364,579.353 L407.66486,583.10876 L409.597,587.454 L409.597,592.2623 L404.96265,596.6704 L391.411,599.1027 L379.42645,597.3247 L357.207,587.677 L340.235,581.87 L320.12317,576.675 L313.24893,575.3313 L297.271,573.127 L284.201,572.053 L271.091,571.695 L258.187,572.042 L213.48697,574.449 L199.369,574.449 L181.971,572.927 L164.772,569.894 L147.902,565.374 L131.491,559.401 L115.663,552.02 L100.539,543.288 L86.2325,533.271 L72.854,522.045 L60.504898,509.696 L49.279,496.317 L39.261795,482.011 L30.529602,466.886 L23.148895,451.058 L17.175697,434.647 L12.6556015,417.778 L9.622917,400.579 L8.1008,383.181 L8.1008,365.752 L9.610542,348.425 L12.618599,331.294 L14.860504,322.891 L19.282402,303.846 L22.4543,284.554 L24.3629,265.096 L25,245.555 L25,168.095 L24.209099,158.385 L21.857101,148.93 L18.006104,139.982 L12.757599,131.774 L2.11174,120.32922 L0,112.726 L0,8.010895 L2.346344,2.3463135 L8.0108795,0 z" fill="none" stroke="black" stroke-dasharray="5.5 11" stroke-linecap="round" stroke-linejoin="round" stroke-opacity="0.3" stroke-width="2.75"/>
</g>
<g id="item_4">
<path d="M428.138,0 L429.21,-0.00000000000000710543 L431.066,1.0718 L432.138,2.9282 L432.138,4 L432.138,20.9008 L432.861,24.5363 L434.92,27.6183 L438.002,29.6777 L441.638,30.4008 L445.273,29.6777 L448.355,27.6183 L450.415,24.5363 L451.138,20.9008 L451.138,7.02762 L451.138,5.95583 L452.21,4.09942 L454.066,3.02762 L455.138,3.02762 L455.776,3.02762 L456.988,3.42414 L457.502,3.80101 L459.41,5.19907 L462.181,9.03394 L463.637,13.5353 L463.637,15.9008 L463.637,80.9008 L463.637,82.0943 L462.723,84.2995 L461.035,85.9874 L458.83,86.9008 L457.637,86.9008 L453.094,86.9008 L452.2,86.9008 L450.703,85.9208 L450.345,85.1008 L448.271,82.0996 L445.218,80.1013 L441.638,79.4008 L438.002,80.124 L434.92,82.1833 L432.861,85.2653 L432.138,88.9008 L432.861,92.5363 L434.92,95.6183 L438.002,97.6777 L441.638,98.4008 L445.218,97.7003 L448.271,95.7021 L450.345,92.7008 L450.703,91.8809 L452.2,90.9008 L453.094,90.9008 L457.637,90.9008 L458.83,90.9008 L461.035,91.8143 L462.723,93.5021 L463.637,95.7073 L463.637,96.9008 L463.637,99.3465 L463.637,101.313 L462.623,105.113 L460.664,108.524 L457.891,111.314 L456.193,112.304 L451.401,115.936 L447.614,120.606 L445.052,126.046 L443.863,131.939 L434.046,256.673 L433.429,264.518 L430.708,280.019 L426.524,295.191 L420.915,309.896 L413.933,324 L405.639,337.376 L396.111,349.902 L385.433,361.464 L373.704,371.957 L361.029,381.287 L347.524,389.368 L333.311,396.127 L318.519,401.503 L310.901,403.475 L289.142,409.912 L267.876,417.829 L247.205,427.188 L227.226,437.946 L208.033,450.051 L189.718,463.447 L172.366,478.07 L156.061,493.851 L140.878,510.714 L126.89,528.582 L114.164,547.368 L108.145,558.137 L103.264,569.467 L81.5696,627.928 L80.297,631.357 L76.605,637.673 L71.8774,643.257 L66.2562,647.939 L59.9107,651.58 L53.0316,654.07 L45.8257,655.334 L42.1678,655.334 L39.9528,655.334 L37.7501,655.101 L36.3683,654.955 L33.8928,653.692 L32.034,651.626 L31.0385,649.032 L31.0385,647.642 L31.0385,646.312 L31.953,643.815 L33.6706,641.784 L34.8262,641.125 L40.2562,637.399 L44.9896,632.82 L48.8941,627.517 L51.8608,621.637 L52.7245,618.718 L53.016,615.687 L52.6018,612.082 L51.3807,608.664 L51.0721,608.037 L51.0721,607.338 L51.0721,606.57 L51.4407,605.897 L53.0946,601.71 L53.6576,597.243 L53.6537,596.867 L53.653,596.836 L53.653,596.805 L53.653,596.001 L54.4569,594.609 L55.8492,593.805 L56.653,593.805 L57.2045,593.805 L58.2354,594.197 L58.6474,594.564 L60.1932,595.502 L61.9714,595.829 L64.4714,595.159 L66.3015,593.329 L66.9714,590.829 L66.3015,588.329 L64.4714,586.499 L61.9714,585.829 L60.0506,586.212 L58.4246,587.304 L57.3429,588.937 L56.9972,589.784 L55.4797,590.803 L54.5658,590.803 L53.8036,590.803 L52.4641,590.075 L52.0492,589.436 L46.436,580.786 L44.4288,578.595 L41.8174,577.176 L38.8864,576.685 L35.4422,577.371 L32.5224,579.322 L30.5715,582.241 L29.8864,585.685 L30.6162,589.236 L32.6875,592.21 L35.7641,594.127 L36.6472,594.453 L37.7234,595.999 L37.7234,596.94 L37.7234,597.676 L37.0417,598.982 L35.8333,599.823 L35.103,599.916 L30.7795,601.105 L26.96,603.454 L23.9484,606.776 L19.8684,612.806 L19.6076,613.191 L19.2067,613.428 L18.4031,614.135 L16.4007,614.891 L15.3304,614.893 L10.0111,614.899 L10.0056,614.899 L10,614.899 L8.01088,614.899 L4.33545,613.376 L1.52241,610.563 L0.0000000456416,606.888 L0.0000000456416,604.899 L0.0000000456417,603.103 L0.624736,601.419 L31.268,518.845 L35.0464,508.663 L44.0558,488.899 L54.4706,469.839 L66.2364,451.582 L79.2915,434.223 L86.4295,426.038 L94.2885,417.026 L111.018,399.938 L128.704,383.842 L147.287,368.79 L166.706,354.833 L186.896,342.017 L207.791,330.386 L229.321,319.976 L240.368,315.4 L285.601,296.661 L293.486,292.692 L300.703,287.608 L307.096,281.521 L312.527,274.562 L316.878,266.881 L320.054,258.646 L321.989,250.033 L322.638,241.229 L322.638,121.132 L322.638,113.763 L324.082,99.0959 L326.958,84.6411 L331.236,70.5376 L336.876,56.9214 L343.823,43.9236 L352.011,31.6694 L361.361,20.2767 L366.572,15.066 L369.922,11.7157 L372.708,8.92997 L379.259,4.55246 L386.539,1.53718 L394.267,0.000000136953 L398.206,0 L413.172,0 z" fill="#7A7A7A" fill-opacity="0.5" fill-rule="nonzero" stroke="black" stroke-width="5.5"/>
</g>
<g id="cd_shape_4">
<path d="M432.138,0 L432.138,20.900787 L434.92,27.618286 L441.638,30.400787 L445.273,29.677704 L450.415,24.536285 L451.138,20.900787 L451.138,3.0276184 L457.84094,3.0276184 L463.637,11.04892 L463.637,83.385544 L460.12155,86.9008 L460.1214,90.9008 L463.637,94.416 L463.637,103.34741 L459.8719,109.90326 L451.401,115.936005 L447.614,120.606 L445.052,126.04599 L443.863,131.939 L433.429,264.518 L430.708,280.019 L426.524,295.191 L420.915,309.896 L413.933,324 L405.639,337.376 L396.111,349.902 L385.433,361.464 L373.704,371.957 L361.029,381.287 L347.524,389.368 L333.311,396.127 L318.519,401.503 L289.142,409.912 L267.876,417.829 L247.205,427.188 L227.226,437.946 L208.033,450.051 L189.718,463.447 L172.366,478.07 L156.061,493.851 L140.878,510.714 L126.89,528.582 L114.164,547.368 L108.14499,558.137 L103.26401,569.467 L79.00549,634.83765 L69.4792,646.0897 L59.910706,651.58 L49.53961,655.334 L37.111084,655.334 L32.567368,653.01575 L30.528778,647.7038 L32.382797,642.6415 L40.256195,637.399 L44.989594,632.82 L48.894104,627.517 L51.86081,621.637 L53.01599,615.687 L50.78145,607.26843 L53.094604,601.71 L53.73961,595.0232 L52.93628,590.803 L44.428802,578.595 L38.8864,576.685 L35.4422,577.371 L30.571503,582.241 L30.616196,589.236 L32.6875,592.21 L38.77626,595.65906 L36.72014,599.598 L30.779495,601.105 L23.948395,606.776 L18.458694,614.8895 L8.016296,614.90125 L2.3462524,612.5517 L-0.7409973,605.09924 L35.046402,508.663 L44.0558,488.899 L54.470596,469.839 L66.23639,451.582 L79.291504,434.223 L94.2885,417.026 L111.018005,399.938 L128.704,383.842 L147.287,368.79 L166.706,354.833 L186.896,342.017 L207.791,330.386 L229.321,319.976 L285.601,296.661 L293.486,292.692 L300.703,287.608 L307.096,281.521 L312.527,274.562 L316.878,266.881 L320.054,258.646 L321.989,250.033 L322.638,241.229 L322.638,113.763 L324.082,99.0959 L326.958,84.6411 L331.236,70.5376 L336.876,56.921387 L343.823,43.923615 L352.011,31.669403 L361.361,20.276703 L375.5478,6.0895996 L390.2503,0 z" fill="none" stroke="black" stroke-dasharray="5.5 11" stroke-linecap="round" stroke-linejoin="round" stroke-opacity="0.3" stroke-width="2.75"/>
</g>
<g id="item_5">
<path d="M602.22,99.9962 L549.517,99.9962 L548.102,100.582 L547.517,101.996 L547.517,159.996 L547.517,160.825 L546.345,161.996 L545.517,161.996 L62.0167,161.996 L61.6025,161.996 L61.0167,161.41 L61.0167,160.996 L61.0167,101.996 L60.4309,100.582 L59.0167,99.9962 L2,99.9962 L1.17157,99.9962 L0.00000000000000621725,98.8246 L0,97.9962 L0,79.51 L0.00000000000000177636,78.6816 L1.17157,77.51 L2,77.51 L47.2976,77.51 L51.5733,76.8877 L55.4942,75.0725 L58.735,72.2149 L61.0269,68.5521 L83.3114,17.9158 L84.4793,15.2619 L87.7885,10.4997 L91.9484,6.45946 L96.8051,3.29064 L102.179,1.11058 L107.87,0.000000782303 L110.77,0.000000782303 L113.979,0.000000782303 L120.253,1.35783 L126.097,4.01203 L131.248,7.84246 L135.472,12.6758 L138.577,18.2932 L139.501,21.3668 L143.415,34.3935 L147.719,46.0379 L153.432,57.0593 L160.467,67.288 L168.715,76.5662 L175.862,82.6327 L183.866,87.5119 L192.533,91.0847 L201.651,93.2639 L210.997,93.9962 L411.725,93.9962 L418.582,93.7346 L425.399,92.9514 L457.914,87.9535 L463.068,86.952 L467.813,84.7029 L471.852,81.347 L474.932,77.094 L476.86,72.2099 L477.517,67 L476.801,61.5648 L474.703,56.5 L471.366,52.1508 L467.017,48.8135 L461.952,46.7156 L456.517,46 L443.42,46.7279 L443.084,46.7589 L442.746,46.7589 L441.284,46.7589 L438.583,45.6401 L436.516,43.5727 L435.397,40.8716 L435.397,39.4098 L435.397,38.1546 L435.813,36.9706 L438.891,28.2237 L440.044,24.9479 L443.637,19.0041 L448.367,13.9181 L454.035,9.90384 L460.402,7.13006 L467.202,5.71339 L470.674,5.71339 L470.947,5.71339 L471.221,5.71782 L475.932,5.79424 L485.221,7.38573 L494.158,10.3784 L502.532,14.7021 L506.339,17.4785 L603.398,88.2568 L603.785,88.5392 L604.22,89.3935 L604.22,89.8728 L604.22,97.9962 L604.22,98.8246 L603.048,99.9962 z" fill="#7A7A7A" fill-opacity="0.5" fill-rule="nonzero" stroke="black" stroke-width="5.5"/>
</g>
<g id="cd_shape_5">
<path d="M549.517,99.9962 L547.517,101.996 L547.517,161.996 L61.016693,161.996 L61.016693,101.996 L59.016693,99.9962 L0,99.9962 L0,77.51 L47.297607,77.51 L55.4942,75.0725 L61.0269,68.5521 L85.66928,12.5579605 L91.948395,6.4594574 L99.27902,1.676506 L111.0824,-0.6268921 L123.46155,2.0522385 L131.248,7.8424606 L137.6325,15.147972 L143.415,34.3935 L147.719,46.0379 L153.432,57.0593 L160.467,67.288 L168.715,76.5662 L175.862,82.6327 L183.866,87.5119 L192.533,91.0847 L201.651,93.2639 L210.997,93.9962 L411.725,93.9962 L425.399,92.9514 L463.068,86.952 L471.852,81.347 L474.932,77.094 L477.517,67 L476.801,61.5648 L471.366,52.1508 L467.017,48.8135 L461.952,46.7156 L456.517,46 L437.956,47.04861 L434.87967,39.622833 L440.04333,24.948975 L445.47208,15.968384 L456.93024,7.8533554 L470.92856,4.937004 L489.92166,8.191086 L502.532,14.702103 L604.22,88.8562 L604.22,99.9962 z" fill="none" stroke="black" stroke-dasharray="5.5 11" stroke-linecap="round" stroke-linejoin="round" stroke-opacity="0.3" stroke-width="2.75"/>
</g>
</defs>
<use href="#item_0" transform="translate(689.85315 1293.1642), rotate(0)">
<title>item, id: 0, transf: [r: 0.000°, t: (689.853, 1293.164)]</title>
</use>
<use href="#item_0" transform="translate(77.675385 1201.2539), rotate(0)">
<title>item, id: 0, transf: [r: 0.000°, t: (77.675, 1201.254)]</title>
</use>
<use href="#item_0" transform="translate(3779.27 19.229248), rotate(0)">
<title>item, id: 0, transf: [r: 0.000°, t: (3779.270, 19.229)]</title>
</use>
<use href="#item_0" transform="translate(3541.4456 390.7923), rotate(90)">
<title>item, id: 0, transf: [r: 90.000°, t: (3541.446, 390.792)]</title>
</use>
<use href="#item_0" transform="translate(1155.9313 1006.4818), rotate(0)">
<title>item, id: 0, transf: [r: 0.000°, t: (1155.931, 1006.482)]</title>
</use>
<use href="#item_0" transform="translate(820.13934 1999.9581), rotate(-180)">
<title>item, id: 0, transf: [r: -180.000°, t: (820.139, 1999.958)]</title>
</use>
<use href="#item_0" transform="translate(1281.6873 1699.368), rotate(-180)">
<title>item, id: 0, transf: [r: -180.000°, t: (1281.687, 1699.368)]</title>
</use>
<use href="#item_0" transform="translate(2547.114 1378.3418), rotate(-180)">
<title>item, id: 0, transf: [r: -180.000°, t: (2547.114, 1378.342)]</title>
</use>
<use href="#item_0" transform="translate(2768.5176 537.9287), rotate(-90)">
<title>item, id: 0, transf: [r: -90.000°, t: (2768.518, 537.929)]</title>
</use>
<use href="#item_0" transform="translate(3048.4963 19.31726), rotate(90)">
<title>item, id: 0, transf: [r: 90.000°, t: (3048.496, 19.317)]</title>
</use>
<use href="#item_3" transform="translate(2350.2705 402.29388), rotate(90)">
<title>item, id: 3, transf: [r: 90.000°, t: (2350.271, 402.294)]</title>
</use>
<use href="#item_3" transform="translate(1053.5939 1829.1726), rotate(-90)">
<title>item, id: 3, transf: [r: -90.000°, t: (1053.594, 1829.173)]</title>
</use>
<use href="#item_3" transform="translate(3681.6128 700.9613), rotate(-180)">
<title>item, id: 3, transf: [r: -180.000°, t: (3681.613, 700.961)]</title>
</use>
<use href="#item_3" transform="translate(229.46582 466.47986), rotate(-90)">
<title>item, id: 3, transf: [r: -90.000°, t: (229.466, 466.480)]</title>
</use>
<use href="#item_3" transform="translate(3394.8452 1565.9897), rotate(90)">
<title>item, id: 3, transf: [r: 90.000°, t: (3394.845, 1565.990)]</title>
</use>
<use href="#item_3" transform="translate(4105.0396 1280.9468), rotate(-180)">
<title>item, id: 3, transf: [r: -180.000°, t: (4105.040, 1280.947)]</title>
</use>
<use href="#item_3" transform="translate(754.5011 454.81573), rotate(90)">
<title>item, id: 3, transf: [r: 90.000°, t: (754.501, 454.816)]</title>
</use>
<use href="#item_3" transform="translate(1020.5813 735.26917), rotate(-90)">
<title>item, id: 3, transf: [r: -90.000°, t: (1020.581, 735.269)]</title>
</use>
<use href="#item_3" transform="translate(2911.9568 1879.4807), rotate(-90)">
<title>item, id: 3, transf: [r: -90.000°, t: (2911.957, 1879.481)]</title>
</use>
<use href="#item_3" transform="translate(831.0737 1047.331), rotate(90)">
<title>item, id: 3, transf: [r: 90.000°, t: (831.074, 1047.331)]</title>
</use>
<use href="#item_3" transform="translate(311.25122 694.9331), rotate(-90)">
<title>item, id: 3, transf: [r: -90.000°, t: (311.251, 694.933)]</title>
</use>
<use href="#item_3" transform="translate(2278.1816 163.42224), rotate(90)">
<title>item, id: 3, transf: [r: 90.000°, t: (2278.182, 163.422)]</title>
</use>
<use href="#item_3" transform="translate(2476.822 1304.8876), rotate(90)">
<title>item, id: 3, transf: [r: 90.000°, t: (2476.822, 1304.888)]</title>
</use>
<use href="#item_3" transform="translate(1104.8301 855.32837), rotate(-90)">
<title>item, id: 3, transf: [r: -90.000°, t: (1104.830, 855.328)]</title>
</use>
<use href="#item_3" transform="translate(741.3889 819.96277), rotate(90)">
<title>item, id: 3, transf: [r: 90.000°, t: (741.389, 819.963)]</title>
</use>
<use href="#item_3" transform="translate(3806.2356 1400.8141), rotate(0)">
<title>item, id: 3, transf: [r: 0.000°, t: (3806.236, 1400.814)]</title>
</use>
<use href="#item_3" transform="translate(3311.0674 1445.6022), rotate(90)">
<title>item, id: 3, transf: [r: 90.000°, t: (3311.067, 1445.602)]</title>
</use>
<use href="#item_3" transform="translate(3406.277 1289.8914), rotate(-90)">
<title>item, id: 3, transf: [r: -90.000°, t: (3406.277, 1289.891)]</title>
</use>
<use href="#item_3" transform="translate(4322.0894 599.70483), rotate(-180)">
<title>item, id: 3, transf: [r: -180.000°, t: (4322.089, 599.705)]</title>
</use>
<use href="#item_3" transform="translate(678.1872 223.10855), rotate(90)">
<title>item, id: 3, transf: [r: 90.000°, t: (678.187, 223.109)]</title>
</use>
<use href="#item_3" transform="translate(3882.0813 1005.1655), rotate(90)">
<title>item, id: 3, transf: [r: 90.000°, t: (3882.081, 1005.166)]</title>
</use>
<use href="#item_3" transform="translate(4067.6113 1865.4138), rotate(-180)">
<title>item, id: 3, transf: [r: -180.000°, t: (4067.611, 1865.414)]</title>
</use>
<use href="#item_3" transform="translate(893.63904 371.45648), rotate(0)">
<title>item, id: 3, transf: [r: 0.000°, t: (893.639, 371.456)]</title>
</use>
<use href="#item_3" transform="translate(298.14056 1060.1884), rotate(-90)">
<title>item, id: 3, transf: [r: -90.000°, t: (298.141, 1060.188)]</title>
</use>
<use href="#item_3" transform="translate(3820.9407 1939.051), rotate(-180)">
<title>item, id: 3, transf: [r: -180.000°, t: (3820.941, 1939.051)]</title>
</use>
<use href="#item_3" transform="translate(2961.7603 930.3004), rotate(-90)">
<title>item, id: 3, transf: [r: -90.000°, t: (2961.760, 930.300)]</title>
</use>
<use href="#item_3" transform="translate(372.1958 1301.2026), rotate(-90)">
<title>item, id: 3, transf: [r: -90.000°, t: (372.196, 1301.203)]</title>
</use>
<use href="#item_3" transform="translate(2651.5156 1341.1056), rotate(-90)">
<title>item, id: 3, transf: [r: -90.000°, t: (2651.516, 1341.106)]</title>
</use>
<use href="#item_3" transform="translate(2995.8862 1999.5665), rotate(-90)">
<title>item, id: 3, transf: [r: -90.000°, t: (2995.886, 1999.567)]</title>
</use>
<use href="#item_3" transform="translate(2734.8186 1467.9832), rotate(-90)">
<title>item, id: 3, transf: [r: -90.000°, t: (2734.819, 1467.983)]</title>
</use>
<use href="#item_4" transform="translate(2089.479 1754.9823), rotate(-180)">
<title>item, id: 4, transf: [r: -180.000°, t: (2089.479, 1754.982)]</title>
</use>
<use href="#item_4" transform="translate(3141.0615 607.7859), rotate(90)">
<title>item, id: 4, transf: [r: 90.000°, t: (3141.062, 607.786)]</title>
</use>
<use href="#item_4" transform="translate(2068.8552 1406.7672), rotate(-180)">
<title>item, id: 4, transf: [r: -180.000°, t: (2068.855, 1406.767)]</title>
</use>
<use href="#item_4" transform="translate(2350.477 816.766), rotate(-90)">
<title>item, id: 4, transf: [r: -90.000°, t: (2350.477, 816.766)]</title>
</use>
<use href="#item_4" transform="translate(3086.3289 755.2118), rotate(90)">
<title>item, id: 4, transf: [r: 90.000°, t: (3086.329, 755.212)]</title>
</use>
<use href="#item_4" transform="translate(1457.1553 158.91495), rotate(90)">
<title>item, id: 4, transf: [r: 90.000°, t: (1457.155, 158.915)]</title>
</use>
<use href="#item_4" transform="translate(1777.4175 1292.1871), rotate(-180)">
<title>item, id: 4, transf: [r: -180.000°, t: (1777.417, 1292.187)]</title>
</use>
<use href="#item_4" transform="translate(1747.0785 690.37244), rotate(0)">
<title>item, id: 4, transf: [r: 0.000°, t: (1747.078, 690.372)]</title>
</use>
<use href="#item_4" transform="translate(1542.1351 531.8771), rotate(0)">
<title>item, id: 4, transf: [r: 0.000°, t: (1542.135, 531.877)]</title>
</use>
<use href="#item_4" transform="translate(1509.7692 7.5372314), rotate(90)">
<title>item, id: 4, transf: [r: 90.000°, t: (1509.769, 7.537)]</title>
</use>
<use href="#item_5" transform="translate(4160.0415 1923.6624), rotate(-90)">
<title>item, id: 5, transf: [r: -90.000°, t: (4160.042, 1923.662)]</title>
</use>
<use href="#item_5" transform="translate(4229.6846 1220.2731), rotate(90)">
<title>item, id: 5, transf: [r: 90.000°, t: (4229.685, 1220.273)]</title>
</use>
<use href="#item_5" transform="translate(1615.3368 1838.0034), rotate(0)">
<title>item, id: 5, transf: [r: 0.000°, t: (1615.337, 1838.003)]</title>
</use>
<use href="#item_5" transform="translate(1999.259 1615.0112), rotate(0)">
<title>item, id: 5, transf: [r: 0.000°, t: (1999.259, 1615.011)]</title>
</use>
<use href="#item_5" transform="translate(2121.1807 1920.3883), rotate(-180)">
<title>item, id: 5, transf: [r: -180.000°, t: (2121.181, 1920.388)]</title>
</use>
<use href="#item_5" transform="translate(4160.064 1310.0503), rotate(-90)">
<title>item, id: 5, transf: [r: -90.000°, t: (4160.064, 1310.050)]</title>
</use>
<use href="#item_5" transform="translate(2486.7927 1530.7407), rotate(-90)">
<title>item, id: 5, transf: [r: -90.000°, t: (2486.793, 1530.741)]</title>
</use>
<use href="#item_5" transform="translate(78.96573 1837.8997), rotate(0)">
<title>item, id: 5, transf: [r: 0.000°, t: (78.966, 1837.900)]</title>
</use>
<use href="#item_5" transform="translate(2737.3442 1713.8843), rotate(-180)">
<title>item, id: 5, transf: [r: -180.000°, t: (2737.344, 1713.884)]</title>
</use>
<use href="#item_5" transform="translate(4258.9746 531.72363), rotate(90)">
<title>item, id: 5, transf: [r: 90.000°, t: (4258.975, 531.724)]</title>
</use>
<use href="#item_2" transform="translate(1701.6096 0.0015335083), rotate(90)">
<title>item, id: 2, transf: [r: 90.000°, t: (1701.610, 0.002)]</title>
</use>
<use href="#item_2" transform="translate(1528.1213 166.33383), rotate(-90)">
<title>item, id: 2, transf: [r: -90.000°, t: (1528.121, 166.334)]</title>
</use>
<use href="#item_2" transform="translate(3684.0483 88.314575), rotate(0)">
<title>item, id: 2, transf: [r: 0.000°, t: (3684.048, 88.315)]</title>
</use>
<use href="#item_2" transform="translate(978.9403 1999.8362), rotate(-90)">
<title>item, id: 2, transf: [r: -90.000°, t: (978.940, 1999.836)]</title>
</use>
<use href="#item_2" transform="translate(3297.778 1005.1348), rotate(-90)">
<title>item, id: 2, transf: [r: -90.000°, t: (3297.778, 1005.135)]</title>
</use>
<use href="#item_2" transform="translate(2610.0386 527.2341), rotate(90)">
<title>item, id: 2, transf: [r: 90.000°, t: (2610.039, 527.234)]</title>
</use>
<use href="#item_2" transform="translate(0.0024795532 1315.6146), rotate(0)">
<title>item, id: 2, transf: [r: 0.000°, t: (0.002, 1315.615)]</title>
</use>
<use href="#item_2" transform="translate(2702.8203 0.010513306), rotate(90)">
<title>item, id: 2, transf: [r: 90.000°, t: (2702.820, 0.011)]</title>
</use>
<use href="#item_2" transform="translate(0.03227997 566.391), rotate(0)">
<title>item, id: 2, transf: [r: 0.000°, t: (0.032, 566.391)]</title>
</use>
<use href="#item_2" transform="translate(1794.0089 166.3378), rotate(90)">
<title>item, id: 2, transf: [r: 90.000°, t: (1794.009, 166.338)]</title>
</use>
<use href="#item_1" transform="translate(2695.7686 1902.0172), rotate(-180)">
<title>item, id: 1, transf: [r: -180.000°, t: (2695.769, 1902.017)]</title>
</use>
<use href="#item_1" transform="translate(3663.0906 126.436386), rotate(-180)">
<title>item, id: 1, transf: [r: -180.000°, t: (3663.091, 126.436)]</title>
</use>
<use href="#item_1" transform="translate(2221.072 1874.9956), rotate(0)">
<title>item, id: 1, transf: [r: 0.000°, t: (2221.072, 1874.996)]</title>
</use>
<use href="#item_1" transform="translate(3699.7388 1487.5352), rotate(90)">
<title>item, id: 1, transf: [r: 90.000°, t: (3699.739, 1487.535)]</title>
</use>
<use href="#item_1" transform="translate(778.9847 819.9621), rotate(-180)">
<title>item, id: 1, transf: [r: -180.000°, t: (778.985, 819.962)]</title>
</use>
<use href="#item_1" transform="translate(2532.0608 1551.8386), rotate(-180)">
<title>item, id: 1, transf: [r: -180.000°, t: (2532.061, 1551.839)]</title>
</use>
<use href="#item_1" transform="translate(636.9889 125.00549), rotate(-180)">
<title>item, id: 1, transf: [r: -180.000°, t: (636.989, 125.005)]</title>
</use>
<use href="#item_1" transform="translate(0.032398224 511.86993), rotate(-90)">
<title>item, id: 1, transf: [r: -90.000°, t: (0.032, 511.870)]</title>
</use>
<use href="#item_1" transform="translate(162.55539 97.886665), rotate(0)">
<title>item, id: 1, transf: [r: 0.000°, t: (162.555, 97.887)]</title>
</use>
<use href="#item_1" transform="translate(2343.5342 401.98212), rotate(-180)">
<title>item, id: 1, transf: [r: -180.000°, t: (2343.534, 401.982)]</title>
</use>
</g>
<g id="quality_zones"/>
<g id="optionals">
<g id="highlight_cd_shapes">
<use href="#cd_shape_0" transform="translate(689.85315 1293.1642), rotate(0)"/>
<use href="#cd_shape_0" transform="translate(77.675385 1201.2539), rotate(0)"/>
<use href="#cd_shape_0" transform="translate(3779.27 19.229248), rotate(0)"/>
<use href="#cd_shape_0" transform="translate(3541.4456 390.7923), rotate(90)"/>
<use href="#cd_shape_0" transform="translate(1155.9313 1006.4818), rotate(0)"/>
<use href="#cd_shape_0" transform="translate(820.13934 1999.9581), rotate(-180)"/>
<use href="#cd_shape_0" transform="translate(1281.6873 1699.368), rotate(-180)"/>
<use href="#cd_shape_0" transform="translate(2547.114 1378.3418), rotate(-180)"/>
<use href="#cd_shape_0" transform="translate(2768.5176 537.9287), rotate(-90)"/>
<use href="#cd_shape_0" transform="translate(3048.4963 19.31726), rotate(90)"/>
<use href="#cd_shape_3" transform="translate(2350.2705 402.29388), rotate(90)"/>
<use href="#cd_shape_3" transform="translate(1053.5939 1829.1726), rotate(-90)"/>
<use href="#cd_shape_3" transform="translate(3681.6128 700.9613), rotate(-180)"/>
<use href="#cd_shape_3" transform="translate(229.46582 466.47986), rotate(-90)"/>
<use href="#cd_shape_3" transform="translate(3394.8452 1565.9897), rotate(90)"/>
<use href="#cd_shape_3" transform="translate(4105.0396 1280.9468), rotate(-180)"/>
<use href="#cd_shape_3" transform="translate(754.5011 454.81573), rotate(90)"/>
<use href="#cd_shape_3" transform="translate(1020.5813 735.26917), rotate(-90)"/>
<use href="#cd_shape_3" transform="translate(2911.9568 1879.4807), rotate(-90)"/>
<use href="#cd_shape_3" transform="translate(831.0737 1047.331), rotate(90)"/>
<use href="#cd_shape_3" transform="translate(311.25122 694.9331), rotate(-90)"/>
<use href="#cd_shape_3" transform="translate(2278.1816 163.42224), rotate(90)"/>
<use href="#cd_shape_3" transform="translate(2476.822 1304.8876), rotate(90)"/>
<use href="#cd_shape_3" transform="translate(1104.8301 855.32837), rotate(-90)"/>
<use href="#cd_shape_3" transform="translate(741.3889 819.96277), rotate(90)"/>
<use href="#cd_shape_3" transform="translate(3806.2356 1400.8141), rotate(0)"/>
<use href="#cd_shape_3" transform="translate(3311.0674 1445.6022), rotate(90)"/>
<use href="#cd_shape_3" transform="translate(3406.277 1289.8914), rotate(-90)"/>
<use href="#cd_shape_3" transform="translate(4322.0894 599.70483), rotate(-180)"/>
<use href="#cd_shape_3" transform="translate(678.1872 223.10855), rotate(90)"/>
<use href="#cd_shape_3" transform="translate(3882.0813 1005.1655), rotate(90)"/>
<use href="#cd_shape_3" transform="translate(4067.6113 1865.4138), rotate(-180)"/>
<use href="#cd_shape_3" transform="translate(893.63904 371.45648), rotate(0)"/>
<use href="#cd_shape_3" transform="translate(298.14056 1060.1884), rotate(-90)"/>
<use href="#cd_shape_3" transform="translate(3820.9407 1939.051), rotate(-180)"/>
<use href="#cd_shape_3" transform="translate(2961.7603 930.3004), rotate(-90)"/>
<use href="#cd_shape_3" transform="translate(372.1958 1301.2026), rotate(-90)"/>
<use href="#cd_shape_3" transform="translate(2651.5156 1341.1056), rotate(-90)"/>
<use href="#cd_shape_3" transform="translate(2995.8862 1999.5665), rotate(-90)"/>
<use href="#cd_shape_3" transform="translate(2734.8186 1467.9832), rotate(-90)"/>
<use href="#cd_shape_4" transform="translate(2089.479 1754.9823), rotate(-180)"/>
<use href="#cd_shape_4" transform="translate(3141.0615 607.7859), rotate(90)"/>
<use href="#cd_shape_4" transform="translate(2068.8552 1406.7672), rotate(-180)"/>
<use href="#cd_shape_4" transform="translate(2350.477 816.766), rotate(-90)"/>
<use href="#cd_shape_4" transform="translate(3086.3289 755.2118), rotate(90)"/>
<use href="#cd_shape_4" transform="translate(1457.1553 158.91495), rotate(90)"/>
<use href="#cd_shape_4" transform="translate(1777.4175 1292.1871), rotate(-180)"/>
<use href="#cd_shape_4" transform="translate(1747.0785 690.37244), rotate(0)"/>
<use href="#cd_shape_4" transform="translate(1542.1351 531.8771), rotate(0)"/>
<use href="#cd_shape_4" transform="translate(1509.7692 7.5372314), rotate(90)"/>
<use href="#cd_shape_5" transform="translate(4160.0415 1923.6624), rotate(-90)"/>
<use href="#cd_shape_5" transform="translate(4229.6846 1220.2731), rotate(90)"/>
<use href="#cd_shape_5" transform="translate(1615.3368 1838.0034), rotate(0)"/>
<use href="#cd_shape_5" transform="translate(1999.259 1615.0112), rotate(0)"/>
<use href="#cd_shape_5" transform="translate(2121.1807 1920.3883), rotate(-180)"/>
<use href="#cd_shape_5" transform="translate(4160.064 1310.0503), rotate(-90)"/>
<use href="#cd_shape_5" transform="translate(2486.7927 1530.7407), rotate(-90)"/>
<use href="#cd_shape_5" transform="translate(78.96573 1837.8997), rotate(0)"/>
<use href="#cd_shape_5" transform="translate(2737.3442 1713.8843), rotate(-180)"/>
<use href="#cd_shape_5" transform="translate(4258.9746 531.72363), rotate(90)"/>
<use href="#cd_shape_2" transform="translate(1701.6096 0.0015335083), rotate(90)"/>
<use href="#cd_shape_2" transform="translate(1528.1213 166.33383), rotate(-90)"/>
<use href="#cd_shape_2" transform="translate(3684.0483 88.314575), rotate(0)"/>
<use href="#cd_shape_2" transform="translate(978.9403 1999.8362), rotate(-90)"/>
<use href="#cd_shape_2" transform="translate(3297.778 1005.1348), rotate(-90)"/>
<use href="#cd_shape_2" transform="translate(2610.0386 527.2341), rotate(90)"/>
<use href="#cd_shape_2" transform="translate(0.0024795532 1315.6146), rotate(0)"/>
<use href="#cd_shape_2" transform="translate(2702.8203 0.010513306), rotate(90)"/>
<use href="#cd_shape_2" transform="translate(0.03227997 566.391), rotate(0)"/>
<use href="#cd_shape_2" transform="translate(1794.0089 166.3378), rotate(90)"/>
<use href="#cd_shape_1" transform="translate(2695.7686 1902.0172), rotate(-180)"/>
<use href="#cd_shape_1" transform="translate(3663.0906 126.436386), rotate(-180)"/>
<use href="#cd_shape_1" transform="translate(2221.072 1874.9956), rotate(0)"/>
<use href="#cd_shape_1" transform="translate(3699.7388 1487.5352), rotate(90)"/>
<use href="#cd_shape_1" transform="translate(778.9847 819.9621), rotate(-180)"/>
<use href="#cd_shape_1" transform="translate(2532.0608 1551.8386), rotate(-180)"/>
<use href="#cd_shape_1" transform="translate(636.9889 125.00549), rotate(-180)"/>
<use href="#cd_shape_1" transform="translate(0.032398224 511.86993), rotate(-90)"/>
<use href="#cd_shape_1" transform="translate(162.55539 97.886665), rotate(0)"/>
<use href="#cd_shape_1" transform="translate(2343.5342 401.98212), rotate(-180)"/>
<path d="M0,0 L4322.151,0 L4322.151,2000 L0,2000 z" fill="none" stroke="black" stroke-dasharray="5.5 11" stroke-linecap="round" stroke-linejoin="round" stroke-opacity="0.3" stroke-width="2.75"/>
</g>
<g id="surrogates">
<defs/>
</g>
<g id="collision_lines"/>
</g>
<text font-family="monospace" font-size="50" font-weight="500" x="0" y="-25">
h: 2000.000 | w: 4322.151 | d: 70.550% | final_best
</text>
</svg>